G04 Layer_Color=16711935*
%FSLAX44Y44*%
%MOMM*%
G71*
G01*
G75*
%ADD70R,1.3400X1.4000*%
%ADD78R,1.4000X1.3400*%
%ADD87C,2.0000*%
%ADD88C,3.5000*%
%ADD89R,1.7000X1.7000*%
%ADD90C,1.7000*%
%ADD91C,2.2000*%
%ADD92C,1.2000*%
%ADD93O,1.6500X0.8000*%
%ADD94R,1.6500X0.8000*%
%ADD95R,2.0000X2.2000*%
%ADD96O,2.3000X0.6500*%
%ADD97R,2.8000X1.7000*%
%ADD98O,1.7000X0.5500*%
%ADD99R,1.7000X2.8000*%
D70*
X806000Y112500D02*
D03*
Y131500D02*
D03*
X611000Y123250D02*
D03*
Y142250D02*
D03*
X631000Y142250D02*
D03*
Y123250D02*
D03*
X634000Y706500D02*
D03*
Y725500D02*
D03*
X653000Y725500D02*
D03*
Y706500D02*
D03*
X576000Y559500D02*
D03*
Y578500D02*
D03*
X596000Y578500D02*
D03*
Y559500D02*
D03*
X576000Y270500D02*
D03*
Y289500D02*
D03*
X596000Y289500D02*
D03*
Y270500D02*
D03*
X466000Y712500D02*
D03*
Y693500D02*
D03*
X418000Y1008500D02*
D03*
Y989500D02*
D03*
X261000Y88500D02*
D03*
Y69500D02*
D03*
X406000Y712500D02*
D03*
Y693500D02*
D03*
Y673500D02*
D03*
Y654500D02*
D03*
X436000Y712500D02*
D03*
Y693500D02*
D03*
Y673500D02*
D03*
Y654500D02*
D03*
X466000Y673500D02*
D03*
Y654500D02*
D03*
X834000Y151500D02*
D03*
Y132500D02*
D03*
X785000Y114250D02*
D03*
Y95250D02*
D03*
X757000Y189250D02*
D03*
Y170250D02*
D03*
D78*
X737500Y928000D02*
D03*
X718500D02*
D03*
X709500Y855000D02*
D03*
X690500D02*
D03*
X709500Y880000D02*
D03*
X690500D02*
D03*
X709500Y905000D02*
D03*
X572500Y334000D02*
D03*
X591500D02*
D03*
X633500Y769000D02*
D03*
X652500D02*
D03*
X520500Y593000D02*
D03*
X501500D02*
D03*
X571500Y623000D02*
D03*
X590500D02*
D03*
X521500Y304000D02*
D03*
X502500D02*
D03*
X328500Y1004000D02*
D03*
X309500D02*
D03*
X328500Y982000D02*
D03*
X309500D02*
D03*
X328500Y959000D02*
D03*
X309500D02*
D03*
X540500Y1019000D02*
D03*
X521500D02*
D03*
X540500Y999000D02*
D03*
X521500D02*
D03*
X540500Y979000D02*
D03*
X521500D02*
D03*
X540500Y959000D02*
D03*
X521500D02*
D03*
X540500Y939000D02*
D03*
X521500D02*
D03*
X540500Y919000D02*
D03*
X521500D02*
D03*
X540500Y899000D02*
D03*
X521500D02*
D03*
X540500Y879000D02*
D03*
X521500D02*
D03*
X540500Y859000D02*
D03*
X521500D02*
D03*
X582500Y740000D02*
D03*
X563500D02*
D03*
X802500Y151000D02*
D03*
X783500D02*
D03*
X690500Y905000D02*
D03*
X761500Y991000D02*
D03*
X780500D02*
D03*
X761500Y1026000D02*
D03*
X780500D02*
D03*
X761500Y956000D02*
D03*
X780500D02*
D03*
D87*
X545250Y1105200D02*
D03*
X494450D02*
D03*
X519850D02*
D03*
X418250Y1105400D02*
D03*
X367450D02*
D03*
X443650D02*
D03*
X469050D02*
D03*
X545250Y1130600D02*
D03*
X519850D02*
D03*
X469050D02*
D03*
X494450D02*
D03*
X392850Y1130800D02*
D03*
X367450D02*
D03*
X418250D02*
D03*
X443650D02*
D03*
Y1156200D02*
D03*
X418250D02*
D03*
X367450D02*
D03*
X392850D02*
D03*
X494450Y1156000D02*
D03*
X469050D02*
D03*
X519850D02*
D03*
X124350Y1071000D02*
D03*
Y1096000D02*
D03*
Y1121000D02*
D03*
Y1146000D02*
D03*
Y1171000D02*
D03*
X154350Y1071000D02*
D03*
Y1096000D02*
D03*
Y1171000D02*
D03*
Y1146000D02*
D03*
Y1121000D02*
D03*
X179350Y1071000D02*
D03*
Y1096000D02*
D03*
Y1121000D02*
D03*
Y1146000D02*
D03*
Y1171000D02*
D03*
X209350Y1071000D02*
D03*
Y1096000D02*
D03*
Y1171000D02*
D03*
Y1146000D02*
D03*
Y1121000D02*
D03*
X234350Y1071000D02*
D03*
Y1096000D02*
D03*
Y1121000D02*
D03*
Y1146000D02*
D03*
Y1171000D02*
D03*
X264350Y1071000D02*
D03*
Y1096000D02*
D03*
Y1171000D02*
D03*
Y1146000D02*
D03*
Y1121000D02*
D03*
X319350D02*
D03*
Y1146000D02*
D03*
Y1171000D02*
D03*
Y1096000D02*
D03*
Y1071000D02*
D03*
X289350Y1171000D02*
D03*
Y1146000D02*
D03*
Y1121000D02*
D03*
Y1096000D02*
D03*
Y1071000D02*
D03*
X761950D02*
D03*
Y1096000D02*
D03*
Y1121000D02*
D03*
Y1146000D02*
D03*
Y1171000D02*
D03*
X791950Y1071000D02*
D03*
Y1096000D02*
D03*
Y1171000D02*
D03*
Y1146000D02*
D03*
Y1121000D02*
D03*
X736950D02*
D03*
Y1146000D02*
D03*
Y1171000D02*
D03*
Y1096000D02*
D03*
Y1071000D02*
D03*
X706950Y1171000D02*
D03*
Y1146000D02*
D03*
Y1121000D02*
D03*
Y1096000D02*
D03*
Y1071000D02*
D03*
X681950Y1121000D02*
D03*
Y1146000D02*
D03*
Y1171000D02*
D03*
Y1096000D02*
D03*
Y1071000D02*
D03*
X651950Y1171000D02*
D03*
Y1146000D02*
D03*
Y1121000D02*
D03*
Y1096000D02*
D03*
Y1071000D02*
D03*
X626950Y1121000D02*
D03*
Y1146000D02*
D03*
Y1171000D02*
D03*
Y1096000D02*
D03*
Y1071000D02*
D03*
X596950Y1171000D02*
D03*
Y1146000D02*
D03*
Y1121000D02*
D03*
Y1096000D02*
D03*
Y1071000D02*
D03*
X545250Y1156000D02*
D03*
X392850Y1105400D02*
D03*
D88*
X846950Y1121000D02*
D03*
X69350D02*
D03*
D89*
X630000Y58000D02*
D03*
X732000Y247750D02*
D03*
D90*
X655400Y58000D02*
D03*
X757400Y247750D02*
D03*
X782800D02*
D03*
D91*
X407000Y46000D02*
D03*
X339000Y261250D02*
D03*
X301000D02*
D03*
X264000D02*
D03*
X339000Y233500D02*
D03*
X301500D02*
D03*
X264000D02*
D03*
Y289000D02*
D03*
X301500D02*
D03*
X339000D02*
D03*
X713000Y404000D02*
D03*
X339000Y580000D02*
D03*
X301500D02*
D03*
X382000Y46000D02*
D03*
X531000Y337000D02*
D03*
X532000Y46000D02*
D03*
X507000D02*
D03*
X482000D02*
D03*
X432000D02*
D03*
X381000Y337000D02*
D03*
X264000Y580000D02*
D03*
Y524500D02*
D03*
X301500D02*
D03*
X339000D02*
D03*
X264000Y552250D02*
D03*
X301000D02*
D03*
X339000D02*
D03*
X506000Y337000D02*
D03*
X481000D02*
D03*
X406000D02*
D03*
X663000Y454000D02*
D03*
Y429000D02*
D03*
Y404000D02*
D03*
X713000Y454000D02*
D03*
Y429000D02*
D03*
X431000Y337000D02*
D03*
D92*
X850000Y860000D02*
D03*
X857000Y391000D02*
D03*
X851000Y379000D02*
D03*
X850000Y886000D02*
D03*
Y911000D02*
D03*
X833500Y282500D02*
D03*
X571000Y603000D02*
D03*
X546000D02*
D03*
X558667Y593000D02*
D03*
X870000Y267000D02*
D03*
X583000Y760000D02*
D03*
X439000Y845000D02*
D03*
X453000D02*
D03*
X294000D02*
D03*
X308000D02*
D03*
X163000D02*
D03*
X149000D02*
D03*
X275000D02*
D03*
X419000D02*
D03*
X466000Y740000D02*
D03*
X584000Y593000D02*
D03*
X378000Y805000D02*
D03*
X511000D02*
D03*
X567000Y681000D02*
D03*
X512000Y691000D02*
D03*
X281000Y642000D02*
D03*
X374000D02*
D03*
Y616000D02*
D03*
X281000D02*
D03*
X281000Y629000D02*
D03*
X374000Y629000D02*
D03*
X676000Y176000D02*
D03*
X585000Y304000D02*
D03*
X559667D02*
D03*
X572000Y314000D02*
D03*
X547000D02*
D03*
X646000Y740000D02*
D03*
X608000Y750000D02*
D03*
X633000D02*
D03*
X620667Y740000D02*
D03*
X355000Y25000D02*
D03*
X345000Y16000D02*
D03*
X840000Y695000D02*
D03*
Y750000D02*
D03*
X831000Y760000D02*
D03*
Y683000D02*
D03*
D93*
X792250Y911100D02*
D03*
D94*
Y898400D02*
D03*
Y885700D02*
D03*
Y873000D02*
D03*
Y860300D02*
D03*
Y847600D02*
D03*
Y834900D02*
D03*
X737750Y911100D02*
D03*
Y898400D02*
D03*
Y885700D02*
D03*
Y873000D02*
D03*
Y860300D02*
D03*
Y847600D02*
D03*
Y834900D02*
D03*
D95*
X834000Y217000D02*
D03*
Y175000D02*
D03*
X783200Y217000D02*
D03*
Y175000D02*
D03*
D96*
X359500Y896250D02*
D03*
Y902750D02*
D03*
Y909250D02*
D03*
Y915750D02*
D03*
Y922250D02*
D03*
Y928750D02*
D03*
Y935250D02*
D03*
Y941750D02*
D03*
Y948250D02*
D03*
Y954750D02*
D03*
Y961250D02*
D03*
Y967750D02*
D03*
X428500Y896250D02*
D03*
Y902750D02*
D03*
Y909250D02*
D03*
Y915750D02*
D03*
Y922250D02*
D03*
Y928750D02*
D03*
Y935250D02*
D03*
Y941750D02*
D03*
Y948250D02*
D03*
Y954750D02*
D03*
Y961250D02*
D03*
Y967750D02*
D03*
D97*
X261000Y16000D02*
D03*
Y46000D02*
D03*
D98*
X676000Y104500D02*
D03*
Y111000D02*
D03*
Y117500D02*
D03*
Y124000D02*
D03*
Y130500D02*
D03*
Y137000D02*
D03*
Y143500D02*
D03*
Y150000D02*
D03*
Y156500D02*
D03*
Y163000D02*
D03*
X732000Y104500D02*
D03*
Y111000D02*
D03*
Y117500D02*
D03*
Y124000D02*
D03*
Y130500D02*
D03*
Y137000D02*
D03*
Y143500D02*
D03*
Y150000D02*
D03*
Y156500D02*
D03*
Y163000D02*
D03*
D99*
X841000Y991000D02*
D03*
X811000D02*
D03*
X841000Y956000D02*
D03*
X811000D02*
D03*
X841000Y1026000D02*
D03*
X811000D02*
D03*
M02*
