G04 Layer_Physical_Order=1*
G04 Layer_Color=255*
%FSLAX44Y44*%
%MOMM*%
G71*
G01*
G75*
%ADD10R,1.1400X1.2000*%
%ADD11O,1.9500X0.5500*%
%ADD12R,1.9500X0.5500*%
%ADD13R,0.9500X2.1000*%
%ADD14R,5.5000X6.5000*%
%ADD15R,1.3000X3.9000*%
%ADD16R,2.7000X0.7000*%
%ADD17R,5.6000X1.3000*%
%ADD18R,1.2000X1.1400*%
%ADD19R,6.3000X6.3000*%
%ADD20R,3.1000X1.7000*%
%ADD21O,0.5500X1.9500*%
%ADD22R,0.5500X1.9500*%
%ADD23R,4.0000X4.0000*%
%ADD24R,1.5000X0.6000*%
%ADD25R,1.1000X4.1000*%
%ADD26R,10.7000X8.7000*%
%ADD27C,1.5000*%
%ADD28C,1.0000*%
%ADD29C,0.5000*%
%ADD30C,0.3000*%
%ADD31R,9.5000X8.5000*%
%ADD32R,17.5000X2.7000*%
%ADD33C,1.8000*%
%ADD34C,3.3000*%
%ADD35R,1.5000X1.5000*%
%ADD36C,1.5000*%
%ADD37C,2.0000*%
%ADD38C,1.0000*%
G36*
X223000Y1190000D02*
Y1174435D01*
X221041Y1174133D01*
X219832Y1177052D01*
X217908Y1179559D01*
X215402Y1181482D01*
X214350Y1181918D01*
Y1171000D01*
X209350D01*
Y1166000D01*
X198432D01*
X198868Y1164948D01*
X200791Y1162442D01*
X203298Y1160518D01*
X205662Y1159539D01*
Y1157461D01*
X203298Y1156482D01*
X200791Y1154559D01*
X198868Y1152052D01*
X198432Y1151000D01*
X209350D01*
Y1141000D01*
X198432D01*
X198868Y1139948D01*
X200791Y1137442D01*
X203298Y1135518D01*
X205662Y1134539D01*
Y1132461D01*
X203298Y1131482D01*
X200791Y1129559D01*
X198868Y1127052D01*
X198432Y1126000D01*
X209350D01*
Y1116000D01*
X198432D01*
X198868Y1114948D01*
X200791Y1112442D01*
X203298Y1110518D01*
X205662Y1109539D01*
Y1107461D01*
X203298Y1106482D01*
X200791Y1104559D01*
X198868Y1102052D01*
X198432Y1101000D01*
X209350D01*
Y1091000D01*
X198432D01*
X198868Y1089948D01*
X200791Y1087442D01*
X203298Y1085518D01*
X205662Y1084539D01*
Y1082461D01*
X203298Y1081482D01*
X200791Y1079559D01*
X198868Y1077052D01*
X198432Y1076000D01*
X209350D01*
Y1071000D01*
X214350D01*
Y1060082D01*
X215402Y1060518D01*
X217908Y1062442D01*
X219832Y1064948D01*
X221041Y1067868D01*
X223000Y1067565D01*
Y1060000D01*
Y986000D01*
X261000Y948000D01*
X261000Y787000D01*
X209164Y787000D01*
X208864Y787300D01*
X182250D01*
Y787000D01*
X171728Y787000D01*
X170314Y788414D01*
Y841000D01*
X170062Y842268D01*
X169514Y843088D01*
X169576Y843238D01*
X169808Y845000D01*
X169576Y846762D01*
X169120Y847865D01*
X169064Y930085D01*
X170478Y931500D01*
X194500D01*
Y941000D01*
Y950500D01*
X169050D01*
X168995Y1031885D01*
X170408Y1033300D01*
X171500D01*
Y1042000D01*
Y1050700D01*
X168982D01*
X168974Y1061824D01*
X169487Y1061998D01*
X170974Y1062302D01*
X173298Y1060518D01*
X174350Y1060082D01*
Y1071000D01*
X179350D01*
Y1076000D01*
X190268D01*
X189832Y1077052D01*
X187908Y1079559D01*
X185402Y1081482D01*
X183038Y1082461D01*
Y1084539D01*
X185402Y1085518D01*
X187908Y1087442D01*
X189832Y1089948D01*
X190268Y1091000D01*
X179350D01*
Y1101000D01*
X190268D01*
X189832Y1102052D01*
X187908Y1104559D01*
X185402Y1106482D01*
X183038Y1107461D01*
Y1109539D01*
X185402Y1110518D01*
X187908Y1112442D01*
X189832Y1114948D01*
X190268Y1116000D01*
X179350D01*
Y1126000D01*
X190268D01*
X189832Y1127052D01*
X187908Y1129559D01*
X185402Y1131482D01*
X183038Y1132461D01*
Y1134539D01*
X185402Y1135518D01*
X187908Y1137442D01*
X189832Y1139948D01*
X190268Y1141000D01*
X179350D01*
Y1151000D01*
X190268D01*
X189832Y1152052D01*
X187908Y1154559D01*
X185402Y1156482D01*
X183038Y1157461D01*
Y1159539D01*
X185402Y1160518D01*
X187908Y1162442D01*
X189832Y1164948D01*
X190268Y1166000D01*
X179350D01*
Y1171000D01*
X174350D01*
Y1181918D01*
X173298Y1181482D01*
X170894Y1179637D01*
X170207Y1179751D01*
X168894Y1180196D01*
X168888Y1188586D01*
X170302Y1190000D01*
X223000Y1190000D01*
D02*
G37*
G36*
X559750Y703000D02*
Y691550D01*
X562000D01*
Y688000D01*
X563686D01*
Y686934D01*
X563596Y686896D01*
X562186Y685814D01*
X561104Y684404D01*
X560424Y682762D01*
X560192Y681000D01*
X560424Y679238D01*
X561104Y677596D01*
X562186Y676186D01*
X563596Y675104D01*
X565238Y674424D01*
X567000Y674192D01*
X568762Y674424D01*
X570404Y675104D01*
X571814Y676186D01*
X572896Y677596D01*
X573576Y679238D01*
X573808Y681000D01*
X573576Y682762D01*
X572896Y684404D01*
X571814Y685814D01*
X570404Y686896D01*
X570314Y686934D01*
Y688000D01*
X626000Y688000D01*
Y681750D01*
X626000Y681750D01*
X625700D01*
Y669000D01*
Y656250D01*
X626000D01*
Y625000D01*
X626000Y625000D01*
X489000Y625000D01*
Y635000D01*
X489000D01*
D01*
D01*
Y635000D01*
X512000D01*
Y670500D01*
X517000D01*
Y675500D01*
X547500D01*
Y703000D01*
X559750D01*
X559750D01*
D02*
G37*
G36*
X514000Y251000D02*
X565000Y251000D01*
Y247164D01*
X564700Y246864D01*
Y233000D01*
Y220250D01*
X565000D01*
Y212000D01*
X581293D01*
X582500Y210000D01*
Y193000D01*
X601500D01*
Y210000D01*
X601500Y210500D01*
X602707Y212000D01*
X614586D01*
X616000Y210586D01*
X616000Y155000D01*
X531000Y155000D01*
X471000Y215000D01*
X419750Y215000D01*
X419750Y289000D01*
X476000Y289000D01*
X514000Y251000D01*
D02*
G37*
G36*
X610000Y130000D02*
Y30898D01*
X609102Y30000D01*
X359572Y30000D01*
X358404Y30896D01*
X356762Y31576D01*
X355000Y31808D01*
X353238Y31576D01*
X351596Y30896D01*
X350428Y30000D01*
X312000D01*
Y101000D01*
X317500D01*
Y97000D01*
X354500D01*
Y101000D01*
X381000D01*
X406000Y76000D01*
X478000D01*
X490000Y88000D01*
X532000Y130000D01*
X610000Y130000D01*
D02*
G37*
G36*
X306000Y215000D02*
X355000D01*
Y129333D01*
X324795D01*
X322333Y131795D01*
Y133836D01*
X323748Y135250D01*
X325018Y135250D01*
X326500Y134000D01*
X326732Y134000D01*
X330000D01*
Y157500D01*
Y181000D01*
X326500D01*
X325018Y179750D01*
X324500Y179750D01*
X310982Y179750D01*
X309500Y181000D01*
X309268Y181000D01*
X306000D01*
Y157500D01*
Y134000D01*
X309500D01*
X310982Y135250D01*
X311500Y135250D01*
X313667D01*
Y130000D01*
X313997Y128342D01*
X314936Y126936D01*
X319936Y121936D01*
X321342Y120997D01*
X322288Y120808D01*
X322091Y118808D01*
X292000D01*
Y132207D01*
X294000Y134000D01*
X296000D01*
Y157500D01*
Y181000D01*
X294000D01*
X292500Y181000D01*
X292000Y182793D01*
Y188500D01*
X248414D01*
X247000Y189914D01*
Y215000D01*
X296000D01*
Y261500D01*
X306000D01*
Y215000D01*
D02*
G37*
G36*
X278000Y1190000D02*
Y1174435D01*
X276041Y1174133D01*
X274832Y1177052D01*
X272908Y1179559D01*
X270402Y1181482D01*
X269350Y1181918D01*
Y1171000D01*
X264350D01*
Y1166000D01*
X253432D01*
X253868Y1164948D01*
X255791Y1162442D01*
X258298Y1160518D01*
X260662Y1159539D01*
Y1157461D01*
X258298Y1156482D01*
X255791Y1154559D01*
X253868Y1152052D01*
X253432Y1151000D01*
X264350D01*
Y1141000D01*
X253432D01*
X253868Y1139948D01*
X255791Y1137442D01*
X258298Y1135518D01*
X260662Y1134539D01*
Y1132461D01*
X258298Y1131482D01*
X255791Y1129559D01*
X253868Y1127052D01*
X253432Y1126000D01*
X264350D01*
Y1116000D01*
X253432D01*
X253868Y1114948D01*
X255791Y1112442D01*
X258298Y1110518D01*
X260662Y1109539D01*
Y1107461D01*
X258298Y1106482D01*
X255791Y1104559D01*
X253868Y1102052D01*
X253432Y1101000D01*
X264350D01*
Y1091000D01*
X253432D01*
X253868Y1089948D01*
X255791Y1087442D01*
X258298Y1085518D01*
X260662Y1084539D01*
Y1082461D01*
X258298Y1081482D01*
X255791Y1079559D01*
X253868Y1077052D01*
X253432Y1076000D01*
X264350D01*
Y1071000D01*
X269350D01*
Y1060082D01*
X270402Y1060518D01*
X272908Y1062442D01*
X274832Y1064948D01*
X276041Y1067868D01*
X278000Y1067565D01*
Y1020000D01*
X406000Y892000D01*
X406000Y788414D01*
X404586Y787000D01*
X354164D01*
X353864Y787300D01*
X327250D01*
Y787000D01*
X316000D01*
X316000Y859750D01*
X266000Y909750D01*
X266000Y951000D01*
X225041Y991959D01*
X224994Y1060533D01*
X226994Y1061519D01*
X228298Y1060518D01*
X229350Y1060082D01*
Y1071000D01*
X234350D01*
Y1076000D01*
X245268D01*
X244832Y1077052D01*
X242908Y1079559D01*
X240402Y1081482D01*
X238038Y1082461D01*
Y1084539D01*
X240402Y1085518D01*
X242908Y1087442D01*
X244832Y1089948D01*
X245268Y1091000D01*
X234350D01*
Y1101000D01*
X245268D01*
X244832Y1102052D01*
X242908Y1104559D01*
X240402Y1106482D01*
X238038Y1107461D01*
Y1109539D01*
X240402Y1110518D01*
X242908Y1112442D01*
X244832Y1114948D01*
X245268Y1116000D01*
X234350D01*
Y1126000D01*
X245268D01*
X244832Y1127052D01*
X242908Y1129559D01*
X240402Y1131482D01*
X238038Y1132461D01*
Y1134539D01*
X240402Y1135518D01*
X242908Y1137442D01*
X244832Y1139948D01*
X245268Y1141000D01*
X234350D01*
Y1151000D01*
X245268D01*
X244832Y1152052D01*
X242908Y1154559D01*
X240402Y1156482D01*
X238038Y1157461D01*
Y1159539D01*
X240402Y1160518D01*
X242908Y1162442D01*
X244832Y1164948D01*
X245268Y1166000D01*
X234350D01*
Y1171000D01*
X229350D01*
Y1181918D01*
X228298Y1181482D01*
X226913Y1180419D01*
X224912Y1181405D01*
X224907Y1188585D01*
X226321Y1190000D01*
X278000Y1190000D01*
D02*
G37*
G36*
X153500Y815000D02*
X163686D01*
Y795614D01*
X158500D01*
Y796800D01*
X135500D01*
Y787800D01*
X158500D01*
Y788986D01*
X163686D01*
Y771373D01*
X163314Y771000D01*
X158500D01*
Y771400D01*
X135500D01*
Y771000D01*
X121000D01*
Y815000D01*
X143500D01*
Y825000D01*
X153500D01*
Y815000D01*
D02*
G37*
G36*
X515000Y541250D02*
X562586D01*
X564000Y539836D01*
Y534750D01*
X563700D01*
Y522000D01*
Y508136D01*
X564000Y507836D01*
Y501000D01*
X614586Y501000D01*
X616000Y499586D01*
Y495707D01*
X614000Y494500D01*
X610000D01*
Y472000D01*
Y449500D01*
X614000D01*
X614500Y449500D01*
X616000Y448293D01*
Y442000D01*
X535250Y442000D01*
X471000Y506250D01*
X419750Y506250D01*
X419750Y580250D01*
X476000Y580250D01*
X515000Y541250D01*
D02*
G37*
G36*
X610000Y421000D02*
Y410500D01*
X595500D01*
Y393000D01*
X605000D01*
Y383000D01*
X595500D01*
Y365500D01*
X610000D01*
Y321898D01*
X609102Y321000D01*
X312000Y321000D01*
Y392000D01*
X317500D01*
Y388000D01*
X354500D01*
Y392000D01*
X381000D01*
X406000Y367000D01*
X478000D01*
X490000Y379000D01*
X532000Y421000D01*
X610000Y421000D01*
D02*
G37*
G36*
X306000Y506000D02*
X355000D01*
Y420333D01*
X324795D01*
X322333Y422795D01*
Y424836D01*
X323748Y426250D01*
X325018Y426250D01*
X326500Y425000D01*
X326732Y425000D01*
X330000D01*
Y448500D01*
Y472000D01*
X326500D01*
X325018Y470750D01*
X324500Y470750D01*
X310982Y470750D01*
X309500Y472000D01*
X309268Y472000D01*
X306000D01*
Y448500D01*
Y425000D01*
X309500D01*
X310982Y426250D01*
X311500Y426250D01*
X313667D01*
Y421000D01*
X313997Y419342D01*
X314936Y417936D01*
X319936Y412936D01*
X321342Y411997D01*
X322288Y411808D01*
X322091Y409808D01*
X292000D01*
Y423207D01*
X292500Y425000D01*
X294000Y425000D01*
X296000D01*
Y448500D01*
Y472000D01*
X294000D01*
X292500Y472000D01*
X292000Y473793D01*
Y480750D01*
X288000Y485000D01*
X247000D01*
Y506000D01*
X296000D01*
Y552500D01*
X306000D01*
Y506000D01*
D02*
G37*
G36*
X298500Y815000D02*
X307686D01*
Y795614D01*
X303500D01*
Y796800D01*
X280500D01*
Y787800D01*
X303500D01*
Y788986D01*
X307686D01*
Y771373D01*
X307314Y771000D01*
X303500D01*
Y771400D01*
X280500D01*
Y771000D01*
X266000D01*
Y815000D01*
X288500D01*
Y825000D01*
X298500D01*
Y815000D01*
D02*
G37*
G36*
X443500D02*
X454000D01*
Y795614D01*
X448500D01*
Y796800D01*
X425500D01*
Y787800D01*
X448500D01*
Y788986D01*
X454000D01*
Y771000D01*
X448500D01*
Y771400D01*
X425500D01*
Y771000D01*
X411000D01*
Y815000D01*
X433500D01*
Y825000D01*
X443500D01*
Y815000D01*
D02*
G37*
G36*
X335000Y1060000D02*
X361000Y1060000D01*
X526000Y895000D01*
Y787000D01*
X499164D01*
X498864Y787300D01*
X472250D01*
Y787000D01*
X461314D01*
Y840000D01*
X461062Y841268D01*
X461000Y841360D01*
Y849000D01*
X458439D01*
X457814Y849814D01*
X456404Y850896D01*
X454762Y851576D01*
X453000Y851808D01*
X451238Y851576D01*
X449596Y850896D01*
X448186Y849814D01*
X447561Y849000D01*
X444439D01*
X443814Y849814D01*
X442404Y850896D01*
X440762Y851576D01*
X439000Y851808D01*
X437238Y851576D01*
X435596Y850896D01*
X434186Y849814D01*
X433561Y849000D01*
X424439D01*
X423814Y849814D01*
X422404Y850896D01*
X420762Y851576D01*
X419000Y851808D01*
X417238Y851576D01*
X415596Y850896D01*
X414186Y849814D01*
X414115Y849722D01*
X412683Y849649D01*
X411000Y851265D01*
X411000Y895000D01*
X279958Y1026042D01*
X279935Y1060578D01*
X281934Y1061565D01*
X283298Y1060518D01*
X284350Y1060082D01*
Y1071000D01*
X289350D01*
Y1076000D01*
X300268D01*
X299832Y1077052D01*
X297908Y1079559D01*
X295402Y1081482D01*
X293038Y1082461D01*
Y1084539D01*
X295402Y1085518D01*
X297908Y1087442D01*
X299832Y1089948D01*
X300268Y1091000D01*
X289350D01*
Y1101000D01*
X300268D01*
X299832Y1102052D01*
X297908Y1104559D01*
X295402Y1106482D01*
X293038Y1107461D01*
Y1109539D01*
X295402Y1110518D01*
X297908Y1112442D01*
X299832Y1114948D01*
X300268Y1116000D01*
X289350D01*
Y1126000D01*
X300268D01*
X299832Y1127052D01*
X297908Y1129559D01*
X295402Y1131482D01*
X293038Y1132461D01*
Y1134539D01*
X295402Y1135518D01*
X297908Y1137442D01*
X299832Y1139948D01*
X300268Y1141000D01*
X289350D01*
Y1151000D01*
X300268D01*
X299832Y1152052D01*
X297908Y1154559D01*
X295402Y1156482D01*
X293038Y1157461D01*
Y1159539D01*
X295402Y1160518D01*
X297908Y1162442D01*
X299832Y1164948D01*
X300268Y1166000D01*
X289350D01*
Y1171000D01*
X284350D01*
Y1181918D01*
X283298Y1181482D01*
X281854Y1180374D01*
X279853Y1181359D01*
X279848Y1188585D01*
X281262Y1190000D01*
X335000D01*
Y1060000D01*
D02*
G37*
G36*
X639000Y1188586D02*
Y1178294D01*
X637000Y1177615D01*
X635508Y1179559D01*
X633002Y1181482D01*
X631950Y1181918D01*
Y1171000D01*
X626950D01*
Y1166000D01*
X616032D01*
X616468Y1164948D01*
X618391Y1162442D01*
X620898Y1160518D01*
X623262Y1159539D01*
Y1157461D01*
X620898Y1156482D01*
X618391Y1154559D01*
X616468Y1152052D01*
X616032Y1151000D01*
X626950D01*
Y1141000D01*
X616032D01*
X616468Y1139948D01*
X618391Y1137442D01*
X620898Y1135518D01*
X623262Y1134539D01*
Y1132461D01*
X620898Y1131482D01*
X618391Y1129559D01*
X616468Y1127052D01*
X616032Y1126000D01*
X626950D01*
Y1116000D01*
X616032D01*
X616468Y1114948D01*
X618391Y1112442D01*
X620898Y1110518D01*
X623262Y1109539D01*
Y1107461D01*
X620898Y1106482D01*
X618391Y1104559D01*
X616468Y1102052D01*
X616032Y1101000D01*
X626950D01*
Y1091000D01*
X616032D01*
X616468Y1089948D01*
X618391Y1087442D01*
X620898Y1085518D01*
X623262Y1084539D01*
Y1082461D01*
X620898Y1081482D01*
X618391Y1079559D01*
X616468Y1077052D01*
X616032Y1076000D01*
X626950D01*
Y1071000D01*
X631950D01*
Y1060082D01*
X633002Y1060518D01*
X635508Y1062442D01*
X637000Y1064385D01*
X639000Y1063706D01*
Y1012000D01*
X697000Y954000D01*
X697000Y796000D01*
X697000Y626414D01*
X695586Y625000D01*
X627784Y625000D01*
X627784Y625000D01*
Y654836D01*
X628400Y655452D01*
Y669000D01*
Y681750D01*
X627784D01*
X627784Y681750D01*
Y688000D01*
X627649Y688683D01*
X627500Y688905D01*
Y698750D01*
X654186D01*
Y741814D01*
X577000Y819000D01*
X577000Y1190000D01*
X637586Y1190000D01*
X639000Y1188586D01*
D02*
G37*
G36*
X749000Y1190000D02*
Y1178294D01*
X747000Y1177615D01*
X745508Y1179559D01*
X743002Y1181482D01*
X741950Y1181918D01*
Y1171000D01*
X736950D01*
Y1166000D01*
X726032D01*
X726468Y1164948D01*
X728391Y1162442D01*
X730898Y1160518D01*
X733262Y1159539D01*
Y1157461D01*
X730898Y1156482D01*
X728391Y1154559D01*
X726468Y1152052D01*
X726032Y1151000D01*
X736950D01*
Y1141000D01*
X726032D01*
X726468Y1139948D01*
X728391Y1137442D01*
X730898Y1135518D01*
X733262Y1134539D01*
Y1132461D01*
X730898Y1131482D01*
X728391Y1129559D01*
X726468Y1127052D01*
X726032Y1126000D01*
X736950D01*
Y1116000D01*
X726032D01*
X726468Y1114948D01*
X728391Y1112442D01*
X730898Y1110518D01*
X733262Y1109539D01*
Y1107461D01*
X730898Y1106482D01*
X728391Y1104559D01*
X726468Y1102052D01*
X726032Y1101000D01*
X736950D01*
Y1091000D01*
X726032D01*
X726468Y1089948D01*
X728391Y1087442D01*
X730898Y1085518D01*
X733262Y1084539D01*
Y1082461D01*
X730898Y1081482D01*
X728391Y1079559D01*
X726468Y1077052D01*
X726032Y1076000D01*
X736950D01*
Y1071000D01*
X741950D01*
Y1060082D01*
X743002Y1060518D01*
X745508Y1062442D01*
X747432Y1064948D01*
X747664Y1065508D01*
X750023Y1065977D01*
X837000Y979000D01*
Y766425D01*
X835000Y765439D01*
X834404Y765896D01*
X832762Y766576D01*
X831000Y766808D01*
X829238Y766576D01*
X827596Y765896D01*
X826186Y764814D01*
X825104Y763404D01*
X824424Y761762D01*
X824192Y760000D01*
X824424Y758238D01*
X825104Y756596D01*
X826186Y755186D01*
X827596Y754104D01*
X827686Y754066D01*
Y688934D01*
X827596Y688896D01*
X826186Y687814D01*
X825104Y686404D01*
X824424Y684762D01*
X824192Y683000D01*
X824424Y681238D01*
X825104Y679596D01*
X826186Y678186D01*
X827596Y677104D01*
X829238Y676424D01*
X831000Y676192D01*
X832762Y676424D01*
X834404Y677104D01*
X835000Y677561D01*
X837000Y676575D01*
Y396000D01*
X655000Y214000D01*
X568414Y214000D01*
X567000Y215414D01*
Y220250D01*
X567400D01*
Y233000D01*
Y246764D01*
X567000Y247164D01*
X567000Y262270D01*
X628000D01*
X771000Y405270D01*
X771000Y963000D01*
X698000Y1036000D01*
Y1060221D01*
X700000Y1061207D01*
X700898Y1060518D01*
X701950Y1060082D01*
Y1071000D01*
X706950D01*
Y1076000D01*
X717868D01*
X717432Y1077052D01*
X715508Y1079559D01*
X713002Y1081482D01*
X710638Y1082461D01*
Y1084539D01*
X713002Y1085518D01*
X715508Y1087442D01*
X717432Y1089948D01*
X717868Y1091000D01*
X706950D01*
Y1101000D01*
X717868D01*
X717432Y1102052D01*
X715508Y1104559D01*
X713002Y1106482D01*
X710638Y1107461D01*
Y1109539D01*
X713002Y1110518D01*
X715508Y1112442D01*
X717432Y1114948D01*
X717868Y1116000D01*
X706950D01*
Y1126000D01*
X717868D01*
X717432Y1127052D01*
X715508Y1129559D01*
X713002Y1131482D01*
X710638Y1132461D01*
Y1134539D01*
X713002Y1135518D01*
X715508Y1137442D01*
X717432Y1139948D01*
X717868Y1141000D01*
X706950D01*
Y1151000D01*
X717868D01*
X717432Y1152052D01*
X715508Y1154559D01*
X713002Y1156482D01*
X710638Y1157461D01*
Y1159539D01*
X713002Y1160518D01*
X715508Y1162442D01*
X717432Y1164948D01*
X717868Y1166000D01*
X706950D01*
Y1171000D01*
X701950D01*
Y1181918D01*
X700898Y1181482D01*
X700000Y1180793D01*
X698000Y1181779D01*
Y1188586D01*
X699414Y1190000D01*
X749000Y1190000D01*
D02*
G37*
G36*
X180836Y785001D02*
X181237Y784600D01*
X208764D01*
X209164Y785001D01*
X261000Y785001D01*
X261000Y760000D01*
X301000Y760000D01*
Y760986D01*
X302414Y762400D01*
X303500D01*
Y763586D01*
X307900D01*
X309168Y763839D01*
X310243Y764557D01*
X313343Y767657D01*
X314062Y768732D01*
X314314Y770000D01*
Y785000D01*
X325836D01*
X326236Y784600D01*
X352750D01*
Y785000D01*
X406000Y785000D01*
X406000Y760000D01*
X446000Y760000D01*
Y760986D01*
X447414Y762400D01*
X448500D01*
Y763586D01*
X454900D01*
X456168Y763839D01*
X457243Y764557D01*
X460343Y767657D01*
X461062Y768732D01*
X461314Y770000D01*
Y785000D01*
X470836Y785000D01*
X471236Y784600D01*
X497750D01*
Y785000D01*
X523886Y785001D01*
X524386Y784500D01*
X534000D01*
Y774500D01*
X525300D01*
Y770500D01*
X525300D01*
X526000Y769800D01*
X526000Y742000D01*
X503915Y719915D01*
X501950Y720779D01*
X501950Y721678D01*
Y728500D01*
X486450D01*
Y720000D01*
X500137D01*
X501172Y720000D01*
X502036Y718036D01*
X488750Y704750D01*
X487750D01*
Y703750D01*
X457000Y673000D01*
X276000D01*
X230927Y627927D01*
X230927Y478000D01*
X273000Y478000D01*
Y473414D01*
X272000Y472414D01*
Y448500D01*
X267000D01*
Y443500D01*
X258500D01*
Y427000D01*
X256500Y425000D01*
X230927Y425000D01*
X230927Y182000D01*
X256914D01*
X258500Y181000D01*
Y162500D01*
X267000D01*
Y157500D01*
X272000D01*
Y134000D01*
X275000D01*
Y103000D01*
X171000D01*
X171000Y552886D01*
X172414Y554300D01*
X173500D01*
Y563000D01*
Y571700D01*
X171000D01*
X171000Y655086D01*
X172414Y656500D01*
X194500D01*
Y666000D01*
Y675500D01*
X171000D01*
Y783587D01*
X172414Y785001D01*
X180836D01*
D02*
G37*
G36*
X165000Y1188586D02*
Y1180118D01*
X163000Y1179439D01*
X162908Y1179559D01*
X160402Y1181482D01*
X159350Y1181918D01*
Y1171000D01*
X154350D01*
Y1166000D01*
X143432D01*
X143868Y1164948D01*
X145792Y1162442D01*
X148298Y1160518D01*
X150662Y1159539D01*
Y1157461D01*
X148298Y1156482D01*
X145792Y1154559D01*
X143868Y1152052D01*
X143432Y1151000D01*
X154350D01*
Y1141000D01*
X143432D01*
X143868Y1139948D01*
X145792Y1137442D01*
X148298Y1135518D01*
X150662Y1134539D01*
Y1132461D01*
X148298Y1131482D01*
X145792Y1129559D01*
X143868Y1127052D01*
X143432Y1126000D01*
X154350D01*
Y1116000D01*
X143432D01*
X143868Y1114948D01*
X145792Y1112442D01*
X148298Y1110518D01*
X150662Y1109539D01*
Y1107461D01*
X148298Y1106482D01*
X145792Y1104559D01*
X143868Y1102052D01*
X143432Y1101000D01*
X154350D01*
Y1091000D01*
X143432D01*
X143868Y1089948D01*
X145792Y1087442D01*
X148298Y1085518D01*
X150662Y1084539D01*
Y1082461D01*
X148298Y1081482D01*
X145792Y1079559D01*
X143868Y1077052D01*
X143432Y1076000D01*
X154350D01*
Y1071000D01*
X159350D01*
Y1060082D01*
X160402Y1060518D01*
X162908Y1062442D01*
X163000Y1062561D01*
X165000Y1061882D01*
Y1050700D01*
X162500D01*
Y1042000D01*
Y1033300D01*
X165000D01*
Y856414D01*
X163586Y855000D01*
X113000Y855000D01*
Y760000D01*
X167000Y760000D01*
Y573114D01*
X165586Y571700D01*
X164500D01*
Y563000D01*
Y554300D01*
X167000D01*
X167000Y0D01*
X44414Y0D01*
X43000Y1414D01*
X43000Y1190000D01*
X163586Y1190000D01*
X165000Y1188586D01*
D02*
G37*
G36*
X694000Y1190000D02*
Y1178294D01*
X692000Y1177615D01*
X690508Y1179559D01*
X688002Y1181482D01*
X686950Y1181918D01*
Y1171000D01*
X681950D01*
Y1166000D01*
X671032D01*
X671468Y1164948D01*
X673391Y1162442D01*
X675898Y1160518D01*
X678262Y1159539D01*
Y1157461D01*
X675898Y1156482D01*
X673391Y1154559D01*
X671468Y1152052D01*
X671032Y1151000D01*
X681950D01*
Y1141000D01*
X671032D01*
X671468Y1139948D01*
X673391Y1137442D01*
X675898Y1135518D01*
X678262Y1134539D01*
Y1132461D01*
X675898Y1131482D01*
X673391Y1129559D01*
X671468Y1127052D01*
X671032Y1126000D01*
X681950D01*
Y1116000D01*
X671032D01*
X671468Y1114948D01*
X673391Y1112442D01*
X675898Y1110518D01*
X678262Y1109539D01*
Y1107461D01*
X675898Y1106482D01*
X673391Y1104559D01*
X671468Y1102052D01*
X671032Y1101000D01*
X681950D01*
Y1091000D01*
X671032D01*
X671468Y1089948D01*
X673391Y1087442D01*
X675898Y1085518D01*
X678262Y1084539D01*
Y1082461D01*
X675898Y1081482D01*
X673391Y1079559D01*
X671468Y1077052D01*
X671032Y1076000D01*
X681950D01*
Y1071000D01*
X686950D01*
Y1060082D01*
X688002Y1060518D01*
X690508Y1062442D01*
X692000Y1064385D01*
X694000Y1063706D01*
Y1035000D01*
X766000Y963000D01*
X766000Y562000D01*
X707000Y503000D01*
X566000D01*
Y507836D01*
X566400Y508236D01*
Y522000D01*
Y534750D01*
X566000D01*
Y539586D01*
X567414Y541000D01*
X621000Y541000D01*
X701000Y621000D01*
X701000Y796000D01*
X701000Y955000D01*
X643000Y1013000D01*
Y1060221D01*
X645000Y1061207D01*
X645898Y1060518D01*
X646950Y1060082D01*
Y1071000D01*
X651950D01*
Y1076000D01*
X662868D01*
X662432Y1077052D01*
X660508Y1079559D01*
X658002Y1081482D01*
X655638Y1082461D01*
Y1084539D01*
X658002Y1085518D01*
X660508Y1087442D01*
X662432Y1089948D01*
X662868Y1091000D01*
X651950D01*
Y1101000D01*
X662868D01*
X662432Y1102052D01*
X660508Y1104559D01*
X658002Y1106482D01*
X655638Y1107461D01*
Y1109539D01*
X658002Y1110518D01*
X660508Y1112442D01*
X662432Y1114948D01*
X662868Y1116000D01*
X651950D01*
Y1126000D01*
X662868D01*
X662432Y1127052D01*
X660508Y1129559D01*
X658002Y1131482D01*
X655638Y1132461D01*
Y1134539D01*
X658002Y1135518D01*
X660508Y1137442D01*
X662432Y1139948D01*
X662868Y1141000D01*
X651950D01*
Y1151000D01*
X662868D01*
X662432Y1152052D01*
X660508Y1154559D01*
X658002Y1156482D01*
X655638Y1157461D01*
Y1159539D01*
X658002Y1160518D01*
X660508Y1162442D01*
X662432Y1164948D01*
X662868Y1166000D01*
X651950D01*
Y1171000D01*
X646950D01*
Y1181918D01*
X645898Y1181482D01*
X645000Y1180793D01*
X643000Y1181779D01*
Y1188586D01*
X644414Y1190000D01*
X694000Y1190000D01*
D02*
G37*
%LPC*%
G36*
X541000Y531867D02*
X540584Y531244D01*
X540137Y529000D01*
Y527000D01*
X541000D01*
Y531867D01*
D02*
G37*
G36*
X589850Y517000D02*
X589100D01*
Y509250D01*
X589850D01*
Y517000D01*
D02*
G37*
G36*
X553700Y534750D02*
X552950D01*
Y532548D01*
X551000Y531957D01*
Y522000D01*
Y512043D01*
X552950Y511452D01*
Y509250D01*
X553700D01*
Y522000D01*
Y534750D01*
D02*
G37*
G36*
X541000Y517000D02*
X540137D01*
Y515000D01*
X540584Y512757D01*
X541000Y512133D01*
Y517000D01*
D02*
G37*
G36*
X589100Y534750D02*
Y527000D01*
X589850D01*
Y534750D01*
X589100D01*
D02*
G37*
G36*
X154500Y558000D02*
X150500D01*
Y554300D01*
X154500D01*
Y558000D01*
D02*
G37*
G36*
X187500D02*
X183500D01*
Y554300D01*
X187500D01*
Y558000D01*
D02*
G37*
G36*
X443000Y547250D02*
X425000D01*
Y529250D01*
X443000D01*
Y547250D01*
D02*
G37*
G36*
X471000D02*
X453000D01*
Y529250D01*
X471000D01*
Y547250D01*
D02*
G37*
G36*
X600000Y467000D02*
X595500D01*
Y449500D01*
X600000D01*
Y467000D01*
D02*
G37*
G36*
X142000Y454500D02*
X130500D01*
Y453000D01*
X142000D01*
Y454500D01*
D02*
G37*
G36*
X207500Y443000D02*
X196000D01*
Y441500D01*
X207500D01*
Y443000D01*
D02*
G37*
G36*
X163500Y454500D02*
X152000D01*
Y448000D01*
Y441500D01*
X163500D01*
Y454500D01*
D02*
G37*
G36*
X186000D02*
X174500D01*
Y441500D01*
X186000D01*
Y448000D01*
Y454500D01*
D02*
G37*
G36*
X600000Y494500D02*
X595500D01*
Y477000D01*
X600000D01*
Y494500D01*
D02*
G37*
G36*
X577150Y534750D02*
X576400Y534750D01*
Y522000D01*
Y509250D01*
X578350Y509250D01*
X579100Y509250D01*
Y522000D01*
Y534750D01*
X577150Y534750D01*
D02*
G37*
G36*
X340000Y472000D02*
Y453500D01*
X343500D01*
Y472000D01*
X340000D01*
D02*
G37*
G36*
X207500Y454500D02*
X196000D01*
Y453000D01*
X207500D01*
Y454500D01*
D02*
G37*
G36*
X262000Y472000D02*
X258500D01*
Y453500D01*
X262000D01*
Y472000D01*
D02*
G37*
G36*
X651100Y681750D02*
Y674000D01*
X651850D01*
Y681750D01*
X651100D01*
D02*
G37*
G36*
X603000Y678867D02*
X602584Y678244D01*
X602137Y676000D01*
Y674000D01*
X603000D01*
Y678867D01*
D02*
G37*
G36*
X71500Y675500D02*
X45500D01*
Y656500D01*
X71500D01*
Y666000D01*
Y675500D01*
D02*
G37*
G36*
X615700Y681750D02*
X614950D01*
Y656250D01*
X615700D01*
Y669000D01*
Y681750D01*
D02*
G37*
G36*
X651850Y664000D02*
X651100D01*
Y656250D01*
X651850D01*
Y664000D01*
D02*
G37*
G36*
X107500Y661000D02*
X81500D01*
Y656500D01*
X107500D01*
Y661000D01*
D02*
G37*
G36*
Y675500D02*
X81500D01*
Y671000D01*
X107500D01*
Y675500D01*
D02*
G37*
G36*
X230500D02*
X204500D01*
Y671000D01*
X230500D01*
Y675500D01*
D02*
G37*
G36*
X613000Y678867D02*
Y669000D01*
Y659134D01*
X613416Y659757D01*
X613863Y662000D01*
Y676000D01*
X613416Y678244D01*
X613000Y678867D01*
D02*
G37*
G36*
X230500Y661000D02*
X204500D01*
Y656500D01*
X230500D01*
Y661000D01*
D02*
G37*
G36*
X603000Y664000D02*
X602137D01*
Y662000D01*
X602584Y659757D01*
X603000Y659134D01*
Y664000D01*
D02*
G37*
G36*
X187500Y571700D02*
X183500D01*
Y568000D01*
X187500D01*
Y571700D01*
D02*
G37*
G36*
X461000Y746247D02*
X460294Y745706D01*
X459753Y745000D01*
X461000D01*
Y746247D01*
D02*
G37*
G36*
X154500Y571700D02*
X150500D01*
Y568000D01*
X154500D01*
Y571700D01*
D02*
G37*
G36*
X443000Y575250D02*
X425000D01*
Y557250D01*
X443000D01*
Y575250D01*
D02*
G37*
G36*
X471000D02*
X453000D01*
Y557250D01*
X471000D01*
Y575250D01*
D02*
G37*
G36*
X501950Y747000D02*
X499200D01*
Y738500D01*
X501950D01*
Y747000D01*
D02*
G37*
G36*
X547500Y665500D02*
X522000D01*
Y635000D01*
X547500D01*
Y665500D01*
D02*
G37*
G36*
X639150Y681750D02*
X638400Y681750D01*
Y669000D01*
Y656250D01*
X640350Y656250D01*
X641100Y656250D01*
Y669000D01*
Y681750D01*
X639150Y681750D01*
D02*
G37*
G36*
X461000Y735000D02*
X459753D01*
X460294Y734295D01*
X461000Y733753D01*
Y735000D01*
D02*
G37*
G36*
X489200Y747000D02*
X486450D01*
Y738500D01*
X489200D01*
Y747000D01*
D02*
G37*
G36*
X472247Y735000D02*
X471000D01*
Y733753D01*
X471706Y734295D01*
X472247Y735000D01*
D02*
G37*
G36*
X142000Y443000D02*
X130500D01*
Y441500D01*
X142000D01*
Y443000D01*
D02*
G37*
G36*
X343500Y152500D02*
X340000D01*
Y134000D01*
X343500D01*
Y152500D01*
D02*
G37*
G36*
X142000Y152000D02*
X130500D01*
Y150500D01*
X142000D01*
Y152000D01*
D02*
G37*
G36*
X262000Y152500D02*
X258500D01*
Y134000D01*
X262000D01*
Y152500D01*
D02*
G37*
G36*
X601500Y99000D02*
X597000D01*
Y81500D01*
X601500D01*
Y99000D01*
D02*
G37*
G36*
Y126500D02*
X582500D01*
Y109000D01*
X601500D01*
Y126500D01*
D02*
G37*
G36*
X163500Y163500D02*
X152000D01*
Y157000D01*
Y150500D01*
X163500D01*
Y163500D01*
D02*
G37*
G36*
X207500D02*
X196000D01*
Y162000D01*
X207500D01*
Y163500D01*
D02*
G37*
G36*
X340000Y181000D02*
Y162500D01*
X343500D01*
Y181000D01*
X340000D01*
D02*
G37*
G36*
X142000Y163500D02*
X130500D01*
Y162000D01*
X142000D01*
Y163500D01*
D02*
G37*
G36*
X186000D02*
X174500D01*
Y150500D01*
X186000D01*
Y157000D01*
Y163500D01*
D02*
G37*
G36*
X207500Y152000D02*
X196000D01*
Y150500D01*
X207500D01*
Y152000D01*
D02*
G37*
G36*
X587000Y99000D02*
X582500D01*
Y81500D01*
X587000D01*
Y99000D01*
D02*
G37*
G36*
X377000Y58000D02*
X375444Y57356D01*
X372728Y55272D01*
X370645Y52556D01*
X370000Y51000D01*
X377000D01*
Y58000D01*
D02*
G37*
G36*
X437000D02*
Y51000D01*
X444000D01*
X443356Y52556D01*
X441272Y55272D01*
X438556Y57356D01*
X437000Y58000D01*
D02*
G37*
G36*
X354500Y57500D02*
X341000D01*
Y51000D01*
X354500D01*
Y57500D01*
D02*
G37*
G36*
Y41000D02*
X317500D01*
Y34500D01*
X354500D01*
Y41000D01*
D02*
G37*
G36*
X331000Y57500D02*
X317500D01*
Y51000D01*
X331000D01*
Y57500D01*
D02*
G37*
G36*
X477000Y58000D02*
X475444Y57356D01*
X472728Y55272D01*
X470645Y52556D01*
X470000Y51000D01*
X477000D01*
Y58000D01*
D02*
G37*
G36*
X331000Y87000D02*
X317500D01*
Y80500D01*
X331000D01*
Y87000D01*
D02*
G37*
G36*
X354500D02*
X341000D01*
Y80500D01*
X354500D01*
Y87000D01*
D02*
G37*
G36*
X527000Y58000D02*
X525444Y57356D01*
X522728Y55272D01*
X520645Y52556D01*
X520135Y51326D01*
X518865D01*
X518356Y52556D01*
X516272Y55272D01*
X513556Y57356D01*
X512000Y58000D01*
Y46000D01*
X502000D01*
Y58000D01*
X500444Y57356D01*
X497728Y55272D01*
X495645Y52556D01*
X495135Y51326D01*
X493865D01*
X493356Y52556D01*
X491272Y55272D01*
X488556Y57356D01*
X487000Y58000D01*
Y46000D01*
X482000D01*
Y41000D01*
X470000D01*
X470645Y39444D01*
X472728Y36728D01*
X475444Y34645D01*
X478606Y33335D01*
X482000Y32888D01*
X485394Y33335D01*
X488556Y34645D01*
X491272Y36728D01*
X493356Y39444D01*
X493865Y40674D01*
X495135D01*
X495645Y39444D01*
X497728Y36728D01*
X500444Y34645D01*
X503606Y33335D01*
X507000Y32888D01*
X510394Y33335D01*
X513556Y34645D01*
X516272Y36728D01*
X518356Y39444D01*
X518865Y40674D01*
X520135D01*
X520645Y39444D01*
X522728Y36728D01*
X525444Y34645D01*
X528606Y33335D01*
X532000Y32888D01*
X535394Y33335D01*
X538556Y34645D01*
X541272Y36728D01*
X543356Y39444D01*
X544000Y41000D01*
X532000D01*
Y46000D01*
X527000D01*
Y58000D01*
D02*
G37*
G36*
X537000D02*
Y51000D01*
X544000D01*
X543356Y52556D01*
X541272Y55272D01*
X538556Y57356D01*
X537000Y58000D01*
D02*
G37*
G36*
X427000D02*
X425444Y57356D01*
X422728Y55272D01*
X420645Y52556D01*
X420135Y51326D01*
X418865D01*
X418356Y52556D01*
X416272Y55272D01*
X413556Y57356D01*
X412000Y58000D01*
Y46000D01*
X402000D01*
Y58000D01*
X400444Y57356D01*
X397728Y55272D01*
X395645Y52556D01*
X395135Y51326D01*
X393865D01*
X393356Y52556D01*
X391272Y55272D01*
X388556Y57356D01*
X387000Y58000D01*
Y46000D01*
X382000D01*
Y41000D01*
X370000D01*
X370645Y39444D01*
X372728Y36728D01*
X375444Y34645D01*
X378606Y33335D01*
X382000Y32888D01*
X385394Y33335D01*
X388556Y34645D01*
X391272Y36728D01*
X393356Y39444D01*
X393865Y40674D01*
X395135D01*
X395645Y39444D01*
X397728Y36728D01*
X400444Y34645D01*
X403606Y33335D01*
X407000Y32888D01*
X410394Y33335D01*
X413556Y34645D01*
X416272Y36728D01*
X418356Y39444D01*
X418865Y40674D01*
X420135D01*
X420645Y39444D01*
X422728Y36728D01*
X425444Y34645D01*
X428606Y33335D01*
X432000Y32888D01*
X435394Y33335D01*
X438556Y34645D01*
X441272Y36728D01*
X443356Y39444D01*
X444000Y41000D01*
X432000D01*
Y46000D01*
X427000D01*
Y58000D01*
D02*
G37*
G36*
X587000Y183000D02*
X582500D01*
Y165500D01*
X587000D01*
Y183000D01*
D02*
G37*
G36*
X436000Y349000D02*
Y342000D01*
X443000D01*
X442356Y343556D01*
X440272Y346272D01*
X437556Y348356D01*
X436000Y349000D01*
D02*
G37*
G36*
X476000D02*
X474444Y348356D01*
X471728Y346272D01*
X469645Y343556D01*
X469000Y342000D01*
X476000D01*
Y349000D01*
D02*
G37*
G36*
X376000D02*
X374444Y348356D01*
X371728Y346272D01*
X369645Y343556D01*
X369000Y342000D01*
X376000D01*
Y349000D01*
D02*
G37*
G36*
X331000Y348500D02*
X317500D01*
Y342000D01*
X331000D01*
Y348500D01*
D02*
G37*
G36*
X354500D02*
X341000D01*
Y342000D01*
X354500D01*
Y348500D01*
D02*
G37*
G36*
X536000Y349000D02*
Y342000D01*
X543000D01*
X542356Y343556D01*
X540272Y346272D01*
X537556Y348356D01*
X536000Y349000D01*
D02*
G37*
G36*
X354500Y378000D02*
X341000D01*
Y371500D01*
X354500D01*
Y378000D01*
D02*
G37*
G36*
X343500Y443500D02*
X340000D01*
Y425000D01*
X343500D01*
Y443500D01*
D02*
G37*
G36*
X331000Y378000D02*
X317500D01*
Y371500D01*
X331000D01*
Y378000D01*
D02*
G37*
G36*
X426000Y349000D02*
X424444Y348356D01*
X421728Y346272D01*
X419645Y343556D01*
X419135Y342326D01*
X417865D01*
X417356Y343556D01*
X415272Y346272D01*
X412556Y348356D01*
X411000Y349000D01*
Y337000D01*
X401000D01*
Y349000D01*
X399444Y348356D01*
X396728Y346272D01*
X394645Y343556D01*
X394135Y342326D01*
X392865D01*
X392356Y343556D01*
X390272Y346272D01*
X387556Y348356D01*
X386000Y349000D01*
Y337000D01*
X381000D01*
Y332000D01*
X369000D01*
X369645Y330444D01*
X371728Y327728D01*
X374444Y325645D01*
X377607Y324335D01*
X381000Y323888D01*
X384394Y324335D01*
X387556Y325645D01*
X390272Y327728D01*
X392356Y330444D01*
X392865Y331674D01*
X394135D01*
X394645Y330444D01*
X396728Y327728D01*
X399444Y325645D01*
X402607Y324335D01*
X406000Y323888D01*
X409394Y324335D01*
X412556Y325645D01*
X415272Y327728D01*
X417356Y330444D01*
X417865Y331674D01*
X419135D01*
X419645Y330444D01*
X421728Y327728D01*
X424444Y325645D01*
X427607Y324335D01*
X431000Y323888D01*
X434394Y324335D01*
X437556Y325645D01*
X440272Y327728D01*
X442356Y330444D01*
X443000Y332000D01*
X431000D01*
Y337000D01*
X426000D01*
Y349000D01*
D02*
G37*
G36*
X526000D02*
X524444Y348356D01*
X521728Y346272D01*
X519645Y343556D01*
X519135Y342326D01*
X517865D01*
X517356Y343556D01*
X515272Y346272D01*
X512556Y348356D01*
X511000Y349000D01*
Y337000D01*
X501000D01*
Y349000D01*
X499444Y348356D01*
X496728Y346272D01*
X494645Y343556D01*
X494135Y342326D01*
X492865D01*
X492356Y343556D01*
X490272Y346272D01*
X487556Y348356D01*
X486000Y349000D01*
Y337000D01*
X481000D01*
Y332000D01*
X469000D01*
X469645Y330444D01*
X471728Y327728D01*
X474444Y325645D01*
X477607Y324335D01*
X481000Y323888D01*
X484394Y324335D01*
X487556Y325645D01*
X490272Y327728D01*
X492356Y330444D01*
X492865Y331674D01*
X494135D01*
X494645Y330444D01*
X496728Y327728D01*
X499444Y325645D01*
X502607Y324335D01*
X506000Y323888D01*
X509394Y324335D01*
X512556Y325645D01*
X515272Y327728D01*
X517356Y330444D01*
X517865Y331674D01*
X519135D01*
X519645Y330444D01*
X521728Y327728D01*
X524444Y325645D01*
X527607Y324335D01*
X531000Y323888D01*
X534394Y324335D01*
X537556Y325645D01*
X540272Y327728D01*
X542356Y330444D01*
X543000Y332000D01*
X531000D01*
Y337000D01*
X526000D01*
Y349000D01*
D02*
G37*
G36*
X354500Y332000D02*
X317500D01*
Y325500D01*
X354500D01*
Y332000D01*
D02*
G37*
G36*
X590850Y228000D02*
X590100D01*
Y220250D01*
X590850D01*
Y228000D01*
D02*
G37*
G36*
X542000D02*
X541138D01*
Y226000D01*
X541584Y223757D01*
X542000Y223133D01*
Y228000D01*
D02*
G37*
G36*
X554700Y245750D02*
X553950D01*
Y243548D01*
X552000Y242957D01*
Y233000D01*
Y223043D01*
X553950Y222452D01*
Y220250D01*
X554700D01*
Y233000D01*
Y245750D01*
D02*
G37*
G36*
X601500Y183000D02*
X597000D01*
Y165500D01*
X601500D01*
Y183000D01*
D02*
G37*
G36*
X578150Y245750D02*
X577400Y245750D01*
Y233000D01*
Y220250D01*
X579350Y220250D01*
X580100Y220250D01*
Y233000D01*
Y245750D01*
X578150Y245750D01*
D02*
G37*
G36*
X443000Y256000D02*
X425000D01*
Y238000D01*
X443000D01*
Y256000D01*
D02*
G37*
G36*
Y284000D02*
X425000D01*
Y266000D01*
X443000D01*
Y284000D01*
D02*
G37*
G36*
X471000D02*
X453000D01*
Y266000D01*
X471000D01*
Y284000D01*
D02*
G37*
G36*
X590100Y245750D02*
Y238000D01*
X590850D01*
Y245750D01*
X590100D01*
D02*
G37*
G36*
X471000Y256000D02*
X453000D01*
Y238000D01*
X471000D01*
Y256000D01*
D02*
G37*
G36*
X542000Y242867D02*
X541584Y242244D01*
X541138Y240000D01*
Y238000D01*
X542000D01*
Y242867D01*
D02*
G37*
G36*
X471000Y746247D02*
Y745000D01*
X472247D01*
X471706Y745706D01*
X471000Y746247D01*
D02*
G37*
G36*
X149350Y1066000D02*
X143432D01*
X143868Y1064948D01*
X145792Y1062442D01*
X148298Y1060518D01*
X149350Y1060082D01*
Y1066000D01*
D02*
G37*
G36*
X204350D02*
X198432D01*
X198868Y1064948D01*
X200791Y1062442D01*
X203298Y1060518D01*
X204350Y1060082D01*
Y1066000D01*
D02*
G37*
G36*
X259350D02*
X253432D01*
X253868Y1064948D01*
X255791Y1062442D01*
X258298Y1060518D01*
X259350Y1060082D01*
Y1066000D01*
D02*
G37*
G36*
X324350Y1181918D02*
Y1171000D01*
X319350D01*
Y1166000D01*
X308432D01*
X308868Y1164948D01*
X310791Y1162442D01*
X313298Y1160518D01*
X315662Y1159539D01*
Y1157461D01*
X313298Y1156482D01*
X310791Y1154559D01*
X308868Y1152052D01*
X308432Y1151000D01*
X319350D01*
Y1141000D01*
X308432D01*
X308868Y1139948D01*
X310791Y1137442D01*
X313298Y1135518D01*
X315662Y1134539D01*
Y1132461D01*
X313298Y1131482D01*
X310791Y1129559D01*
X308868Y1127052D01*
X308432Y1126000D01*
X319350D01*
Y1116000D01*
X308432D01*
X308868Y1114948D01*
X310791Y1112442D01*
X313298Y1110518D01*
X315662Y1109539D01*
Y1107461D01*
X313298Y1106482D01*
X310791Y1104559D01*
X308868Y1102052D01*
X308432Y1101000D01*
X319350D01*
Y1091000D01*
X308432D01*
X308868Y1089948D01*
X310791Y1087442D01*
X313298Y1085518D01*
X315662Y1084539D01*
Y1082461D01*
X313298Y1081482D01*
X310791Y1079559D01*
X308868Y1077052D01*
X308432Y1076000D01*
X319350D01*
Y1071000D01*
X324350D01*
Y1060082D01*
X325402Y1060518D01*
X327909Y1062442D01*
X329832Y1064948D01*
X331041Y1067868D01*
X331454Y1071000D01*
X331041Y1074133D01*
X329832Y1077052D01*
X327909Y1079559D01*
X325402Y1081482D01*
X323038Y1082461D01*
Y1084539D01*
X325402Y1085518D01*
X327909Y1087442D01*
X329832Y1089948D01*
X331041Y1092868D01*
X331454Y1096000D01*
X331041Y1099133D01*
X329832Y1102052D01*
X327909Y1104559D01*
X325402Y1106482D01*
X323038Y1107461D01*
Y1109539D01*
X325402Y1110518D01*
X327909Y1112442D01*
X329832Y1114948D01*
X331041Y1117868D01*
X331454Y1121000D01*
X331041Y1124133D01*
X329832Y1127052D01*
X327909Y1129559D01*
X325402Y1131482D01*
X323038Y1132461D01*
Y1134539D01*
X325402Y1135518D01*
X327909Y1137442D01*
X329832Y1139948D01*
X331041Y1142868D01*
X331454Y1146000D01*
X331041Y1149133D01*
X329832Y1152052D01*
X327909Y1154559D01*
X325402Y1156482D01*
X323038Y1157461D01*
Y1159539D01*
X325402Y1160518D01*
X327909Y1162442D01*
X329832Y1164948D01*
X331041Y1167868D01*
X331454Y1171000D01*
X331041Y1174133D01*
X329832Y1177052D01*
X327909Y1179559D01*
X325402Y1181482D01*
X324350Y1181918D01*
D02*
G37*
G36*
X676950Y1066000D02*
X671032D01*
X671468Y1064948D01*
X673391Y1062442D01*
X675898Y1060518D01*
X676950Y1060082D01*
Y1066000D01*
D02*
G37*
G36*
X731950D02*
X726032D01*
X726468Y1064948D01*
X728391Y1062442D01*
X730898Y1060518D01*
X731950Y1060082D01*
Y1066000D01*
D02*
G37*
G36*
X662868D02*
X656950D01*
Y1060082D01*
X658002Y1060518D01*
X660508Y1062442D01*
X662432Y1064948D01*
X662868Y1066000D01*
D02*
G37*
G36*
X717868D02*
X711950D01*
Y1060082D01*
X713002Y1060518D01*
X715508Y1062442D01*
X717432Y1064948D01*
X717868Y1066000D01*
D02*
G37*
G36*
X135268Y1091000D02*
X113432D01*
X113868Y1089948D01*
X115792Y1087442D01*
X118298Y1085518D01*
X120662Y1084539D01*
Y1082461D01*
X118298Y1081482D01*
X115792Y1079559D01*
X113868Y1077052D01*
X113432Y1076000D01*
X135268D01*
X134832Y1077052D01*
X132908Y1079559D01*
X130402Y1081482D01*
X128038Y1082461D01*
Y1084539D01*
X130402Y1085518D01*
X132908Y1087442D01*
X134832Y1089948D01*
X135268Y1091000D01*
D02*
G37*
G36*
X300268Y1066000D02*
X294350D01*
Y1060082D01*
X295402Y1060518D01*
X297908Y1062442D01*
X299832Y1064948D01*
X300268Y1066000D01*
D02*
G37*
G36*
X591950D02*
X586032D01*
X586468Y1064948D01*
X588391Y1062442D01*
X590898Y1060518D01*
X591950Y1060082D01*
Y1066000D01*
D02*
G37*
G36*
X607868D02*
X601950D01*
Y1060082D01*
X603002Y1060518D01*
X605508Y1062442D01*
X607432Y1064948D01*
X607868Y1066000D01*
D02*
G37*
G36*
X185500Y1037000D02*
X181500D01*
Y1033300D01*
X185500D01*
Y1037000D01*
D02*
G37*
G36*
X152500Y1050700D02*
X148500D01*
Y1047000D01*
X152500D01*
Y1050700D01*
D02*
G37*
G36*
X185500D02*
X181500D01*
Y1047000D01*
X185500D01*
Y1050700D01*
D02*
G37*
G36*
X107500Y950500D02*
X81500D01*
Y946000D01*
X107500D01*
Y950500D01*
D02*
G37*
G36*
X230500D02*
X204500D01*
Y946000D01*
X230500D01*
Y950500D01*
D02*
G37*
G36*
X152500Y1037000D02*
X148500D01*
Y1033300D01*
X152500D01*
Y1037000D01*
D02*
G37*
G36*
X245268Y1066000D02*
X239350D01*
Y1060082D01*
X240402Y1060518D01*
X242908Y1062442D01*
X244832Y1064948D01*
X245268Y1066000D01*
D02*
G37*
G36*
X621950D02*
X616032D01*
X616468Y1064948D01*
X618391Y1062442D01*
X620898Y1060518D01*
X621950Y1060082D01*
Y1066000D01*
D02*
G37*
G36*
X314350D02*
X308432D01*
X308868Y1064948D01*
X310791Y1062442D01*
X313298Y1060518D01*
X314350Y1060082D01*
Y1066000D01*
D02*
G37*
G36*
X119350D02*
X113432D01*
X113868Y1064948D01*
X115792Y1062442D01*
X118298Y1060518D01*
X119350Y1060082D01*
Y1066000D01*
D02*
G37*
G36*
X135268D02*
X129350D01*
Y1060082D01*
X130402Y1060518D01*
X132908Y1062442D01*
X134832Y1064948D01*
X135268Y1066000D01*
D02*
G37*
G36*
X190268D02*
X184350D01*
Y1060082D01*
X185402Y1060518D01*
X187908Y1062442D01*
X189832Y1064948D01*
X190268Y1066000D01*
D02*
G37*
G36*
X294350Y1181918D02*
Y1176000D01*
X300268D01*
X299832Y1177052D01*
X297908Y1179559D01*
X295402Y1181482D01*
X294350Y1181918D01*
D02*
G37*
G36*
X314350D02*
X313298Y1181482D01*
X310791Y1179559D01*
X308868Y1177052D01*
X308432Y1176000D01*
X314350D01*
Y1181918D01*
D02*
G37*
G36*
X591950D02*
X590898Y1181482D01*
X588391Y1179559D01*
X586468Y1177052D01*
X586032Y1176000D01*
X591950D01*
Y1181918D01*
D02*
G37*
G36*
X204350D02*
X203298Y1181482D01*
X200791Y1179559D01*
X198868Y1177052D01*
X198432Y1176000D01*
X204350D01*
Y1181918D01*
D02*
G37*
G36*
X239350D02*
Y1176000D01*
X245268D01*
X244832Y1177052D01*
X242908Y1179559D01*
X240402Y1181482D01*
X239350Y1181918D01*
D02*
G37*
G36*
X259350D02*
X258298Y1181482D01*
X255791Y1179559D01*
X253868Y1177052D01*
X253432Y1176000D01*
X259350D01*
Y1181918D01*
D02*
G37*
G36*
X676950D02*
X675898Y1181482D01*
X673391Y1179559D01*
X671468Y1177052D01*
X671032Y1176000D01*
X676950D01*
Y1181918D01*
D02*
G37*
G36*
X711950D02*
Y1176000D01*
X717868D01*
X717432Y1177052D01*
X715508Y1179559D01*
X713002Y1181482D01*
X711950Y1181918D01*
D02*
G37*
G36*
X731950D02*
X730898Y1181482D01*
X728391Y1179559D01*
X726468Y1177052D01*
X726032Y1176000D01*
X731950D01*
Y1181918D01*
D02*
G37*
G36*
X601950D02*
Y1176000D01*
X607868D01*
X607432Y1177052D01*
X605508Y1179559D01*
X603002Y1181482D01*
X601950Y1181918D01*
D02*
G37*
G36*
X621950D02*
X620898Y1181482D01*
X618391Y1179559D01*
X616468Y1177052D01*
X616032Y1176000D01*
X621950D01*
Y1181918D01*
D02*
G37*
G36*
X656950D02*
Y1176000D01*
X662868D01*
X662432Y1177052D01*
X660508Y1179559D01*
X658002Y1181482D01*
X656950Y1181918D01*
D02*
G37*
G36*
X607868Y1116000D02*
X586032D01*
X586468Y1114948D01*
X588391Y1112442D01*
X590898Y1110518D01*
X593262Y1109539D01*
Y1107461D01*
X590898Y1106482D01*
X588391Y1104559D01*
X586468Y1102052D01*
X586032Y1101000D01*
X607868D01*
X607432Y1102052D01*
X605508Y1104559D01*
X603002Y1106482D01*
X600638Y1107461D01*
Y1109539D01*
X603002Y1110518D01*
X605508Y1112442D01*
X607432Y1114948D01*
X607868Y1116000D01*
D02*
G37*
G36*
X135268Y1141000D02*
X113432D01*
X113868Y1139948D01*
X115792Y1137442D01*
X118298Y1135518D01*
X120662Y1134539D01*
Y1132461D01*
X118298Y1131482D01*
X115792Y1129559D01*
X113868Y1127052D01*
X113432Y1126000D01*
X135268D01*
X134832Y1127052D01*
X132908Y1129559D01*
X130402Y1131482D01*
X128038Y1132461D01*
Y1134539D01*
X130402Y1135518D01*
X132908Y1137442D01*
X134832Y1139948D01*
X135268Y1141000D01*
D02*
G37*
G36*
X607868D02*
X586032D01*
X586468Y1139948D01*
X588391Y1137442D01*
X590898Y1135518D01*
X593262Y1134539D01*
Y1132461D01*
X590898Y1131482D01*
X588391Y1129559D01*
X586468Y1127052D01*
X586032Y1126000D01*
X607868D01*
X607432Y1127052D01*
X605508Y1129559D01*
X603002Y1131482D01*
X600638Y1132461D01*
Y1134539D01*
X603002Y1135518D01*
X605508Y1137442D01*
X607432Y1139948D01*
X607868Y1141000D01*
D02*
G37*
G36*
Y1091000D02*
X586032D01*
X586468Y1089948D01*
X588391Y1087442D01*
X590898Y1085518D01*
X593262Y1084539D01*
Y1082461D01*
X590898Y1081482D01*
X588391Y1079559D01*
X586468Y1077052D01*
X586032Y1076000D01*
X607868D01*
X607432Y1077052D01*
X605508Y1079559D01*
X603002Y1081482D01*
X600638Y1082461D01*
Y1084539D01*
X603002Y1085518D01*
X605508Y1087442D01*
X607432Y1089948D01*
X607868Y1091000D01*
D02*
G37*
G36*
X69350Y1145084D02*
X64652Y1144621D01*
X60134Y1143250D01*
X55970Y1141025D01*
X52320Y1138030D01*
X49325Y1134380D01*
X47100Y1130217D01*
X45729Y1125699D01*
X45267Y1121000D01*
X45729Y1116302D01*
X47100Y1111784D01*
X49325Y1107620D01*
X52320Y1103971D01*
X55970Y1100975D01*
X60134Y1098750D01*
X64652Y1097379D01*
X69350Y1096917D01*
X74048Y1097379D01*
X78566Y1098750D01*
X82730Y1100975D01*
X86380Y1103971D01*
X89375Y1107620D01*
X91600Y1111784D01*
X92971Y1116302D01*
X93433Y1121000D01*
X92971Y1125699D01*
X91600Y1130217D01*
X89375Y1134380D01*
X86380Y1138030D01*
X82730Y1141025D01*
X78566Y1143250D01*
X74048Y1144621D01*
X69350Y1145084D01*
D02*
G37*
G36*
X135268Y1116000D02*
X113432D01*
X113868Y1114948D01*
X115792Y1112442D01*
X118298Y1110518D01*
X120662Y1109539D01*
Y1107461D01*
X118298Y1106482D01*
X115792Y1104559D01*
X113868Y1102052D01*
X113432Y1101000D01*
X135268D01*
X134832Y1102052D01*
X132908Y1104559D01*
X130402Y1106482D01*
X128038Y1107461D01*
Y1109539D01*
X130402Y1110518D01*
X132908Y1112442D01*
X134832Y1114948D01*
X135268Y1116000D01*
D02*
G37*
G36*
X129350Y1181918D02*
Y1176000D01*
X135268D01*
X134832Y1177052D01*
X132908Y1179559D01*
X130402Y1181482D01*
X129350Y1181918D01*
D02*
G37*
G36*
X149350D02*
X148298Y1181482D01*
X145792Y1179559D01*
X143868Y1177052D01*
X143432Y1176000D01*
X149350D01*
Y1181918D01*
D02*
G37*
G36*
X184350D02*
Y1176000D01*
X190268D01*
X189832Y1177052D01*
X187908Y1179559D01*
X185402Y1181482D01*
X184350Y1181918D01*
D02*
G37*
G36*
X135268Y1166000D02*
X113432D01*
X113868Y1164948D01*
X115792Y1162442D01*
X118298Y1160518D01*
X120662Y1159539D01*
Y1157461D01*
X118298Y1156482D01*
X115792Y1154559D01*
X113868Y1152052D01*
X113432Y1151000D01*
X135268D01*
X134832Y1152052D01*
X132908Y1154559D01*
X130402Y1156482D01*
X128038Y1157461D01*
Y1159539D01*
X130402Y1160518D01*
X132908Y1162442D01*
X134832Y1164948D01*
X135268Y1166000D01*
D02*
G37*
G36*
X607868D02*
X586032D01*
X586468Y1164948D01*
X588391Y1162442D01*
X590898Y1160518D01*
X593262Y1159539D01*
Y1157461D01*
X590898Y1156482D01*
X588391Y1154559D01*
X586468Y1152052D01*
X586032Y1151000D01*
X607868D01*
X607432Y1152052D01*
X605508Y1154559D01*
X603002Y1156482D01*
X600638Y1157461D01*
Y1159539D01*
X603002Y1160518D01*
X605508Y1162442D01*
X607432Y1164948D01*
X607868Y1166000D01*
D02*
G37*
G36*
X119350Y1181918D02*
X118298Y1181482D01*
X115792Y1179559D01*
X113868Y1177052D01*
X113432Y1176000D01*
X119350D01*
Y1181918D01*
D02*
G37*
G36*
X230500Y936000D02*
X204500D01*
Y931500D01*
X230500D01*
Y936000D01*
D02*
G37*
G36*
X142000Y785350D02*
X134250D01*
Y784600D01*
X142000D01*
Y785350D01*
D02*
G37*
G36*
X159750D02*
X152000D01*
Y784600D01*
X159750D01*
Y785350D01*
D02*
G37*
G36*
X287000D02*
X279250D01*
Y784600D01*
X287000D01*
Y785350D01*
D02*
G37*
G36*
X304750Y774600D02*
X297000D01*
Y773850D01*
X304750D01*
Y774600D01*
D02*
G37*
G36*
X432000D02*
X424250D01*
Y773850D01*
X432000D01*
Y774600D01*
D02*
G37*
G36*
X449750Y785350D02*
X442000D01*
Y779600D01*
Y773850D01*
X449750D01*
Y785350D01*
D02*
G37*
G36*
X352750Y800000D02*
X327250D01*
X327250Y798050D01*
X327250Y797300D01*
X352750D01*
X352750Y799250D01*
X352750Y800000D01*
D02*
G37*
G36*
X497750D02*
X472250D01*
X472250Y798050D01*
X472250Y797300D01*
X497750D01*
X497750Y799250D01*
X497750Y800000D01*
D02*
G37*
G36*
X373000D02*
X371753D01*
X372295Y799295D01*
X373000Y798753D01*
Y800000D01*
D02*
G37*
G36*
X304750Y785350D02*
X297000D01*
Y784600D01*
X304750D01*
Y785350D01*
D02*
G37*
G36*
X432000D02*
X424250D01*
Y784600D01*
X432000D01*
Y785350D01*
D02*
G37*
G36*
X207750Y800000D02*
X182250D01*
X182250Y798050D01*
X182250Y797300D01*
X207750D01*
X207750Y799250D01*
X207750Y800000D01*
D02*
G37*
G36*
X352750Y761900D02*
X345000D01*
Y761150D01*
X352750D01*
Y761900D01*
D02*
G37*
G36*
X480000D02*
X472250D01*
Y761150D01*
X480000D01*
Y761900D01*
D02*
G37*
G36*
X497750D02*
X490000D01*
Y761150D01*
X497750D01*
Y761900D01*
D02*
G37*
G36*
X190000D02*
X182250D01*
Y761150D01*
X190000D01*
Y761900D01*
D02*
G37*
G36*
X207750D02*
X200000D01*
Y761150D01*
X207750D01*
Y761900D01*
D02*
G37*
G36*
X335000D02*
X327250D01*
Y761150D01*
X335000D01*
Y761900D01*
D02*
G37*
G36*
X142000Y774600D02*
X134250D01*
Y773850D01*
X142000D01*
Y774600D01*
D02*
G37*
G36*
X159750D02*
X152000D01*
Y773850D01*
X159750D01*
Y774600D01*
D02*
G37*
G36*
X287000D02*
X279250D01*
Y773850D01*
X287000D01*
Y774600D01*
D02*
G37*
G36*
X207750D02*
X182250D01*
X182250Y772650D01*
X182250Y771900D01*
X207750D01*
X207750Y773850D01*
X207750Y774600D01*
D02*
G37*
G36*
X352750D02*
X327250D01*
X327250Y772650D01*
X327250Y771900D01*
X352750D01*
X352750Y773850D01*
X352750Y774600D01*
D02*
G37*
G36*
X497750D02*
X472250D01*
X472250Y772650D01*
X472250Y771900D01*
X497750D01*
X497750Y773850D01*
X497750Y774600D01*
D02*
G37*
G36*
X373000Y811247D02*
X372295Y810706D01*
X371753Y810000D01*
X373000D01*
Y811247D01*
D02*
G37*
G36*
X383000D02*
Y810000D01*
X384247D01*
X383706Y810706D01*
X383000Y811247D01*
D02*
G37*
G36*
X444000Y810863D02*
X430000D01*
X427757Y810416D01*
X427133Y810000D01*
X446867D01*
X446244Y810416D01*
X444000Y810863D01*
D02*
G37*
G36*
X299000D02*
X285000D01*
X282757Y810416D01*
X282133Y810000D01*
X301867D01*
X301244Y810416D01*
X299000Y810863D01*
D02*
G37*
G36*
X335000Y810750D02*
X327250D01*
Y810000D01*
X335000D01*
Y810750D01*
D02*
G37*
G36*
X352750D02*
X345000D01*
Y810000D01*
X352750D01*
Y810750D01*
D02*
G37*
G36*
X516000Y811247D02*
Y810000D01*
X517247D01*
X516706Y810706D01*
X516000Y811247D01*
D02*
G37*
G36*
X71500Y950500D02*
X45500D01*
Y931500D01*
X71500D01*
Y941000D01*
Y950500D01*
D02*
G37*
G36*
X107500Y936000D02*
X81500D01*
Y931500D01*
X107500D01*
Y936000D01*
D02*
G37*
G36*
X480000Y810750D02*
X472250D01*
Y810000D01*
X480000D01*
Y810750D01*
D02*
G37*
G36*
X497750D02*
X490000D01*
Y810000D01*
X497750D01*
Y810750D01*
D02*
G37*
G36*
X506000Y811247D02*
X505294Y810706D01*
X504753Y810000D01*
X506000D01*
Y811247D01*
D02*
G37*
G36*
X142000Y800000D02*
X137134D01*
X137757Y799584D01*
X140000Y799137D01*
X142000D01*
Y800000D01*
D02*
G37*
G36*
X156867D02*
X152000D01*
Y799137D01*
X154000D01*
X156244Y799584D01*
X156867Y800000D01*
D02*
G37*
G36*
X287000D02*
X282133D01*
X282757Y799584D01*
X285000Y799137D01*
X287000D01*
Y800000D01*
D02*
G37*
G36*
X384247D02*
X383000D01*
Y798753D01*
X383706Y799295D01*
X384247Y800000D01*
D02*
G37*
G36*
X506000D02*
X504753D01*
X505294Y799295D01*
X506000Y798753D01*
Y800000D01*
D02*
G37*
G36*
X517247D02*
X516000D01*
Y798753D01*
X516706Y799295D01*
X517247Y800000D01*
D02*
G37*
G36*
X154000Y810863D02*
X140000D01*
X137757Y810416D01*
X137134Y810000D01*
X156867D01*
X156244Y810416D01*
X154000Y810863D01*
D02*
G37*
G36*
X190000Y810750D02*
X182250D01*
Y810000D01*
X190000D01*
Y810750D01*
D02*
G37*
G36*
X207750D02*
X200000D01*
Y810000D01*
X207750D01*
Y810750D01*
D02*
G37*
G36*
X301867Y800000D02*
X297000D01*
Y799137D01*
X299000D01*
X301244Y799584D01*
X301867Y800000D01*
D02*
G37*
G36*
X432000D02*
X427133D01*
X427757Y799584D01*
X430000Y799137D01*
X432000D01*
Y800000D01*
D02*
G37*
G36*
X446867D02*
X442000D01*
Y799137D01*
X444000D01*
X446244Y799584D01*
X446867Y800000D01*
D02*
G37*
%LPD*%
D10*
X534000Y779500D02*
D03*
Y760500D02*
D03*
D11*
X437000Y805000D02*
D03*
X147000D02*
D03*
X292000D02*
D03*
D12*
X437000Y792300D02*
D03*
Y779600D02*
D03*
Y766900D02*
D03*
X485000Y805000D02*
D03*
Y792300D02*
D03*
Y779600D02*
D03*
Y766900D02*
D03*
X147000Y792300D02*
D03*
Y779600D02*
D03*
Y766900D02*
D03*
X195000Y805000D02*
D03*
Y792300D02*
D03*
Y779600D02*
D03*
Y766900D02*
D03*
X292000Y792300D02*
D03*
Y779600D02*
D03*
Y766900D02*
D03*
X340000Y805000D02*
D03*
Y792300D02*
D03*
Y779600D02*
D03*
Y766900D02*
D03*
D13*
X539800Y733500D02*
D03*
X494200D02*
D03*
D14*
X517000Y670500D02*
D03*
D15*
X592000Y188000D02*
D03*
Y104000D02*
D03*
X605000Y388000D02*
D03*
Y472000D02*
D03*
D16*
X147000Y448000D02*
D03*
X191000D02*
D03*
Y157000D02*
D03*
X147000D02*
D03*
D17*
X76500Y941000D02*
D03*
X199500D02*
D03*
X76500Y666000D02*
D03*
X199500D02*
D03*
D18*
X438500Y825000D02*
D03*
X419500D02*
D03*
X293500D02*
D03*
X274500D02*
D03*
X148500Y825000D02*
D03*
X129500D02*
D03*
X567500Y699000D02*
D03*
X586500D02*
D03*
X833500Y340000D02*
D03*
X814500D02*
D03*
X833500Y320000D02*
D03*
X814500D02*
D03*
X833500Y300000D02*
D03*
X814500D02*
D03*
X176500Y1042000D02*
D03*
X157500D02*
D03*
X178500Y563000D02*
D03*
X159500D02*
D03*
D19*
X271000Y360000D02*
D03*
Y69000D02*
D03*
D20*
X336000Y383000D02*
D03*
Y337000D02*
D03*
Y92000D02*
D03*
Y46000D02*
D03*
D21*
X608000Y669000D02*
D03*
X546000Y522000D02*
D03*
X547000Y233000D02*
D03*
D22*
X620700Y669000D02*
D03*
X633400D02*
D03*
X646100D02*
D03*
X608000Y717000D02*
D03*
X620700D02*
D03*
X633400D02*
D03*
X646100D02*
D03*
X558700Y522000D02*
D03*
X571400D02*
D03*
X584100D02*
D03*
X546000Y570000D02*
D03*
X558700D02*
D03*
X571400D02*
D03*
X584100D02*
D03*
X559700Y233000D02*
D03*
X572400D02*
D03*
X585100D02*
D03*
X547000Y281000D02*
D03*
X559700D02*
D03*
X572400D02*
D03*
X585100D02*
D03*
D23*
X448000Y396250D02*
D03*
Y552250D02*
D03*
X448000Y105000D02*
D03*
Y261000D02*
D03*
D24*
X563500Y728000D02*
D03*
X582500Y737500D02*
D03*
Y718500D02*
D03*
D25*
X267000Y448500D02*
D03*
X284000D02*
D03*
X301000D02*
D03*
X318000D02*
D03*
X335000D02*
D03*
X267000Y157500D02*
D03*
X284000D02*
D03*
X301000D02*
D03*
X318000D02*
D03*
X335000D02*
D03*
D26*
X301000Y552500D02*
D03*
Y261500D02*
D03*
D27*
X381000Y337000D02*
X406000D01*
X431000D01*
X481000D02*
X506000D01*
X531000D01*
X507000Y46000D02*
X532000D01*
X482000D02*
X507000D01*
X407000D02*
X432000D01*
X382000D02*
X407000D01*
X706950Y1146000D02*
Y1167950D01*
Y1121000D02*
Y1146000D01*
Y1096000D02*
Y1121000D01*
Y1071000D02*
Y1096000D01*
X736950Y1146000D02*
Y1171000D01*
Y1121000D02*
Y1146000D01*
Y1096000D02*
Y1121000D01*
Y1074050D02*
Y1096000D01*
X681950Y1146000D02*
Y1167950D01*
Y1121000D02*
Y1146000D01*
Y1096000D02*
Y1121000D01*
Y1071000D02*
Y1096000D01*
X651950Y1146000D02*
Y1171000D01*
Y1121000D02*
Y1146000D01*
Y1096000D02*
Y1121000D01*
Y1074050D02*
Y1096000D01*
X626950Y1146000D02*
Y1171000D01*
Y1121000D02*
Y1146000D01*
Y1096000D02*
Y1121000D01*
Y1071000D02*
Y1096000D01*
X596950Y1146000D02*
Y1171000D01*
Y1121000D02*
Y1146000D01*
Y1096000D02*
Y1121000D01*
Y1074050D02*
Y1096000D01*
X319350Y1146000D02*
Y1171000D01*
Y1121000D02*
Y1146000D01*
Y1096000D02*
Y1121000D01*
Y1071000D02*
Y1096000D01*
X289350Y1146000D02*
Y1171000D01*
Y1121000D02*
Y1146000D01*
Y1096000D02*
Y1121000D01*
Y1074050D02*
Y1096000D01*
X264350Y1146000D02*
Y1167950D01*
Y1121000D02*
Y1146000D01*
Y1096000D02*
Y1121000D01*
Y1071000D02*
Y1096000D01*
X234350Y1146000D02*
Y1171000D01*
Y1121000D02*
Y1146000D01*
Y1096000D02*
Y1121000D01*
Y1071000D02*
Y1096000D01*
X209350Y1071000D02*
Y1096000D01*
Y1121000D01*
Y1146000D01*
Y1171000D01*
X179350Y1071000D02*
Y1096000D01*
Y1121000D01*
Y1146000D01*
Y1171000D01*
X154350Y1071000D02*
Y1096000D01*
Y1146000D02*
Y1171000D01*
Y1121000D02*
Y1146000D01*
Y1096000D02*
Y1121000D01*
X124350Y1071000D02*
Y1096000D01*
Y1121000D01*
Y1146000D01*
Y1171000D01*
D28*
X284000Y112000D02*
Y157500D01*
Y112000D02*
X439000D01*
X572400Y233000D02*
X585100D01*
X547000D02*
X559700D01*
X546000Y522000D02*
X558700D01*
X571400D02*
X584100D01*
X284000Y405000D02*
Y448500D01*
X713000Y404000D02*
Y429000D01*
X286000Y403000D02*
X439000D01*
X663000Y404000D02*
Y429000D01*
Y454000D01*
X713000D01*
Y454000D02*
Y454000D01*
X663000Y429000D02*
X713000D01*
Y429000D02*
Y429000D01*
Y454000D01*
X663000Y404000D02*
Y404000D01*
Y404000D02*
X713000D01*
X284000Y47000D02*
Y112000D01*
Y338000D02*
Y405000D01*
D29*
X375000Y228000D02*
X408250Y261250D01*
X375000Y134000D02*
Y228000D01*
X366000Y125000D02*
X375000Y134000D01*
X323000Y125000D02*
X366000D01*
X318000Y130000D02*
X323000Y125000D01*
X318000Y130000D02*
Y157500D01*
X732000Y247750D02*
Y255000D01*
X744000Y267000D01*
X546000Y570000D02*
Y603000D01*
X744000Y267000D02*
X870000D01*
X592000Y188000D02*
X697000D01*
X732000Y223000D01*
Y247750D01*
X546000Y522000D02*
Y570000D01*
X547000Y314000D02*
X547000Y314000D01*
X547000Y281000D02*
Y314000D01*
X608000Y717000D02*
Y750000D01*
X318000Y421000D02*
Y448500D01*
Y421000D02*
X323000Y416000D01*
X366000D01*
X375000Y425000D01*
Y519000D01*
X408250Y552250D01*
X448000D01*
X408250Y261250D02*
X448000D01*
D30*
X846000Y391000D02*
X857000D01*
X834000Y379000D02*
X846000Y391000D01*
X834000Y340500D02*
Y379000D01*
X833500Y340000D02*
X834000Y340500D01*
X851000Y379000D02*
X862000D01*
X851000Y379000D02*
X851000Y379000D01*
X851000Y326000D02*
Y379000D01*
X845000Y320000D02*
X851000Y326000D01*
X833500Y320000D02*
X845000D01*
X833500Y282500D02*
Y300000D01*
X732000Y255000D02*
Y268000D01*
X571000Y570400D02*
Y603000D01*
Y570400D02*
X571400Y570000D01*
X558667Y593000D02*
X558700Y592967D01*
Y570000D02*
Y592967D01*
X764000Y300000D02*
X814500D01*
X732000Y268000D02*
X764000Y300000D01*
X582500Y737500D02*
Y759500D01*
X583000Y760000D01*
X284000Y405000D02*
X286000Y403000D01*
X284000Y338000D02*
X287000Y335000D01*
X541000Y728000D02*
X563500D01*
X539800Y729200D02*
X541000Y728000D01*
X539800Y729200D02*
Y733500D01*
X563500Y728000D02*
Y743500D01*
X274500Y825000D02*
Y844500D01*
X275000Y845000D01*
X106000Y825000D02*
X129500D01*
X419500D02*
Y844500D01*
X419000Y845000D02*
X419500Y844500D01*
X646100Y717000D02*
Y739900D01*
X646000Y740000D02*
X646100Y739900D01*
X584100Y570000D02*
Y592900D01*
X584000Y593000D02*
X584100Y592900D01*
X559700Y281000D02*
Y303967D01*
X559667Y304000D02*
X559700Y303967D01*
X572400Y281000D02*
Y313600D01*
X585100Y281000D02*
Y303900D01*
X585000Y304000D02*
X585100Y303900D01*
X536500Y760000D02*
X547000D01*
X563500Y743500D01*
X567000Y681000D02*
Y698500D01*
X281000Y642000D02*
X374000D01*
X281000Y616000D02*
X374000D01*
X281000Y629000D02*
X374000D01*
X374000Y629000D01*
X633333Y717067D02*
X633400Y717000D01*
X676000Y53000D02*
Y176000D01*
X697000Y59000D02*
Y188000D01*
X572000Y314000D02*
X572400Y313600D01*
X633333Y717067D02*
Y749667D01*
X633000Y750000D02*
X633333Y749667D01*
X648000Y25000D02*
X676000Y53000D01*
X355000Y25000D02*
X648000D01*
X345000Y16000D02*
X654000D01*
X697000Y59000D01*
X163000Y845000D02*
X167000Y841000D01*
X308000Y845000D02*
X311000Y842000D01*
X453000Y845000D02*
X458000Y840000D01*
X147000Y792300D02*
X166700D01*
X167000Y770000D02*
Y841000D01*
X147000Y766900D02*
X163900D01*
X167000Y770000D01*
X292000Y766900D02*
X307900D01*
X311000Y770000D01*
X292000Y792300D02*
X310700D01*
X311000Y770000D02*
Y842000D01*
X437000Y766900D02*
X454900D01*
X458000Y770000D01*
X437000Y792300D02*
X457700D01*
X458000Y770000D02*
Y840000D01*
X148500Y825000D02*
Y844500D01*
X149000Y845000D01*
X293500Y825000D02*
Y844500D01*
X294000Y845000D01*
X438500Y825000D02*
Y844500D01*
X439000Y845000D01*
X833500Y282500D02*
X871000Y320000D01*
X862000Y379000D02*
X866000Y383000D01*
X857000Y391000D02*
X861000Y395000D01*
X840000Y695000D02*
Y750000D01*
X534500Y762000D02*
X536500Y760000D01*
X582000Y696500D02*
Y718000D01*
X621000Y717300D02*
Y740000D01*
X850000Y860000D02*
X861000Y849000D01*
Y395000D02*
Y849000D01*
X850000Y886000D02*
X866000Y870000D01*
Y383000D02*
Y870000D01*
X850000Y911000D02*
X871000Y890000D01*
Y320000D02*
Y890000D01*
X831000Y683000D02*
Y760000D01*
X814500Y300000D02*
Y340000D01*
D31*
X687500Y429000D02*
D03*
D32*
X457500Y45500D02*
D03*
X456500Y336500D02*
D03*
D33*
X545250Y1105200D02*
D03*
X494450D02*
D03*
X519850D02*
D03*
X418250Y1105400D02*
D03*
X367450D02*
D03*
X443650D02*
D03*
X469050D02*
D03*
X545250Y1130600D02*
D03*
X519850D02*
D03*
X469050D02*
D03*
X494450D02*
D03*
X392850Y1130800D02*
D03*
X367450D02*
D03*
X418250D02*
D03*
X443650D02*
D03*
Y1156200D02*
D03*
X418250D02*
D03*
X367450D02*
D03*
X392850D02*
D03*
X494450Y1156000D02*
D03*
X469050D02*
D03*
X519850D02*
D03*
X124350Y1071000D02*
D03*
Y1096000D02*
D03*
Y1121000D02*
D03*
Y1146000D02*
D03*
Y1171000D02*
D03*
X154350Y1071000D02*
D03*
Y1096000D02*
D03*
Y1171000D02*
D03*
Y1146000D02*
D03*
Y1121000D02*
D03*
X179350Y1071000D02*
D03*
Y1096000D02*
D03*
Y1121000D02*
D03*
Y1146000D02*
D03*
Y1171000D02*
D03*
X209350Y1071000D02*
D03*
Y1096000D02*
D03*
Y1171000D02*
D03*
Y1146000D02*
D03*
Y1121000D02*
D03*
X234350Y1071000D02*
D03*
Y1096000D02*
D03*
Y1121000D02*
D03*
Y1146000D02*
D03*
Y1171000D02*
D03*
X264350Y1071000D02*
D03*
Y1096000D02*
D03*
Y1171000D02*
D03*
Y1146000D02*
D03*
Y1121000D02*
D03*
X319350D02*
D03*
Y1146000D02*
D03*
Y1171000D02*
D03*
Y1096000D02*
D03*
Y1071000D02*
D03*
X289350Y1171000D02*
D03*
Y1146000D02*
D03*
Y1121000D02*
D03*
Y1096000D02*
D03*
Y1071000D02*
D03*
X761950D02*
D03*
Y1096000D02*
D03*
Y1121000D02*
D03*
Y1146000D02*
D03*
Y1171000D02*
D03*
X791950Y1071000D02*
D03*
Y1096000D02*
D03*
Y1171000D02*
D03*
Y1146000D02*
D03*
Y1121000D02*
D03*
X736950D02*
D03*
Y1146000D02*
D03*
Y1171000D02*
D03*
Y1096000D02*
D03*
Y1071000D02*
D03*
X706950Y1171000D02*
D03*
Y1146000D02*
D03*
Y1121000D02*
D03*
Y1096000D02*
D03*
Y1071000D02*
D03*
X681950Y1121000D02*
D03*
Y1146000D02*
D03*
Y1171000D02*
D03*
Y1096000D02*
D03*
Y1071000D02*
D03*
X651950Y1171000D02*
D03*
Y1146000D02*
D03*
Y1121000D02*
D03*
Y1096000D02*
D03*
Y1071000D02*
D03*
X626950Y1121000D02*
D03*
Y1146000D02*
D03*
Y1171000D02*
D03*
Y1096000D02*
D03*
Y1071000D02*
D03*
X596950Y1171000D02*
D03*
Y1146000D02*
D03*
Y1121000D02*
D03*
Y1096000D02*
D03*
Y1071000D02*
D03*
X545250Y1156000D02*
D03*
X392850Y1105400D02*
D03*
D34*
X846950Y1121000D02*
D03*
X69350D02*
D03*
D35*
X630000Y58000D02*
D03*
X732000Y247750D02*
D03*
D36*
X655400Y58000D02*
D03*
X757400Y247750D02*
D03*
X782800D02*
D03*
D37*
X407000Y46000D02*
D03*
X339000Y261250D02*
D03*
X301000D02*
D03*
X264000D02*
D03*
X339000Y233500D02*
D03*
X301500D02*
D03*
X264000D02*
D03*
Y289000D02*
D03*
X301500D02*
D03*
X339000D02*
D03*
X713000Y404000D02*
D03*
X339000Y580000D02*
D03*
X301500D02*
D03*
X382000Y46000D02*
D03*
X531000Y337000D02*
D03*
X532000Y46000D02*
D03*
X507000D02*
D03*
X482000D02*
D03*
X432000D02*
D03*
X381000Y337000D02*
D03*
X264000Y580000D02*
D03*
Y524500D02*
D03*
X301500D02*
D03*
X339000D02*
D03*
X264000Y552250D02*
D03*
X301000D02*
D03*
X339000D02*
D03*
X506000Y337000D02*
D03*
X481000D02*
D03*
X406000D02*
D03*
X663000Y454000D02*
D03*
Y429000D02*
D03*
Y404000D02*
D03*
X713000Y454000D02*
D03*
Y429000D02*
D03*
X431000Y337000D02*
D03*
D38*
X850000Y860000D02*
D03*
X857000Y391000D02*
D03*
X851000Y379000D02*
D03*
X850000Y886000D02*
D03*
Y911000D02*
D03*
X833500Y282500D02*
D03*
X571000Y603000D02*
D03*
X546000D02*
D03*
X558667Y593000D02*
D03*
X870000Y267000D02*
D03*
X583000Y760000D02*
D03*
X439000Y845000D02*
D03*
X453000D02*
D03*
X294000D02*
D03*
X308000D02*
D03*
X163000D02*
D03*
X149000D02*
D03*
X275000D02*
D03*
X419000D02*
D03*
X466000Y740000D02*
D03*
X584000Y593000D02*
D03*
X378000Y805000D02*
D03*
X511000D02*
D03*
X567000Y681000D02*
D03*
X512000Y691000D02*
D03*
X281000Y642000D02*
D03*
X374000D02*
D03*
Y616000D02*
D03*
X281000D02*
D03*
X281000Y629000D02*
D03*
X374000Y629000D02*
D03*
X676000Y176000D02*
D03*
X585000Y304000D02*
D03*
X559667D02*
D03*
X572000Y314000D02*
D03*
X547000D02*
D03*
X646000Y740000D02*
D03*
X608000Y750000D02*
D03*
X633000D02*
D03*
X620667Y740000D02*
D03*
X355000Y25000D02*
D03*
X345000Y16000D02*
D03*
X840000Y695000D02*
D03*
Y750000D02*
D03*
X831000Y760000D02*
D03*
Y683000D02*
D03*
M02*
