G04 Layer_Physical_Order=2*
G04 Layer_Color=16711680*
%FSLAX44Y44*%
%MOMM*%
G71*
G01*
G75*
%ADD10R,1.1400X1.2000*%
%ADD18R,1.2000X1.1400*%
%ADD27C,1.5000*%
%ADD29C,0.5000*%
%ADD30C,0.3000*%
%ADD33C,1.8000*%
%ADD34C,3.3000*%
%ADD35R,1.5000X1.5000*%
%ADD36C,1.5000*%
%ADD37C,2.0000*%
%ADD38C,1.0000*%
%ADD39O,1.4500X0.6000*%
%ADD40R,1.4500X0.6000*%
%ADD41R,1.8000X2.0000*%
%ADD42O,2.1000X0.4500*%
%ADD43R,2.6000X1.5000*%
%ADD44O,1.5000X0.3500*%
%ADD45R,1.5000X2.6000*%
%ADD46C,0.2000*%
%ADD47C,0.2540*%
%ADD48R,2.7000X8.0000*%
%ADD49R,17.5686X2.6915*%
%ADD50R,10.5000X8.2915*%
%ADD51R,10.5000X8.5000*%
G36*
X920000Y1199102D02*
Y0D01*
X0D01*
Y1200000D01*
X919102Y1200000D01*
X920000Y1199102D01*
D02*
G37*
%LPC*%
G36*
X265500Y565165D02*
Y553750D01*
X276915D01*
X276665Y555644D01*
X275356Y558806D01*
X273272Y561522D01*
X270556Y563606D01*
X267394Y564916D01*
X265500Y565165D01*
D02*
G37*
G36*
X262500D02*
X260606Y564916D01*
X257444Y563606D01*
X254728Y561522D01*
X252645Y558806D01*
X251335Y555644D01*
X251085Y553750D01*
X262500D01*
Y565165D01*
D02*
G37*
G36*
X299500D02*
X297607Y564916D01*
X294444Y563606D01*
X291728Y561522D01*
X289645Y558806D01*
X288335Y555644D01*
X288085Y553750D01*
X299500D01*
Y565165D01*
D02*
G37*
G36*
X337500D02*
X335606Y564916D01*
X332444Y563606D01*
X329728Y561522D01*
X327645Y558806D01*
X326335Y555644D01*
X326085Y553750D01*
X337500D01*
Y565165D01*
D02*
G37*
G36*
X302500D02*
Y553750D01*
X313915D01*
X313666Y555644D01*
X312356Y558806D01*
X310272Y561522D01*
X307556Y563606D01*
X304394Y564916D01*
X302500Y565165D01*
D02*
G37*
G36*
X299500Y550750D02*
X288085D01*
X288335Y548857D01*
X289645Y545694D01*
X291728Y542978D01*
X294444Y540895D01*
X297607Y539585D01*
X299500Y539335D01*
Y550750D01*
D02*
G37*
G36*
X276915D02*
X265500D01*
Y539335D01*
X267394Y539585D01*
X270556Y540895D01*
X273272Y542978D01*
X275356Y545694D01*
X276665Y548857D01*
X276915Y550750D01*
D02*
G37*
G36*
X313915D02*
X302500D01*
Y539335D01*
X304394Y539585D01*
X307556Y540895D01*
X310272Y542978D01*
X312356Y545694D01*
X313666Y548857D01*
X313915Y550750D01*
D02*
G37*
G36*
X351915D02*
X340500D01*
Y539335D01*
X342394Y539585D01*
X345556Y540895D01*
X348272Y542978D01*
X350355Y545694D01*
X351665Y548857D01*
X351915Y550750D01*
D02*
G37*
G36*
X337500D02*
X326085D01*
X326335Y548857D01*
X327645Y545694D01*
X329728Y542978D01*
X332444Y540895D01*
X335606Y539585D01*
X337500Y539335D01*
Y550750D01*
D02*
G37*
G36*
X351915Y578500D02*
X340500D01*
Y567085D01*
X342394Y567335D01*
X345556Y568645D01*
X348272Y570728D01*
X350355Y573444D01*
X351665Y576606D01*
X351915Y578500D01*
D02*
G37*
G36*
X337500D02*
X326085D01*
X326335Y576606D01*
X327645Y573444D01*
X329728Y570728D01*
X332444Y568645D01*
X335606Y567335D01*
X337500Y567085D01*
Y578500D01*
D02*
G37*
G36*
X594500Y577000D02*
X587300D01*
Y569500D01*
X594500D01*
Y577000D01*
D02*
G37*
G36*
X558667Y599808D02*
X556905Y599576D01*
X555263Y598896D01*
X553853Y597814D01*
X552771Y596404D01*
X552090Y594762D01*
X551859Y593000D01*
X552090Y591238D01*
X552771Y589596D01*
X553853Y588186D01*
X555263Y587104D01*
X555353Y587066D01*
Y584333D01*
X555605Y583065D01*
X556324Y581990D01*
X562157Y576157D01*
X563232Y575439D01*
X564500Y575186D01*
X568550D01*
Y570750D01*
X583450D01*
Y584449D01*
X584000Y584931D01*
X586030Y585198D01*
X586354Y585197D01*
X587300Y584565D01*
Y580000D01*
X594500D01*
Y587500D01*
X591299D01*
X590738Y588639D01*
X590988Y588966D01*
X591794Y590912D01*
X591872Y591500D01*
X576129D01*
X576206Y590912D01*
X577012Y588966D01*
X578121Y587520D01*
X577757Y586250D01*
X568550D01*
Y581814D01*
X565873D01*
X561981Y585706D01*
Y587066D01*
X562071Y587104D01*
X563481Y588186D01*
X564563Y589596D01*
X565243Y591238D01*
X565475Y593000D01*
X565243Y594762D01*
X564563Y596404D01*
X563481Y597814D01*
X562071Y598896D01*
X560429Y599576D01*
X558667Y599808D01*
D02*
G37*
G36*
X604700Y577000D02*
X597500D01*
Y569500D01*
X604700D01*
Y577000D01*
D02*
G37*
G36*
X262500Y578500D02*
X251085D01*
X251335Y576606D01*
X252645Y573444D01*
X254728Y570728D01*
X257444Y568645D01*
X260606Y567335D01*
X262500Y567085D01*
Y578500D01*
D02*
G37*
G36*
X340500Y565165D02*
Y553750D01*
X351915D01*
X351665Y555644D01*
X350355Y558806D01*
X348272Y561522D01*
X345556Y563606D01*
X342394Y564916D01*
X340500Y565165D01*
D02*
G37*
G36*
X276915Y578500D02*
X265500D01*
Y567085D01*
X267394Y567335D01*
X270556Y568645D01*
X273272Y570728D01*
X275356Y573444D01*
X276665Y576606D01*
X276915Y578500D01*
D02*
G37*
G36*
X314415D02*
X303000D01*
Y567085D01*
X304894Y567335D01*
X308056Y568645D01*
X310772Y570728D01*
X312856Y573444D01*
X314165Y576606D01*
X314415Y578500D01*
D02*
G37*
G36*
X300000D02*
X288585D01*
X288835Y576606D01*
X290145Y573444D01*
X292228Y570728D01*
X294944Y568645D01*
X298106Y567335D01*
X300000Y567085D01*
Y578500D01*
D02*
G37*
G36*
X664500Y466915D02*
Y455500D01*
X675915D01*
X675666Y457394D01*
X674356Y460556D01*
X672272Y463272D01*
X669556Y465356D01*
X666394Y466665D01*
X664500Y466915D01*
D02*
G37*
G36*
X661500D02*
X659606Y466665D01*
X656444Y465356D01*
X653728Y463272D01*
X651645Y460556D01*
X650335Y457394D01*
X650085Y455500D01*
X661500D01*
Y466915D01*
D02*
G37*
G36*
X262500Y523000D02*
X251085D01*
X251335Y521106D01*
X252645Y517944D01*
X254728Y515228D01*
X257444Y513145D01*
X260606Y511835D01*
X262500Y511585D01*
Y523000D01*
D02*
G37*
G36*
X300000D02*
X288585D01*
X288835Y521106D01*
X290145Y517944D01*
X292228Y515228D01*
X294944Y513145D01*
X298106Y511835D01*
X300000Y511585D01*
Y523000D01*
D02*
G37*
G36*
X276915D02*
X265500D01*
Y511585D01*
X267394Y511835D01*
X270556Y513145D01*
X273272Y515228D01*
X275356Y517944D01*
X276665Y521106D01*
X276915Y523000D01*
D02*
G37*
G36*
X661500Y402500D02*
X650085D01*
X650335Y400606D01*
X651645Y397444D01*
X653728Y394728D01*
X656444Y392645D01*
X659606Y391335D01*
X661500Y391086D01*
Y402500D01*
D02*
G37*
G36*
X529500Y349915D02*
X527607Y349665D01*
X524444Y348356D01*
X521728Y346272D01*
X519645Y343556D01*
X519135Y342326D01*
X517865D01*
X517356Y343556D01*
X515272Y346272D01*
X512556Y348356D01*
X509394Y349665D01*
X507500Y349915D01*
Y337000D01*
Y324085D01*
X509394Y324335D01*
X512556Y325645D01*
X515272Y327728D01*
X517356Y330444D01*
X517865Y331674D01*
X519135D01*
X519645Y330444D01*
X521728Y327728D01*
X524444Y325645D01*
X527607Y324335D01*
X529500Y324085D01*
Y337000D01*
Y349915D01*
D02*
G37*
G36*
X675915Y402500D02*
X664500D01*
Y391086D01*
X666394Y391335D01*
X669556Y392645D01*
X672272Y394728D01*
X674356Y397444D01*
X675666Y400606D01*
X675915Y402500D01*
D02*
G37*
G36*
Y452500D02*
X650085D01*
X650335Y450606D01*
X651645Y447444D01*
X653728Y444728D01*
X656444Y442645D01*
X657674Y442135D01*
Y440865D01*
X656444Y440356D01*
X653728Y438272D01*
X651645Y435556D01*
X650335Y432394D01*
X650085Y430500D01*
X675915D01*
X675666Y432394D01*
X674356Y435556D01*
X672272Y438272D01*
X669556Y440356D01*
X668326Y440865D01*
Y442135D01*
X669556Y442645D01*
X672272Y444728D01*
X674356Y447444D01*
X675666Y450606D01*
X675915Y452500D01*
D02*
G37*
G36*
Y427500D02*
X650085D01*
X650335Y425606D01*
X651645Y422444D01*
X653728Y419728D01*
X656444Y417645D01*
X657674Y417135D01*
Y415865D01*
X656444Y415356D01*
X653728Y413272D01*
X651645Y410556D01*
X650335Y407394D01*
X650085Y405500D01*
X675915D01*
X675666Y407394D01*
X674356Y410556D01*
X672272Y413272D01*
X669556Y415356D01*
X668326Y415865D01*
Y417135D01*
X669556Y417645D01*
X672272Y419728D01*
X674356Y422444D01*
X675666Y425606D01*
X675915Y427500D01*
D02*
G37*
G36*
X303000Y537415D02*
Y526000D01*
X314415D01*
X314165Y527894D01*
X312856Y531056D01*
X310772Y533772D01*
X308056Y535856D01*
X304894Y537165D01*
X303000Y537415D01*
D02*
G37*
G36*
X300000D02*
X298106Y537165D01*
X294944Y535856D01*
X292228Y533772D01*
X290145Y531056D01*
X288835Y527894D01*
X288585Y526000D01*
X300000D01*
Y537415D01*
D02*
G37*
G36*
X337500D02*
X335606Y537165D01*
X332444Y535856D01*
X329728Y533772D01*
X327645Y531056D01*
X326335Y527894D01*
X326085Y526000D01*
X337500D01*
Y537415D01*
D02*
G37*
G36*
X262500Y550750D02*
X251085D01*
X251335Y548857D01*
X252645Y545694D01*
X254728Y542978D01*
X257444Y540895D01*
X260606Y539585D01*
X262500Y539335D01*
Y550750D01*
D02*
G37*
G36*
X340500Y537415D02*
Y526000D01*
X351915D01*
X351665Y527894D01*
X350355Y531056D01*
X348272Y533772D01*
X345556Y535856D01*
X342394Y537165D01*
X340500Y537415D01*
D02*
G37*
G36*
X337500Y523000D02*
X326085D01*
X326335Y521106D01*
X327645Y517944D01*
X329728Y515228D01*
X332444Y513145D01*
X335606Y511835D01*
X337500Y511585D01*
Y523000D01*
D02*
G37*
G36*
X314415D02*
X303000D01*
Y511585D01*
X304894Y511835D01*
X308056Y513145D01*
X310772Y515228D01*
X312856Y517944D01*
X314165Y521106D01*
X314415Y523000D01*
D02*
G37*
G36*
X351915D02*
X340500D01*
Y511585D01*
X342394Y511835D01*
X345556Y513145D01*
X348272Y515228D01*
X350355Y517944D01*
X351665Y521106D01*
X351915Y523000D01*
D02*
G37*
G36*
X265500Y537415D02*
Y526000D01*
X276915D01*
X276665Y527894D01*
X275356Y531056D01*
X273272Y533772D01*
X270556Y535856D01*
X267394Y537165D01*
X265500Y537415D01*
D02*
G37*
G36*
X262500D02*
X260606Y537165D01*
X257444Y535856D01*
X254728Y533772D01*
X252645Y531056D01*
X251335Y527894D01*
X251085Y526000D01*
X262500D01*
Y537415D01*
D02*
G37*
G36*
X444700Y663500D02*
X437500D01*
Y656000D01*
X444700D01*
Y663500D01*
D02*
G37*
G36*
X434500D02*
X427300D01*
Y656000D01*
X434500D01*
Y663500D01*
D02*
G37*
G36*
X464500D02*
X457300D01*
Y656000D01*
X464500D01*
Y663500D01*
D02*
G37*
G36*
X473450Y720250D02*
X458550D01*
Y704750D01*
X473450D01*
Y709186D01*
X504128D01*
X508686Y704628D01*
Y696934D01*
X508596Y696896D01*
X507186Y695814D01*
X506104Y694404D01*
X505424Y692762D01*
X505192Y691000D01*
X505424Y689238D01*
X506104Y687596D01*
X507186Y686186D01*
X508596Y685104D01*
X510238Y684424D01*
X512000Y684192D01*
X513762Y684424D01*
X515404Y685104D01*
X516814Y686186D01*
X517896Y687596D01*
X518576Y689238D01*
X518808Y691000D01*
X518576Y692762D01*
X517896Y694404D01*
X516814Y695814D01*
X515404Y696896D01*
X515314Y696934D01*
Y706000D01*
X515062Y707268D01*
X514343Y708343D01*
X507843Y714843D01*
X506768Y715562D01*
X505500Y715814D01*
X473450D01*
Y720250D01*
D02*
G37*
G36*
X474700Y663500D02*
X467500D01*
Y656000D01*
X474700D01*
Y663500D01*
D02*
G37*
G36*
X464500Y653000D02*
X457300D01*
Y645500D01*
X464500D01*
Y653000D01*
D02*
G37*
G36*
X444700D02*
X437500D01*
Y645500D01*
X444700D01*
Y653000D01*
D02*
G37*
G36*
X474700D02*
X467500D01*
Y645500D01*
X474700D01*
Y653000D01*
D02*
G37*
G36*
X414700Y663500D02*
X407500D01*
Y656000D01*
X414700D01*
Y663500D01*
D02*
G37*
G36*
X404500D02*
X397300D01*
Y656000D01*
X404500D01*
Y663500D01*
D02*
G37*
G36*
X562000Y748700D02*
X554500D01*
Y741500D01*
X562000D01*
Y748700D01*
D02*
G37*
G36*
X572500Y738500D02*
X565000D01*
Y731300D01*
X572500D01*
Y738500D01*
D02*
G37*
G36*
Y748700D02*
X565000D01*
Y741500D01*
X572500D01*
Y748700D01*
D02*
G37*
G36*
X647500Y747872D02*
Y741500D01*
X653872D01*
X653794Y742088D01*
X652988Y744035D01*
X651706Y745706D01*
X650035Y746988D01*
X648089Y747794D01*
X647500Y747872D01*
D02*
G37*
G36*
X644500D02*
X643912Y747794D01*
X641966Y746988D01*
X640294Y745706D01*
X639012Y744035D01*
X638206Y742088D01*
X638129Y741500D01*
X644500D01*
Y747872D01*
D02*
G37*
G36*
X651500Y724000D02*
X644300D01*
Y716500D01*
X651500D01*
Y724000D01*
D02*
G37*
G36*
X378000Y811808D02*
X376238Y811576D01*
X374596Y810896D01*
X373186Y809814D01*
X372104Y808404D01*
X371424Y806762D01*
X371192Y805000D01*
X371424Y803238D01*
X372104Y801596D01*
X373186Y800186D01*
X374596Y799104D01*
X374686Y799067D01*
Y723000D01*
X374939Y721732D01*
X375657Y720657D01*
X386157Y710157D01*
X387232Y709439D01*
X388500Y709186D01*
X398550D01*
Y704750D01*
X413450D01*
Y720250D01*
X398550D01*
Y715814D01*
X389873D01*
X381314Y724373D01*
Y799067D01*
X381404Y799104D01*
X382814Y800186D01*
X383896Y801596D01*
X384576Y803238D01*
X384808Y805000D01*
X384576Y806762D01*
X383896Y808404D01*
X382814Y809814D01*
X381404Y810896D01*
X379762Y811576D01*
X378000Y811808D01*
D02*
G37*
G36*
X661700Y724000D02*
X654500D01*
Y716500D01*
X661700D01*
Y724000D01*
D02*
G37*
G36*
X562000Y738500D02*
X554500D01*
Y731300D01*
X562000D01*
Y738500D01*
D02*
G37*
G36*
X620667Y746808D02*
X618905Y746576D01*
X617263Y745896D01*
X615853Y744814D01*
X614771Y743404D01*
X614090Y741762D01*
X613858Y740000D01*
X614090Y738238D01*
X614771Y736596D01*
X615853Y735186D01*
X617263Y734104D01*
X617686Y733929D01*
Y731000D01*
X617939Y729732D01*
X618657Y728657D01*
X624157Y723157D01*
X625232Y722439D01*
X626500Y722186D01*
X626550D01*
Y717750D01*
X641450D01*
Y731868D01*
X642720Y732700D01*
X643912Y732206D01*
X644300Y732155D01*
Y727000D01*
X661700D01*
Y734500D01*
X653299D01*
X652738Y735639D01*
X652988Y735966D01*
X653794Y737912D01*
X653872Y738500D01*
X638129D01*
X638206Y737912D01*
X639012Y735966D01*
X640121Y734520D01*
X639889Y733710D01*
X639569Y733250D01*
X626550D01*
Y731796D01*
X625377Y731310D01*
X624314Y732373D01*
Y734290D01*
X625481Y735186D01*
X626563Y736596D01*
X627243Y738238D01*
X627475Y740000D01*
X627243Y741762D01*
X626563Y743404D01*
X625481Y744814D01*
X624071Y745896D01*
X622429Y746576D01*
X620667Y746808D01*
D02*
G37*
G36*
X340500Y592915D02*
Y581500D01*
X351915D01*
X351665Y583394D01*
X350355Y586556D01*
X348272Y589272D01*
X345556Y591356D01*
X342394Y592665D01*
X340500Y592915D01*
D02*
G37*
G36*
X337500D02*
X335606Y592665D01*
X332444Y591356D01*
X329728Y589272D01*
X327645Y586556D01*
X326335Y583394D01*
X326085Y581500D01*
X337500D01*
Y592915D01*
D02*
G37*
G36*
X500000Y591500D02*
X492500D01*
Y584300D01*
X500000D01*
Y591500D01*
D02*
G37*
G36*
X582500Y600872D02*
X581912Y600794D01*
X579966Y599988D01*
X578294Y598706D01*
X577012Y597035D01*
X576206Y595089D01*
X576129Y594500D01*
X582500D01*
Y600872D01*
D02*
G37*
G36*
X510500Y591500D02*
X503000D01*
Y584300D01*
X510500D01*
Y591500D01*
D02*
G37*
G36*
X262500Y592915D02*
X260606Y592665D01*
X257444Y591356D01*
X254728Y589272D01*
X252645Y586556D01*
X251335Y583394D01*
X251085Y581500D01*
X262500D01*
Y592915D01*
D02*
G37*
G36*
X604700Y587500D02*
X597500D01*
Y580000D01*
X604700D01*
Y587500D01*
D02*
G37*
G36*
X265500Y592915D02*
Y581500D01*
X276915D01*
X276665Y583394D01*
X275356Y586556D01*
X273272Y589272D01*
X270556Y591356D01*
X267394Y592665D01*
X265500Y592915D01*
D02*
G37*
G36*
X303000D02*
Y581500D01*
X314415D01*
X314165Y583394D01*
X312856Y586556D01*
X310772Y589272D01*
X308056Y591356D01*
X304894Y592665D01*
X303000Y592915D01*
D02*
G37*
G36*
X300000D02*
X298106Y592665D01*
X294944Y591356D01*
X292228Y589272D01*
X290145Y586556D01*
X288835Y583394D01*
X288585Y581500D01*
X300000D01*
Y592915D01*
D02*
G37*
G36*
X473450Y701250D02*
X458550D01*
Y685750D01*
X462686D01*
Y681250D01*
X458550D01*
Y665750D01*
X473450D01*
Y669201D01*
X474623Y669687D01*
X476686Y667624D01*
Y642373D01*
X453628Y619314D01*
X379934D01*
X379896Y619404D01*
X378814Y620814D01*
X377545Y621788D01*
X377469Y622500D01*
X377545Y623212D01*
X378814Y624186D01*
X379896Y625596D01*
X379934Y625686D01*
X435000D01*
X436268Y625939D01*
X437343Y626657D01*
X452343Y641657D01*
X453061Y642732D01*
X453314Y644000D01*
Y668997D01*
X453061Y670265D01*
X452343Y671340D01*
X448340Y675343D01*
X447265Y676062D01*
X445997Y676314D01*
X443450D01*
Y681250D01*
X439314D01*
Y685750D01*
X443450D01*
Y701250D01*
X428550D01*
Y685750D01*
X432686D01*
Y681250D01*
X428550D01*
Y665750D01*
X443450D01*
Y669454D01*
X444720Y669590D01*
X446686Y667624D01*
Y645372D01*
X433628Y632314D01*
X379934D01*
X379896Y632404D01*
X378814Y633814D01*
X377545Y634788D01*
X377469Y635500D01*
X377545Y636212D01*
X378814Y637186D01*
X379896Y638596D01*
X379934Y638686D01*
X417326D01*
X418594Y638939D01*
X419669Y639657D01*
X423402Y643390D01*
X424120Y644465D01*
X424373Y645733D01*
Y668941D01*
X424120Y670209D01*
X423402Y671284D01*
X418843Y675843D01*
X417768Y676562D01*
X416500Y676814D01*
X413450D01*
Y681250D01*
X409314D01*
Y685750D01*
X413450D01*
Y701250D01*
X398550D01*
Y685750D01*
X402686D01*
Y681250D01*
X398550D01*
Y665750D01*
X413450D01*
Y670186D01*
X415127D01*
X417745Y667569D01*
Y647106D01*
X415953Y645314D01*
X415893D01*
X414700Y645500D01*
X414700Y646584D01*
Y653000D01*
X397300D01*
X397300Y645500D01*
X396107Y645314D01*
X379934D01*
X379896Y645404D01*
X378814Y646814D01*
X377404Y647896D01*
X375762Y648576D01*
X374000Y648808D01*
X372238Y648576D01*
X370596Y647896D01*
X369186Y646814D01*
X368104Y645404D01*
X367424Y643762D01*
X367192Y642000D01*
X367424Y640238D01*
X368104Y638596D01*
X369186Y637186D01*
X370455Y636212D01*
X370531Y635500D01*
X370455Y634788D01*
X369186Y633814D01*
X368104Y632404D01*
X367424Y630762D01*
X367192Y629000D01*
X367424Y627238D01*
X368104Y625596D01*
X369186Y624186D01*
X370455Y623212D01*
X370531Y622500D01*
X370455Y621788D01*
X369186Y620814D01*
X368104Y619404D01*
X367424Y617762D01*
X367192Y616000D01*
X367424Y614238D01*
X368104Y612596D01*
X369186Y611186D01*
X370596Y610104D01*
X372238Y609424D01*
X374000Y609192D01*
X375762Y609424D01*
X377404Y610104D01*
X378814Y611186D01*
X379896Y612596D01*
X379934Y612686D01*
X455000D01*
X456268Y612939D01*
X457343Y613657D01*
X482343Y638657D01*
X483061Y639732D01*
X483314Y641000D01*
Y668997D01*
X483061Y670265D01*
X482343Y671340D01*
X476840Y676843D01*
X475765Y677562D01*
X474497Y677814D01*
X473450D01*
Y681250D01*
X469314D01*
Y685750D01*
X473450D01*
Y701250D01*
D02*
G37*
G36*
X599500Y621500D02*
X592000D01*
Y614300D01*
X599500D01*
Y621500D01*
D02*
G37*
G36*
X589000Y631700D02*
X581500D01*
Y624500D01*
X589000D01*
Y631700D01*
D02*
G37*
G36*
X434500Y653000D02*
X427300D01*
Y645500D01*
X434500D01*
Y653000D01*
D02*
G37*
G36*
X599500Y631700D02*
X592000D01*
Y624500D01*
X599500D01*
Y631700D01*
D02*
G37*
G36*
X500000Y601700D02*
X492500D01*
Y594500D01*
X500000D01*
Y601700D01*
D02*
G37*
G36*
X585500Y600872D02*
Y594500D01*
X591872D01*
X591794Y595089D01*
X590988Y597035D01*
X589706Y598706D01*
X588035Y599988D01*
X586088Y600794D01*
X585500Y600872D01*
D02*
G37*
G36*
X510500Y601700D02*
X503000D01*
Y594500D01*
X510500D01*
Y601700D01*
D02*
G37*
G36*
X589000Y621500D02*
X581500D01*
Y614300D01*
X589000D01*
Y621500D01*
D02*
G37*
G36*
X579250Y630450D02*
X563750D01*
Y615550D01*
X567686D01*
Y608934D01*
X567596Y608896D01*
X566186Y607814D01*
X565104Y606404D01*
X564424Y604762D01*
X564192Y603000D01*
X564424Y601238D01*
X565104Y599596D01*
X566186Y598186D01*
X567596Y597104D01*
X569238Y596424D01*
X571000Y596192D01*
X572762Y596424D01*
X574404Y597104D01*
X575814Y598186D01*
X576896Y599596D01*
X577576Y601238D01*
X577808Y603000D01*
X577576Y604762D01*
X576896Y606404D01*
X575814Y607814D01*
X574404Y608896D01*
X574314Y608934D01*
Y615550D01*
X579250D01*
Y630450D01*
D02*
G37*
G36*
X265500Y246415D02*
Y235000D01*
X276915D01*
X276665Y236894D01*
X275356Y240056D01*
X273272Y242772D01*
X270556Y244856D01*
X267394Y246166D01*
X265500Y246415D01*
D02*
G37*
G36*
X262500D02*
X260606Y246166D01*
X257444Y244856D01*
X254728Y242772D01*
X252645Y240056D01*
X251335Y236894D01*
X251085Y235000D01*
X262500D01*
Y246415D01*
D02*
G37*
G36*
X300000D02*
X298106Y246166D01*
X294944Y244856D01*
X292228Y242772D01*
X290145Y240056D01*
X288835Y236894D01*
X288585Y235000D01*
X300000D01*
Y246415D01*
D02*
G37*
G36*
X337500D02*
X335606Y246166D01*
X332444Y244856D01*
X329728Y242772D01*
X327645Y240056D01*
X326335Y236894D01*
X326085Y235000D01*
X337500D01*
Y246415D01*
D02*
G37*
G36*
X303000D02*
Y235000D01*
X314415D01*
X314165Y236894D01*
X312856Y240056D01*
X310772Y242772D01*
X308056Y244856D01*
X304894Y246166D01*
X303000Y246415D01*
D02*
G37*
G36*
X300000Y232000D02*
X288585D01*
X288835Y230106D01*
X290145Y226944D01*
X292228Y224228D01*
X294944Y222145D01*
X298106Y220835D01*
X300000Y220585D01*
Y232000D01*
D02*
G37*
G36*
X276915D02*
X265500D01*
Y220585D01*
X267394Y220835D01*
X270556Y222145D01*
X273272Y224228D01*
X275356Y226944D01*
X276665Y230106D01*
X276915Y232000D01*
D02*
G37*
G36*
X314415D02*
X303000D01*
Y220585D01*
X304894Y220835D01*
X308056Y222145D01*
X310772Y224228D01*
X312856Y226944D01*
X314165Y230106D01*
X314415Y232000D01*
D02*
G37*
G36*
X351915D02*
X340500D01*
Y220585D01*
X342394Y220835D01*
X345556Y222145D01*
X348272Y224228D01*
X350355Y226944D01*
X351665Y230106D01*
X351915Y232000D01*
D02*
G37*
G36*
X337500D02*
X326085D01*
X326335Y230106D01*
X327645Y226944D01*
X329728Y224228D01*
X332444Y222145D01*
X335606Y220835D01*
X337500Y220585D01*
Y232000D01*
D02*
G37*
G36*
X351915Y259750D02*
X340500D01*
Y248335D01*
X342394Y248585D01*
X345556Y249895D01*
X348272Y251978D01*
X350355Y254694D01*
X351665Y257857D01*
X351915Y259750D01*
D02*
G37*
G36*
X337500D02*
X326085D01*
X326335Y257857D01*
X327645Y254694D01*
X329728Y251978D01*
X332444Y249895D01*
X335606Y248585D01*
X337500Y248335D01*
Y259750D01*
D02*
G37*
G36*
X262500Y274165D02*
X260606Y273916D01*
X257444Y272606D01*
X254728Y270522D01*
X252645Y267806D01*
X251335Y264644D01*
X251085Y262750D01*
X262500D01*
Y274165D01*
D02*
G37*
G36*
X299500D02*
X297607Y273916D01*
X294444Y272606D01*
X291728Y270522D01*
X289645Y267806D01*
X288335Y264644D01*
X288085Y262750D01*
X299500D01*
Y274165D01*
D02*
G37*
G36*
X265500D02*
Y262750D01*
X276915D01*
X276665Y264644D01*
X275356Y267806D01*
X273272Y270522D01*
X270556Y272606D01*
X267394Y273916D01*
X265500Y274165D01*
D02*
G37*
G36*
X262500Y259750D02*
X251085D01*
X251335Y257857D01*
X252645Y254694D01*
X254728Y251978D01*
X257444Y249895D01*
X260606Y248585D01*
X262500Y248335D01*
Y259750D01*
D02*
G37*
G36*
X340500Y246415D02*
Y235000D01*
X351915D01*
X351665Y236894D01*
X350355Y240056D01*
X348272Y242772D01*
X345556Y244856D01*
X342394Y246166D01*
X340500Y246415D01*
D02*
G37*
G36*
X276915Y259750D02*
X265500D01*
Y248335D01*
X267394Y248585D01*
X270556Y249895D01*
X273272Y251978D01*
X275356Y254694D01*
X276665Y257857D01*
X276915Y259750D01*
D02*
G37*
G36*
X313915D02*
X302500D01*
Y248335D01*
X304394Y248585D01*
X307556Y249895D01*
X310272Y251978D01*
X312356Y254694D01*
X313666Y257857D01*
X313915Y259750D01*
D02*
G37*
G36*
X299500D02*
X288085D01*
X288335Y257857D01*
X289645Y254694D01*
X291728Y251978D01*
X294444Y249895D01*
X297607Y248585D01*
X299500Y248335D01*
Y259750D01*
D02*
G37*
G36*
X433500Y58915D02*
Y47500D01*
X444915D01*
X444665Y49394D01*
X443356Y52556D01*
X441272Y55272D01*
X438556Y57356D01*
X435394Y58665D01*
X433500Y58915D01*
D02*
G37*
G36*
X380500D02*
X378606Y58665D01*
X375444Y57356D01*
X372728Y55272D01*
X370645Y52556D01*
X369335Y49394D01*
X369085Y47500D01*
X380500D01*
Y58915D01*
D02*
G37*
G36*
X480500D02*
X478606Y58665D01*
X475444Y57356D01*
X472728Y55272D01*
X470645Y52556D01*
X469335Y49394D01*
X469085Y47500D01*
X480500D01*
Y58915D01*
D02*
G37*
G36*
X430500D02*
X428606Y58665D01*
X425444Y57356D01*
X422728Y55272D01*
X420645Y52556D01*
X420135Y51326D01*
X418865D01*
X418356Y52556D01*
X416272Y55272D01*
X413556Y57356D01*
X410394Y58665D01*
X408500Y58915D01*
Y46000D01*
Y33085D01*
X410394Y33335D01*
X413556Y34645D01*
X416272Y36728D01*
X418356Y39444D01*
X418865Y40674D01*
X420135D01*
X420645Y39444D01*
X422728Y36728D01*
X425444Y34645D01*
X428606Y33335D01*
X430500Y33085D01*
Y46000D01*
Y58915D01*
D02*
G37*
G36*
X405500D02*
X403606Y58665D01*
X400444Y57356D01*
X397728Y55272D01*
X395645Y52556D01*
X395135Y51326D01*
X393865D01*
X393356Y52556D01*
X391272Y55272D01*
X388556Y57356D01*
X385394Y58665D01*
X383500Y58915D01*
Y46000D01*
Y33085D01*
X385394Y33335D01*
X388556Y34645D01*
X391272Y36728D01*
X393356Y39444D01*
X393865Y40674D01*
X395135D01*
X395645Y39444D01*
X397728Y36728D01*
X400444Y34645D01*
X403606Y33335D01*
X405500Y33085D01*
Y46000D01*
Y58915D01*
D02*
G37*
G36*
X380500Y44500D02*
X369085D01*
X369335Y42607D01*
X370645Y39444D01*
X372728Y36728D01*
X375444Y34645D01*
X378606Y33335D01*
X380500Y33085D01*
Y44500D01*
D02*
G37*
G36*
X268450Y96250D02*
X253550D01*
Y80750D01*
X268450D01*
Y85186D01*
X290127D01*
X348461Y26853D01*
X348424Y26762D01*
X348192Y25000D01*
X348424Y23238D01*
X347439Y22296D01*
X346762Y22576D01*
X345000Y22808D01*
X343238Y22576D01*
X341596Y21896D01*
X340186Y20814D01*
X339104Y19404D01*
X339066Y19314D01*
X275750D01*
Y25250D01*
X246250D01*
Y6750D01*
X275750D01*
Y12686D01*
X339066D01*
X339104Y12596D01*
X340186Y11186D01*
X341596Y10104D01*
X343238Y9424D01*
X345000Y9192D01*
X346762Y9424D01*
X348404Y10104D01*
X349814Y11186D01*
X350896Y12596D01*
X351576Y14238D01*
X351808Y16000D01*
X351576Y17762D01*
X352561Y18704D01*
X353238Y18424D01*
X355000Y18192D01*
X356762Y18424D01*
X358404Y19104D01*
X359814Y20186D01*
X360896Y21596D01*
X361576Y23238D01*
X361808Y25000D01*
X361576Y26762D01*
X360896Y28404D01*
X359814Y29814D01*
X358404Y30896D01*
X356762Y31576D01*
X355000Y31808D01*
X353238Y31576D01*
X353148Y31539D01*
X293843Y90843D01*
X292768Y91562D01*
X291500Y91814D01*
X268450D01*
Y96250D01*
D02*
G37*
G36*
X444915Y44500D02*
X433500D01*
Y33085D01*
X435394Y33335D01*
X438556Y34645D01*
X441272Y36728D01*
X443356Y39444D01*
X444665Y42607D01*
X444915Y44500D01*
D02*
G37*
G36*
X268450Y77250D02*
X253550D01*
Y61750D01*
X257687D01*
Y55250D01*
X246250D01*
Y36750D01*
X275750D01*
Y55250D01*
X264314D01*
Y61750D01*
X268450D01*
Y77250D01*
D02*
G37*
G36*
X480500Y44500D02*
X469085D01*
X469335Y42607D01*
X470645Y39444D01*
X472728Y36728D01*
X475444Y34645D01*
X478606Y33335D01*
X480500Y33085D01*
Y44500D01*
D02*
G37*
G36*
X609500Y132250D02*
X602300D01*
Y124750D01*
X609500D01*
Y132250D01*
D02*
G37*
G36*
X639700Y121750D02*
X632500D01*
Y114250D01*
X639700D01*
Y121750D01*
D02*
G37*
G36*
X619700Y132250D02*
X612500D01*
Y124750D01*
X619700D01*
Y132250D01*
D02*
G37*
G36*
X262500Y232000D02*
X251085D01*
X251335Y230106D01*
X252645Y226944D01*
X254728Y224228D01*
X257444Y222145D01*
X260606Y220835D01*
X262500Y220585D01*
Y232000D01*
D02*
G37*
G36*
X629500Y132250D02*
X622300D01*
Y124750D01*
X629500D01*
Y132250D01*
D02*
G37*
G36*
X530500Y58915D02*
X528606Y58665D01*
X525444Y57356D01*
X522728Y55272D01*
X520645Y52556D01*
X520135Y51326D01*
X518865D01*
X518356Y52556D01*
X516272Y55272D01*
X513556Y57356D01*
X510394Y58665D01*
X508500Y58915D01*
Y46000D01*
Y33085D01*
X510394Y33335D01*
X513556Y34645D01*
X516272Y36728D01*
X518356Y39444D01*
X518865Y40674D01*
X520135D01*
X520645Y39444D01*
X522728Y36728D01*
X525444Y34645D01*
X528606Y33335D01*
X530500Y33085D01*
Y46000D01*
Y58915D01*
D02*
G37*
G36*
X505500D02*
X503606Y58665D01*
X500444Y57356D01*
X497728Y55272D01*
X495645Y52556D01*
X495135Y51326D01*
X493865D01*
X493356Y52556D01*
X491272Y55272D01*
X488556Y57356D01*
X485394Y58665D01*
X483500Y58915D01*
Y46000D01*
Y33085D01*
X485394Y33335D01*
X488556Y34645D01*
X491272Y36728D01*
X493356Y39444D01*
X493865Y40674D01*
X495135D01*
X495645Y39444D01*
X497728Y36728D01*
X500444Y34645D01*
X503606Y33335D01*
X505500Y33085D01*
Y46000D01*
Y58915D01*
D02*
G37*
G36*
X609500Y121750D02*
X602300D01*
Y114250D01*
X609500D01*
Y121750D01*
D02*
G37*
G36*
X629500Y121750D02*
X622300D01*
Y114250D01*
X629500D01*
Y121750D01*
D02*
G37*
G36*
X619700Y121750D02*
X612500D01*
Y114250D01*
X619700D01*
Y121750D01*
D02*
G37*
G36*
X580250Y341450D02*
X564750D01*
Y326550D01*
X569186D01*
Y320141D01*
X568596Y319896D01*
X567186Y318814D01*
X566104Y317404D01*
X565424Y315762D01*
X565192Y314000D01*
X565424Y312238D01*
X566104Y310596D01*
X567186Y309186D01*
X568596Y308104D01*
X570238Y307424D01*
X572000Y307192D01*
X573762Y307424D01*
X575404Y308104D01*
X576814Y309186D01*
X577896Y310596D01*
X578576Y312238D01*
X578808Y314000D01*
X578576Y315762D01*
X577896Y317404D01*
X576814Y318814D01*
X575814Y319582D01*
Y326550D01*
X580250D01*
Y341450D01*
D02*
G37*
G36*
X511500Y312700D02*
X504000D01*
Y305500D01*
X511500D01*
Y312700D01*
D02*
G37*
G36*
X379500Y335500D02*
X368085D01*
X368335Y333606D01*
X369645Y330444D01*
X371728Y327728D01*
X374444Y325645D01*
X377607Y324335D01*
X379500Y324085D01*
Y335500D01*
D02*
G37*
G36*
X479500D02*
X468085D01*
X468335Y333606D01*
X469645Y330444D01*
X471728Y327728D01*
X474444Y325645D01*
X477607Y324335D01*
X479500Y324085D01*
Y335500D01*
D02*
G37*
G36*
X443915D02*
X432500D01*
Y324085D01*
X434394Y324335D01*
X437556Y325645D01*
X440272Y327728D01*
X442356Y330444D01*
X443666Y333606D01*
X443915Y335500D01*
D02*
G37*
G36*
X511500Y302500D02*
X504000D01*
Y295300D01*
X511500D01*
Y302500D01*
D02*
G37*
G36*
X501000D02*
X493500D01*
Y295300D01*
X501000D01*
Y302500D01*
D02*
G37*
G36*
X583500Y311872D02*
X582912Y311794D01*
X580966Y310988D01*
X579294Y309706D01*
X578012Y308035D01*
X577206Y306089D01*
X577129Y305500D01*
X583500D01*
Y311872D01*
D02*
G37*
G36*
X501000Y312700D02*
X493500D01*
Y305500D01*
X501000D01*
Y312700D01*
D02*
G37*
G36*
X586500Y311872D02*
Y305500D01*
X592872D01*
X592794Y306089D01*
X591988Y308035D01*
X590706Y309706D01*
X589035Y310988D01*
X587089Y311794D01*
X586500Y311872D01*
D02*
G37*
G36*
X479500Y349915D02*
X477607Y349665D01*
X474444Y348356D01*
X471728Y346272D01*
X469645Y343556D01*
X468335Y340394D01*
X468085Y338500D01*
X479500D01*
Y349915D01*
D02*
G37*
G36*
X432500D02*
Y338500D01*
X443915D01*
X443666Y340394D01*
X442356Y343556D01*
X440272Y346272D01*
X437556Y348356D01*
X434394Y349665D01*
X432500Y349915D01*
D02*
G37*
G36*
X404500D02*
X402607Y349665D01*
X399444Y348356D01*
X396728Y346272D01*
X394645Y343556D01*
X394135Y342326D01*
X392865D01*
X392356Y343556D01*
X390272Y346272D01*
X387556Y348356D01*
X384394Y349665D01*
X382500Y349915D01*
Y337000D01*
Y324085D01*
X384394Y324335D01*
X387556Y325645D01*
X390272Y327728D01*
X392356Y330444D01*
X392865Y331674D01*
X394135D01*
X394645Y330444D01*
X396728Y327728D01*
X399444Y325645D01*
X402607Y324335D01*
X404500Y324085D01*
Y337000D01*
Y349915D01*
D02*
G37*
G36*
X504500D02*
X502607Y349665D01*
X499444Y348356D01*
X496728Y346272D01*
X494645Y343556D01*
X494135Y342326D01*
X492865D01*
X492356Y343556D01*
X490272Y346272D01*
X487556Y348356D01*
X484394Y349665D01*
X482500Y349915D01*
Y337000D01*
Y324085D01*
X484394Y324335D01*
X487556Y325645D01*
X490272Y327728D01*
X492356Y330444D01*
X492865Y331674D01*
X494135D01*
X494645Y330444D01*
X496728Y327728D01*
X499444Y325645D01*
X502607Y324335D01*
X504500Y324085D01*
Y337000D01*
Y349915D01*
D02*
G37*
G36*
X429500D02*
X427607Y349665D01*
X424444Y348356D01*
X421728Y346272D01*
X419645Y343556D01*
X419135Y342326D01*
X417865D01*
X417356Y343556D01*
X415272Y346272D01*
X412556Y348356D01*
X409394Y349665D01*
X407500Y349915D01*
Y337000D01*
Y324085D01*
X409394Y324335D01*
X412556Y325645D01*
X415272Y327728D01*
X417356Y330444D01*
X417865Y331674D01*
X419135D01*
X419645Y330444D01*
X421728Y327728D01*
X424444Y325645D01*
X427607Y324335D01*
X429500Y324085D01*
Y337000D01*
Y349915D01*
D02*
G37*
G36*
X600500Y332500D02*
X593000D01*
Y325300D01*
X600500D01*
Y332500D01*
D02*
G37*
G36*
X590000D02*
X582500D01*
Y325300D01*
X590000D01*
Y332500D01*
D02*
G37*
G36*
Y342700D02*
X582500D01*
Y335500D01*
X590000D01*
Y342700D01*
D02*
G37*
G36*
X379500Y349915D02*
X377607Y349665D01*
X374444Y348356D01*
X371728Y346272D01*
X369645Y343556D01*
X368335Y340394D01*
X368085Y338500D01*
X379500D01*
Y349915D01*
D02*
G37*
G36*
X600500Y342700D02*
X593000D01*
Y335500D01*
X600500D01*
Y342700D01*
D02*
G37*
G36*
X314415Y287500D02*
X303000D01*
Y276085D01*
X304894Y276335D01*
X308056Y277645D01*
X310772Y279728D01*
X312856Y282444D01*
X314165Y285606D01*
X314415Y287500D01*
D02*
G37*
G36*
X300000D02*
X288585D01*
X288835Y285606D01*
X290145Y282444D01*
X292228Y279728D01*
X294944Y277645D01*
X298106Y276335D01*
X300000Y276085D01*
Y287500D01*
D02*
G37*
G36*
X337500D02*
X326085D01*
X326335Y285606D01*
X327645Y282444D01*
X329728Y279728D01*
X332444Y277645D01*
X335606Y276335D01*
X337500Y276085D01*
Y287500D01*
D02*
G37*
G36*
X594500Y288000D02*
X587300D01*
Y280500D01*
X594500D01*
Y288000D01*
D02*
G37*
G36*
X351915Y287500D02*
X340500D01*
Y276085D01*
X342394Y276335D01*
X345556Y277645D01*
X348272Y279728D01*
X350355Y282444D01*
X351665Y285606D01*
X351915Y287500D01*
D02*
G37*
G36*
X337500Y274165D02*
X335606Y273916D01*
X332444Y272606D01*
X329728Y270522D01*
X327645Y267806D01*
X326335Y264644D01*
X326085Y262750D01*
X337500D01*
Y274165D01*
D02*
G37*
G36*
X302500D02*
Y262750D01*
X313915D01*
X313666Y264644D01*
X312356Y267806D01*
X310272Y270522D01*
X307556Y272606D01*
X304394Y273916D01*
X302500Y274165D01*
D02*
G37*
G36*
X340500D02*
Y262750D01*
X351915D01*
X351665Y264644D01*
X350355Y267806D01*
X348272Y270522D01*
X345556Y272606D01*
X342394Y273916D01*
X340500Y274165D01*
D02*
G37*
G36*
X276915Y287500D02*
X265500D01*
Y276085D01*
X267394Y276335D01*
X270556Y277645D01*
X273272Y279728D01*
X275356Y282444D01*
X276665Y285606D01*
X276915Y287500D01*
D02*
G37*
G36*
X262500D02*
X251085D01*
X251335Y285606D01*
X252645Y282444D01*
X254728Y279728D01*
X257444Y277645D01*
X260606Y276335D01*
X262500Y276085D01*
Y287500D01*
D02*
G37*
G36*
X337500Y301915D02*
X335606Y301665D01*
X332444Y300356D01*
X329728Y298272D01*
X327645Y295556D01*
X326335Y292394D01*
X326085Y290500D01*
X337500D01*
Y301915D01*
D02*
G37*
G36*
X303000D02*
Y290500D01*
X314415D01*
X314165Y292394D01*
X312856Y295556D01*
X310772Y298272D01*
X308056Y300356D01*
X304894Y301665D01*
X303000Y301915D01*
D02*
G37*
G36*
X340500D02*
Y290500D01*
X351915D01*
X351665Y292394D01*
X350355Y295556D01*
X348272Y298272D01*
X345556Y300356D01*
X342394Y301665D01*
X340500Y301915D01*
D02*
G37*
G36*
X604700Y298500D02*
X597500D01*
Y291000D01*
X604700D01*
Y298500D01*
D02*
G37*
G36*
X592872Y302500D02*
X586500D01*
Y295662D01*
X587300Y294973D01*
Y291000D01*
X594500D01*
Y298500D01*
X592299D01*
X591738Y299639D01*
X591988Y299966D01*
X592794Y301912D01*
X592872Y302500D01*
D02*
G37*
G36*
X559667Y310808D02*
X557905Y310576D01*
X556263Y309896D01*
X554853Y308814D01*
X553771Y307404D01*
X553091Y305762D01*
X552859Y304000D01*
X553091Y302238D01*
X553771Y300596D01*
X554853Y299186D01*
X556263Y298104D01*
X556353Y298067D01*
Y295333D01*
X556605Y294065D01*
X557324Y292990D01*
X563157Y287157D01*
X564232Y286439D01*
X565500Y286186D01*
X568550D01*
Y281750D01*
X583450D01*
Y295172D01*
X583500Y295216D01*
Y302500D01*
X577129D01*
X577206Y301912D01*
X578012Y299966D01*
X579121Y298520D01*
X578757Y297250D01*
X568550D01*
Y292814D01*
X566873D01*
X562980Y296706D01*
Y298067D01*
X563071Y298104D01*
X564481Y299186D01*
X565563Y300596D01*
X566243Y302238D01*
X566475Y304000D01*
X566243Y305762D01*
X565563Y307404D01*
X564481Y308814D01*
X563071Y309896D01*
X561429Y310576D01*
X559667Y310808D01*
D02*
G37*
G36*
X604700Y288000D02*
X597500D01*
Y280500D01*
X604700D01*
Y288000D01*
D02*
G37*
G36*
X262500Y301915D02*
X260606Y301665D01*
X257444Y300356D01*
X254728Y298272D01*
X252645Y295556D01*
X251335Y292394D01*
X251085Y290500D01*
X262500D01*
Y301915D01*
D02*
G37*
G36*
X300000D02*
X298106Y301665D01*
X294944Y300356D01*
X292228Y298272D01*
X290145Y295556D01*
X288835Y292394D01*
X288585Y290500D01*
X300000D01*
Y301915D01*
D02*
G37*
G36*
X265500D02*
Y290500D01*
X276915D01*
X276665Y292394D01*
X275356Y295556D01*
X273272Y298272D01*
X270556Y300356D01*
X267394Y301665D01*
X265500Y301915D01*
D02*
G37*
G36*
X469050Y1141443D02*
X466244Y1141073D01*
X463629Y1139990D01*
X461383Y1138267D01*
X459660Y1136021D01*
X458577Y1133406D01*
X458207Y1130600D01*
X458577Y1127794D01*
X459660Y1125179D01*
X461383Y1122933D01*
X463629Y1121210D01*
X466244Y1120127D01*
X469050Y1119757D01*
X471856Y1120127D01*
X474471Y1121210D01*
X476717Y1122933D01*
X478440Y1125179D01*
X479523Y1127794D01*
X479893Y1130600D01*
X479523Y1133406D01*
X478440Y1136021D01*
X476717Y1138267D01*
X474471Y1139990D01*
X471856Y1141073D01*
X469050Y1141443D01*
D02*
G37*
G36*
X165268Y1141000D02*
X143432D01*
X143868Y1139948D01*
X145792Y1137442D01*
X148298Y1135518D01*
X151217Y1134309D01*
X152497Y1134141D01*
Y1132860D01*
X151217Y1132691D01*
X148298Y1131482D01*
X145792Y1129559D01*
X143868Y1127052D01*
X143432Y1126000D01*
X154350D01*
Y1116000D01*
X143432D01*
X143868Y1114948D01*
X145690Y1112574D01*
X145433Y1111385D01*
X145405Y1111304D01*
X133295D01*
X133267Y1111385D01*
X133010Y1112574D01*
X134832Y1114948D01*
X135268Y1116000D01*
X113432D01*
X113868Y1114948D01*
X115238Y1113163D01*
X114969Y1111571D01*
X114951Y1111551D01*
X114640Y1111343D01*
X106598Y1103302D01*
X105880Y1102227D01*
X105628Y1100959D01*
Y1033059D01*
X105880Y1031791D01*
X106598Y1030716D01*
X168657Y968657D01*
X169732Y967939D01*
X171000Y967686D01*
X300500D01*
Y960500D01*
X309500D01*
Y957500D01*
X300500D01*
Y951564D01*
X182250D01*
X180982Y951312D01*
X179907Y950593D01*
X146657Y917343D01*
X145939Y916268D01*
X145686Y915000D01*
Y850934D01*
X145596Y850896D01*
X144186Y849814D01*
X143104Y848404D01*
X142424Y846762D01*
X142192Y845000D01*
X142424Y843238D01*
X143104Y841596D01*
X144186Y840186D01*
X145596Y839104D01*
X147238Y838424D01*
X149000Y838192D01*
X150762Y838424D01*
X152404Y839104D01*
X153814Y840186D01*
X154896Y841596D01*
X155313Y842602D01*
X156687D01*
X157104Y841596D01*
X158186Y840186D01*
X159596Y839104D01*
X161238Y838424D01*
X163000Y838192D01*
X164762Y838424D01*
X166404Y839104D01*
X167814Y840186D01*
X168896Y841596D01*
X169576Y843238D01*
X169808Y845000D01*
X169576Y846762D01*
X168896Y848404D01*
X167814Y849814D01*
X166404Y850896D01*
X166314Y850934D01*
Y913628D01*
X191123Y938437D01*
X310954D01*
X311480Y937167D01*
X291657Y917343D01*
X290939Y916268D01*
X290686Y915000D01*
Y850934D01*
X290596Y850896D01*
X289186Y849814D01*
X288104Y848404D01*
X287424Y846762D01*
X287192Y845000D01*
X287424Y843238D01*
X288104Y841596D01*
X289186Y840186D01*
X290596Y839104D01*
X292238Y838424D01*
X294000Y838192D01*
X295762Y838424D01*
X297404Y839104D01*
X298814Y840186D01*
X299896Y841596D01*
X300313Y842602D01*
X301687D01*
X302104Y841596D01*
X303186Y840186D01*
X304596Y839104D01*
X306238Y838424D01*
X308000Y838192D01*
X309762Y838424D01*
X311404Y839104D01*
X312814Y840186D01*
X313896Y841596D01*
X314576Y843238D01*
X314808Y845000D01*
X314576Y846762D01*
X313896Y848404D01*
X312814Y849814D01*
X311404Y850896D01*
X311314Y850934D01*
Y913627D01*
X323123Y925436D01*
X334954D01*
X335480Y924166D01*
X328657Y917343D01*
X327939Y916268D01*
X327686Y915000D01*
Y871000D01*
X327939Y869732D01*
X328657Y868657D01*
X341657Y855657D01*
X342732Y854939D01*
X344000Y854687D01*
X431628D01*
X434814Y851500D01*
X434731Y850233D01*
X434186Y849814D01*
X433104Y848404D01*
X432424Y846762D01*
X432192Y845000D01*
X432424Y843238D01*
X433104Y841596D01*
X434186Y840186D01*
X435596Y839104D01*
X437238Y838424D01*
X439000Y838192D01*
X440762Y838424D01*
X442404Y839104D01*
X443814Y840186D01*
X444896Y841596D01*
X445313Y842602D01*
X446687D01*
X447104Y841596D01*
X448186Y840186D01*
X449596Y839104D01*
X451238Y838424D01*
X453000Y838192D01*
X454762Y838424D01*
X456404Y839104D01*
X457814Y840186D01*
X458896Y841596D01*
X459576Y843238D01*
X459808Y845000D01*
X459576Y846762D01*
X458896Y848404D01*
X457814Y849814D01*
X456404Y850896D01*
X456314Y850934D01*
Y852000D01*
X456062Y853268D01*
X455343Y854343D01*
X447648Y862039D01*
X448066Y863417D01*
X448229Y863449D01*
X462687Y848991D01*
Y745934D01*
X462596Y745896D01*
X461186Y744814D01*
X460104Y743404D01*
X459424Y741762D01*
X459192Y740000D01*
X459424Y738238D01*
X460104Y736596D01*
X461186Y735186D01*
X461971Y734584D01*
X461540Y733314D01*
X442000D01*
X440732Y733062D01*
X439657Y732343D01*
X433657Y726343D01*
X432939Y725268D01*
X432686Y724000D01*
Y720250D01*
X428550D01*
Y704750D01*
X443450D01*
Y720250D01*
X439314D01*
Y722627D01*
X443373Y726686D01*
X489000D01*
X490268Y726939D01*
X491343Y727657D01*
X513343Y749657D01*
X514062Y750732D01*
X514314Y752000D01*
Y799067D01*
X514404Y799104D01*
X515814Y800186D01*
X516896Y801596D01*
X517576Y803238D01*
X517808Y805000D01*
X517576Y806762D01*
X516896Y808404D01*
X515814Y809814D01*
X514404Y810896D01*
X512762Y811576D01*
X511000Y811808D01*
X509238Y811576D01*
X507596Y810896D01*
X506186Y809814D01*
X505104Y808404D01*
X504424Y806762D01*
X504192Y805000D01*
X504424Y803238D01*
X505104Y801596D01*
X506186Y800186D01*
X507596Y799104D01*
X507686Y799067D01*
Y753373D01*
X487627Y733314D01*
X470461D01*
X470029Y734584D01*
X470814Y735186D01*
X471896Y736596D01*
X472576Y738238D01*
X472808Y740000D01*
X472576Y741762D01*
X471896Y743404D01*
X470814Y744814D01*
X469404Y745896D01*
X469314Y745934D01*
Y850364D01*
X469062Y851632D01*
X468343Y852707D01*
X451207Y869843D01*
X450132Y870561D01*
X448864Y870814D01*
X352873D01*
X344564Y879123D01*
Y903628D01*
X346044Y905108D01*
X346447Y905048D01*
X346609Y904932D01*
X347347Y903631D01*
X347172Y902750D01*
X347482Y901189D01*
X348010Y900399D01*
X347465Y900035D01*
X346305Y898299D01*
X346196Y897750D01*
X372805D01*
X372696Y898299D01*
X371535Y900035D01*
X370990Y900399D01*
X371518Y901189D01*
X371828Y902750D01*
X371518Y904311D01*
X370634Y905634D01*
Y906366D01*
X371518Y907689D01*
X371828Y909250D01*
X371518Y910811D01*
X370634Y912134D01*
Y912866D01*
X371518Y914190D01*
X371828Y915750D01*
X371518Y917311D01*
X370634Y918634D01*
Y919366D01*
X371518Y920689D01*
X371828Y922250D01*
X371518Y923811D01*
X370634Y925134D01*
Y925866D01*
X371518Y927189D01*
X371828Y928750D01*
X371518Y930311D01*
X370634Y931634D01*
Y932366D01*
X371518Y933689D01*
X371828Y935250D01*
X371518Y936811D01*
X370634Y938134D01*
Y938866D01*
X371518Y940190D01*
X371828Y941750D01*
X371518Y943311D01*
X370634Y944634D01*
Y945366D01*
X371518Y946689D01*
X371828Y948250D01*
X371518Y949811D01*
X370634Y951134D01*
Y951866D01*
X371518Y953189D01*
X371828Y954750D01*
X371518Y956311D01*
X370634Y957634D01*
Y958366D01*
X371518Y959689D01*
X371828Y961250D01*
X371518Y962811D01*
X370634Y964134D01*
Y964866D01*
X371518Y966189D01*
X371828Y967750D01*
X371518Y969311D01*
X370634Y970634D01*
X369311Y971518D01*
X367750Y971829D01*
X362814D01*
Y997500D01*
X362562Y998768D01*
X361843Y999843D01*
X355343Y1006343D01*
X354268Y1007062D01*
X353000Y1007314D01*
X336250D01*
Y1011450D01*
X331814D01*
Y1037500D01*
X331773Y1037705D01*
X332579Y1038686D01*
X528628D01*
X537186Y1030128D01*
Y1026450D01*
X532750D01*
Y1011550D01*
X548250D01*
Y1026450D01*
X543814D01*
Y1031500D01*
X543639Y1032379D01*
X544809Y1033004D01*
X556936Y1020877D01*
Y967373D01*
X551878Y962314D01*
X548250D01*
Y966450D01*
X539933D01*
X539406Y967720D01*
X542843Y971157D01*
X543106Y971550D01*
X548250D01*
Y986450D01*
X543814D01*
Y991550D01*
X548250D01*
Y1006450D01*
X532750D01*
Y991550D01*
X537186D01*
Y986450D01*
X532750D01*
Y972314D01*
X530500D01*
Y977500D01*
X512500D01*
Y972314D01*
X482000D01*
X480732Y972061D01*
X479657Y971343D01*
X453719Y945406D01*
X452987Y945504D01*
X452533Y946847D01*
X501373Y995686D01*
X513750D01*
Y991550D01*
X529250D01*
Y1006450D01*
X524814D01*
Y1011550D01*
X529250D01*
Y1026450D01*
X513750D01*
Y1011550D01*
X518186D01*
Y1006450D01*
X513750D01*
Y1002314D01*
X500000D01*
X498732Y1002062D01*
X497657Y1001343D01*
X447878Y951564D01*
X440959D01*
X440280Y952834D01*
X440518Y953189D01*
X440829Y954750D01*
X440518Y956311D01*
X439634Y957634D01*
Y958366D01*
X440518Y959689D01*
X440829Y961250D01*
X440518Y962811D01*
X439634Y964134D01*
Y964866D01*
X440518Y966189D01*
X440829Y967750D01*
X440518Y969311D01*
X439634Y970634D01*
X438311Y971518D01*
X436750Y971829D01*
X420250D01*
X418689Y971518D01*
X417366Y970634D01*
X416482Y969311D01*
X416172Y967750D01*
X416482Y966189D01*
X417366Y964866D01*
Y964134D01*
X416482Y962811D01*
X416172Y961250D01*
X416482Y959689D01*
X416720Y959334D01*
X416041Y958064D01*
X407373D01*
X402314Y963123D01*
Y981628D01*
X406873Y986187D01*
X410550D01*
Y981750D01*
X425450D01*
Y997250D01*
X410550D01*
Y992814D01*
X405500D01*
X404232Y992562D01*
X403157Y991843D01*
X396657Y985343D01*
X395939Y984268D01*
X395686Y983000D01*
Y961750D01*
X395939Y960482D01*
X396657Y959407D01*
X403657Y952407D01*
X404732Y951689D01*
X406000Y951436D01*
X416041D01*
X416720Y950166D01*
X416482Y949811D01*
X416172Y948250D01*
X416482Y946689D01*
X417366Y945366D01*
Y944634D01*
X416482Y943311D01*
X416172Y941750D01*
X416482Y940190D01*
X417366Y938866D01*
Y938134D01*
X416482Y936811D01*
X416172Y935250D01*
X416482Y933689D01*
X417366Y932366D01*
Y931634D01*
X416482Y930311D01*
X416172Y928750D01*
X416482Y927189D01*
X417366Y925866D01*
Y925134D01*
X416482Y923811D01*
X416172Y922250D01*
X416482Y920689D01*
X417366Y919366D01*
Y918634D01*
X416482Y917311D01*
X416172Y915750D01*
X416482Y914190D01*
X417366Y912866D01*
Y912134D01*
X416482Y910811D01*
X416172Y909250D01*
X416482Y907689D01*
X417366Y906366D01*
Y905634D01*
X416482Y904311D01*
X416172Y902750D01*
X416482Y901189D01*
X417366Y899866D01*
Y899134D01*
X416482Y897811D01*
X416172Y896250D01*
X416482Y894689D01*
X417366Y893366D01*
X418689Y892482D01*
X420250Y892172D01*
X436750D01*
X438311Y892482D01*
X438991Y892936D01*
X441377D01*
X543357Y790957D01*
X544432Y790239D01*
X545700Y789986D01*
X760860D01*
X846686Y704160D01*
Y699460D01*
X845416Y699029D01*
X844814Y699814D01*
X843404Y700896D01*
X841762Y701576D01*
X840000Y701808D01*
X838238Y701576D01*
X836596Y700896D01*
X835186Y699814D01*
X834104Y698404D01*
X833424Y696762D01*
X833192Y695000D01*
X833424Y693238D01*
X834104Y691596D01*
X835186Y690186D01*
X835849Y689677D01*
X835815Y689414D01*
X834461Y688852D01*
X834404Y688896D01*
X832762Y689576D01*
X831000Y689808D01*
X829238Y689576D01*
X827596Y688896D01*
X826186Y687814D01*
X825104Y686404D01*
X824424Y684762D01*
X824192Y683000D01*
X824424Y681238D01*
X825104Y679596D01*
X826186Y678186D01*
X827596Y677104D01*
X827686Y677066D01*
Y622373D01*
X685657Y480343D01*
X685584Y480234D01*
X684314Y480619D01*
Y767326D01*
X684062Y768594D01*
X683343Y769669D01*
X667669Y785343D01*
X666594Y786061D01*
X665326Y786314D01*
X555000D01*
X553732Y786061D01*
X552657Y785343D01*
X537657Y770343D01*
X536939Y769268D01*
X536686Y768000D01*
Y697000D01*
X536939Y695732D01*
X537657Y694657D01*
X553657Y678657D01*
X554732Y677939D01*
X556000Y677686D01*
X561067D01*
X561104Y677596D01*
X562186Y676186D01*
X563596Y675104D01*
X565238Y674424D01*
X567000Y674192D01*
X568762Y674424D01*
X570404Y675104D01*
X571814Y676186D01*
X572896Y677596D01*
X573576Y679238D01*
X573808Y681000D01*
X573576Y682762D01*
X572896Y684404D01*
X571814Y685814D01*
X570404Y686896D01*
X568762Y687576D01*
X567000Y687808D01*
X565238Y687576D01*
X563596Y686896D01*
X562186Y685814D01*
X561104Y684404D01*
X561067Y684314D01*
X557372D01*
X543314Y698372D01*
Y766627D01*
X556373Y779686D01*
X663953D01*
X677686Y765953D01*
Y308623D01*
X651657Y282593D01*
X650939Y281518D01*
X650686Y280250D01*
Y164000D01*
X650939Y162732D01*
X651657Y161657D01*
X658730Y154584D01*
X658204Y153314D01*
X654373D01*
X646093Y161593D01*
X645018Y162311D01*
X643750Y162564D01*
X596533D01*
X595264Y162311D01*
X594189Y161593D01*
X585907Y153311D01*
X585189Y152236D01*
X584937Y150968D01*
Y80558D01*
X585189Y79289D01*
X585907Y78215D01*
X608465Y55657D01*
X609540Y54939D01*
X610808Y54686D01*
X620750D01*
Y48750D01*
X639250D01*
Y67250D01*
X620750D01*
Y61314D01*
X612180D01*
X601078Y72417D01*
X601604Y73686D01*
X641628D01*
X649205Y66109D01*
X649122Y64842D01*
X648803Y64597D01*
X647320Y62665D01*
X646388Y60415D01*
X646070Y58000D01*
X646388Y55585D01*
X647320Y53335D01*
X648803Y51403D01*
X650735Y49920D01*
X652985Y48988D01*
X655400Y48670D01*
X657815Y48988D01*
X660065Y49920D01*
X661997Y51403D01*
X663480Y53335D01*
X664412Y55585D01*
X664730Y58000D01*
X664412Y60415D01*
X663480Y62665D01*
X661997Y64597D01*
X660065Y66080D01*
X657815Y67012D01*
X657653Y67033D01*
X645343Y79343D01*
X644268Y80062D01*
X643000Y80314D01*
X602373D01*
X596314Y86373D01*
Y147628D01*
X599873Y151186D01*
X603348D01*
X603550Y150000D01*
X603550D01*
Y134500D01*
X618450D01*
Y137917D01*
X623550D01*
Y134500D01*
X634064D01*
X634157Y134407D01*
X635232Y133689D01*
X636079Y133520D01*
X635954Y132250D01*
X632500D01*
Y124750D01*
X639700D01*
Y132166D01*
X639700Y132250D01*
X639902Y133436D01*
X665197D01*
X665238Y133360D01*
X665739Y132166D01*
X665705Y132000D01*
X686295D01*
X686225Y132353D01*
X686082Y132566D01*
X686681Y133686D01*
X722642D01*
X723321Y132416D01*
X722953Y131866D01*
X722682Y130500D01*
X722953Y129135D01*
X723692Y128028D01*
X723864Y127693D01*
Y126808D01*
X723692Y126472D01*
X722953Y125366D01*
X722682Y124000D01*
X722953Y122634D01*
X723727Y121477D01*
X723864Y121385D01*
Y120115D01*
X723727Y120023D01*
X722953Y118866D01*
X722682Y117500D01*
X722953Y116135D01*
X723321Y115584D01*
X722642Y114314D01*
X712000D01*
X710732Y114062D01*
X709657Y113343D01*
X703657Y107343D01*
X702939Y106268D01*
X702686Y105000D01*
Y103659D01*
X701513Y103173D01*
X697843Y106843D01*
X696768Y107562D01*
X695500Y107814D01*
X685358D01*
X684679Y109084D01*
X685047Y109635D01*
X685319Y111000D01*
X685047Y112366D01*
X684308Y113472D01*
X684136Y113808D01*
Y114693D01*
X684308Y115028D01*
X685047Y116135D01*
X685319Y117500D01*
X685047Y118866D01*
X684308Y119972D01*
X684136Y120308D01*
Y121193D01*
X684308Y121528D01*
X685047Y122634D01*
X685319Y124000D01*
X685047Y125366D01*
X684297Y126489D01*
X685175Y127076D01*
X686225Y128647D01*
X686295Y129000D01*
X665705D01*
X665776Y128647D01*
X665918Y128434D01*
X665319Y127314D01*
X662565D01*
X661297Y127062D01*
X660222Y126343D01*
X649157Y115278D01*
X648439Y114203D01*
X648186Y112935D01*
Y93783D01*
X648439Y92514D01*
X649157Y91440D01*
X669936Y70660D01*
Y54330D01*
X660420Y44814D01*
X596226D01*
X577314Y63726D01*
Y166628D01*
X620343Y209657D01*
X621062Y210732D01*
X621314Y212000D01*
Y697628D01*
X625377Y701691D01*
X626550Y701205D01*
Y698750D01*
X641450D01*
Y703186D01*
X645550D01*
Y698750D01*
X660450D01*
Y714250D01*
X645550D01*
Y709814D01*
X641450D01*
Y714250D01*
X626550D01*
Y709814D01*
X625500D01*
X624232Y709562D01*
X623157Y708843D01*
X615657Y701343D01*
X614939Y700268D01*
X614687Y699000D01*
Y555796D01*
X613416Y555270D01*
X606843Y561843D01*
X605768Y562562D01*
X604500Y562814D01*
X603450D01*
Y567250D01*
X588550D01*
Y562814D01*
X583450D01*
Y567250D01*
X568550D01*
Y551750D01*
X583450D01*
Y556186D01*
X588550D01*
Y551750D01*
X603450D01*
Y554204D01*
X604623Y554691D01*
X608686Y550628D01*
Y216373D01*
X600487Y208173D01*
X599314Y208659D01*
Y262750D01*
X603450D01*
Y278250D01*
X588550D01*
Y273814D01*
X583450D01*
Y278250D01*
X568550D01*
Y262750D01*
X583450D01*
Y267187D01*
X588550D01*
Y262750D01*
X592686D01*
Y207373D01*
X561907Y176593D01*
X561189Y175518D01*
X561084Y174990D01*
X559814Y175115D01*
Y265000D01*
X559561Y266268D01*
X558843Y267343D01*
X539343Y286843D01*
X538268Y287561D01*
X537000Y287814D01*
X472580D01*
X439551Y320843D01*
X438475Y321561D01*
X437207Y321814D01*
X248873D01*
X234814Y335873D01*
Y602878D01*
X244623Y612686D01*
X275067D01*
X275104Y612596D01*
X276186Y611186D01*
X277596Y610104D01*
X279238Y609424D01*
X281000Y609192D01*
X282762Y609424D01*
X284404Y610104D01*
X285814Y611186D01*
X286896Y612596D01*
X287576Y614238D01*
X287808Y616000D01*
X287576Y617762D01*
X286896Y619404D01*
X285814Y620814D01*
X284545Y621788D01*
X284469Y622500D01*
X284545Y623212D01*
X285814Y624186D01*
X286896Y625596D01*
X287576Y627238D01*
X287808Y629000D01*
X287576Y630762D01*
X286896Y632404D01*
X285814Y633814D01*
X284545Y634788D01*
X284469Y635500D01*
X284545Y636212D01*
X285814Y637186D01*
X286896Y638596D01*
X287576Y640238D01*
X287808Y642000D01*
X287576Y643762D01*
X286896Y645404D01*
X285814Y646814D01*
X284404Y647896D01*
X282762Y648576D01*
X281000Y648808D01*
X279238Y648576D01*
X277596Y647896D01*
X276186Y646814D01*
X275104Y645404D01*
X275067Y645314D01*
X254000D01*
X252732Y645062D01*
X251657Y644343D01*
X219657Y612343D01*
X218939Y611268D01*
X218686Y610000D01*
Y330565D01*
X218939Y329297D01*
X219657Y328222D01*
X241222Y306657D01*
X242297Y305938D01*
X243565Y305686D01*
X431692D01*
X464722Y272657D01*
X465797Y271939D01*
X467065Y271686D01*
X531274D01*
X543686Y259274D01*
Y54211D01*
X542416Y53780D01*
X541272Y55272D01*
X538556Y57356D01*
X535394Y58665D01*
X533500Y58915D01*
Y46000D01*
Y33085D01*
X535394Y33335D01*
X538556Y34645D01*
X541272Y36728D01*
X542497Y38326D01*
X543855Y38009D01*
X543939Y37590D01*
X544657Y36515D01*
X570515Y10657D01*
X571590Y9939D01*
X572858Y9686D01*
X686142D01*
X687410Y9939D01*
X688485Y10657D01*
X713343Y35515D01*
X714062Y36590D01*
X714314Y37858D01*
Y98628D01*
X716873Y101186D01*
X724969D01*
X726250Y100932D01*
X737750D01*
X739116Y101203D01*
X740274Y101977D01*
X741047Y103134D01*
X741319Y104500D01*
X741047Y105866D01*
X740274Y107023D01*
X740136Y107115D01*
Y108385D01*
X740274Y108477D01*
X741047Y109635D01*
X741319Y111000D01*
X741047Y112366D01*
X740679Y112916D01*
X741358Y114186D01*
X746167D01*
X756436Y103917D01*
Y79097D01*
X756689Y77829D01*
X757407Y76754D01*
X771004Y63157D01*
X772079Y62439D01*
X773347Y62186D01*
X833935D01*
X835203Y62439D01*
X836278Y63157D01*
X861843Y88722D01*
X862562Y89797D01*
X862814Y91065D01*
Y263392D01*
X864084Y263645D01*
X864104Y263596D01*
X865186Y262186D01*
X866596Y261104D01*
X868238Y260424D01*
X870000Y260192D01*
X871762Y260424D01*
X873404Y261104D01*
X874814Y262186D01*
X875183Y262667D01*
X884000D01*
X885658Y262997D01*
X887064Y263936D01*
X900064Y276936D01*
X901003Y278342D01*
X901333Y280000D01*
Y915000D01*
X901003Y916658D01*
X900064Y918064D01*
X887064Y931064D01*
X885658Y932003D01*
X884000Y932333D01*
X745250D01*
Y935450D01*
X729750D01*
Y920550D01*
X733417D01*
Y915850D01*
X728750D01*
Y907804D01*
X717250D01*
Y912450D01*
X701750D01*
Y897550D01*
X717250D01*
Y902196D01*
X727500D01*
Y899900D01*
X748000D01*
Y902196D01*
X758839D01*
X764617Y896417D01*
X764617Y896417D01*
X765527Y895810D01*
X766600Y895596D01*
X783250D01*
Y893650D01*
X801250D01*
Y903150D01*
X783250D01*
Y901204D01*
X767761D01*
X761983Y906983D01*
X761073Y907590D01*
X760000Y907804D01*
X746750D01*
Y915850D01*
X742083D01*
Y920550D01*
X745250D01*
Y923667D01*
X882205D01*
X892667Y913205D01*
Y281795D01*
X882205Y271333D01*
X875183D01*
X874814Y271814D01*
X873404Y272896D01*
X871762Y273576D01*
X870000Y273808D01*
X868238Y273576D01*
X866596Y272896D01*
X865186Y271814D01*
X864104Y270404D01*
X864084Y270356D01*
X862814Y270608D01*
Y386428D01*
X865043Y388657D01*
X865762Y389732D01*
X866014Y391000D01*
Y706328D01*
X865762Y707596D01*
X865043Y708671D01*
X765371Y808343D01*
X764888Y808666D01*
X765273Y809936D01*
X776377D01*
X824461Y761853D01*
X824424Y761762D01*
X824192Y760000D01*
X824424Y758238D01*
X825104Y756596D01*
X826186Y755186D01*
X827596Y754104D01*
X829238Y753424D01*
X831000Y753192D01*
X832762Y753424D01*
X833704Y752439D01*
X833424Y751762D01*
X833192Y750000D01*
X833424Y748238D01*
X834104Y746596D01*
X835186Y745186D01*
X836596Y744104D01*
X838238Y743424D01*
X840000Y743192D01*
X841762Y743424D01*
X843404Y744104D01*
X844814Y745186D01*
X845896Y746596D01*
X846576Y748238D01*
X846808Y750000D01*
X846576Y751762D01*
X845896Y753404D01*
X844814Y754814D01*
X843404Y755896D01*
X843314Y755934D01*
Y765000D01*
X843061Y766268D01*
X842343Y767343D01*
X789343Y820343D01*
X788268Y821061D01*
X787000Y821314D01*
X638373D01*
X585096Y874590D01*
Y1025422D01*
X586357Y1025956D01*
X593686Y1018627D01*
Y914000D01*
X593939Y912732D01*
X594657Y911657D01*
X653657Y852657D01*
X654732Y851939D01*
X656000Y851686D01*
X682750D01*
Y847550D01*
X698250D01*
Y862450D01*
X682750D01*
Y858314D01*
X657373D01*
X600314Y915373D01*
Y928341D01*
X601487Y928827D01*
X652657Y877657D01*
X653732Y876939D01*
X655000Y876686D01*
X682750D01*
Y872550D01*
X698250D01*
Y887450D01*
X682750D01*
Y883314D01*
X656373D01*
X605064Y934623D01*
Y948591D01*
X606237Y949077D01*
X652657Y902657D01*
X653732Y901939D01*
X655000Y901686D01*
X682750D01*
Y897550D01*
X698250D01*
Y912450D01*
X682750D01*
Y908314D01*
X656373D01*
X609814Y954873D01*
Y1025289D01*
X609561Y1026557D01*
X608843Y1027632D01*
X548564Y1087911D01*
Y1094937D01*
X550671Y1095810D01*
X552917Y1097533D01*
X554640Y1099779D01*
X555723Y1102394D01*
X556093Y1105200D01*
X555723Y1108006D01*
X554640Y1110621D01*
X552917Y1112867D01*
X550671Y1114590D01*
X548056Y1115673D01*
X545250Y1116043D01*
X542444Y1115673D01*
X539829Y1114590D01*
X537583Y1112867D01*
X535860Y1110621D01*
X534777Y1108006D01*
X534407Y1105200D01*
X534777Y1102394D01*
X535860Y1099779D01*
X537583Y1097533D01*
X539829Y1095810D01*
X541936Y1094937D01*
Y1089127D01*
X540763Y1088641D01*
X529353Y1100051D01*
X530323Y1102394D01*
X530693Y1105200D01*
X530323Y1108006D01*
X529240Y1110621D01*
X527517Y1112867D01*
X525271Y1114590D01*
X522656Y1115673D01*
X519850Y1116043D01*
X517044Y1115673D01*
X514429Y1114590D01*
X512183Y1112867D01*
X510460Y1110621D01*
X509377Y1108006D01*
X509007Y1105200D01*
X509377Y1102394D01*
X510460Y1099779D01*
X512183Y1097533D01*
X514429Y1095810D01*
X517044Y1094727D01*
X519850Y1094357D01*
X522656Y1094727D01*
X524529Y1095502D01*
X538544Y1081487D01*
X538058Y1080314D01*
X524023D01*
X504050Y1100286D01*
X504923Y1102394D01*
X505293Y1105200D01*
X504923Y1108006D01*
X503840Y1110621D01*
X502117Y1112867D01*
X499871Y1114590D01*
X497256Y1115673D01*
X494450Y1116043D01*
X491644Y1115673D01*
X489029Y1114590D01*
X486783Y1112867D01*
X485060Y1110621D01*
X483977Y1108006D01*
X483607Y1105200D01*
X483977Y1102394D01*
X485060Y1099779D01*
X486783Y1097533D01*
X489029Y1095810D01*
X491644Y1094727D01*
X494450Y1094357D01*
X497256Y1094727D01*
X499364Y1095600D01*
X520307Y1074657D01*
X520416Y1074584D01*
X520031Y1073314D01*
X429623D01*
X402450Y1100486D01*
X403323Y1102594D01*
X403693Y1105400D01*
X403323Y1108206D01*
X402240Y1110822D01*
X400517Y1113067D01*
X398271Y1114790D01*
X395656Y1115873D01*
X392850Y1116243D01*
X390044Y1115873D01*
X387429Y1114790D01*
X385183Y1113067D01*
X383460Y1110822D01*
X382377Y1108206D01*
X382007Y1105400D01*
X382377Y1102594D01*
X383460Y1099979D01*
X385183Y1097733D01*
X387429Y1096010D01*
X390044Y1094927D01*
X392850Y1094557D01*
X395656Y1094927D01*
X397764Y1095800D01*
X424077Y1069487D01*
X423591Y1068314D01*
X408605D01*
X376869Y1100049D01*
X377923Y1102594D01*
X378293Y1105400D01*
X377923Y1108206D01*
X376840Y1110822D01*
X375117Y1113067D01*
X372871Y1114790D01*
X370256Y1115873D01*
X367450Y1116243D01*
X364644Y1115873D01*
X362029Y1114790D01*
X359783Y1113067D01*
X358060Y1110822D01*
X356977Y1108206D01*
X356607Y1105400D01*
X356977Y1102594D01*
X358060Y1099979D01*
X359783Y1097733D01*
X362029Y1096010D01*
X364644Y1094927D01*
X367450Y1094557D01*
X370256Y1094927D01*
X371927Y1095619D01*
X404889Y1062657D01*
X405964Y1061939D01*
X407233Y1061686D01*
X534627D01*
X573110Y1023204D01*
Y871859D01*
X573362Y870591D01*
X574081Y869516D01*
X632689Y810907D01*
X633173Y810584D01*
X632788Y809314D01*
X552333D01*
X512617Y849030D01*
X513143Y850300D01*
X513504Y850300D01*
X520000D01*
Y857500D01*
X512500D01*
Y851317D01*
X512500Y850943D01*
X511230Y850417D01*
X450481Y911167D01*
X451007Y912437D01*
X479878D01*
X498686Y893628D01*
Y877000D01*
X498939Y875732D01*
X499657Y874657D01*
X508007Y866307D01*
X509082Y865589D01*
X510350Y865337D01*
X511602D01*
X512500Y864438D01*
Y860500D01*
X530500D01*
Y865337D01*
X532750D01*
Y851550D01*
X548250D01*
Y866450D01*
X543814D01*
Y871550D01*
X548250D01*
Y886450D01*
X532750D01*
Y871964D01*
X529250D01*
Y886450D01*
X524814D01*
Y891550D01*
X529250D01*
Y906450D01*
X513750D01*
Y902314D01*
X509373D01*
X487520Y924166D01*
X488046Y925436D01*
X512500D01*
Y920500D01*
X530500D01*
Y925436D01*
X532750D01*
Y911550D01*
X548250D01*
Y926450D01*
X543814D01*
Y931550D01*
X548250D01*
Y946450D01*
X532750D01*
Y932064D01*
X529250D01*
Y946450D01*
X524814D01*
Y951550D01*
X529250D01*
Y965686D01*
X532750D01*
Y951550D01*
X548250D01*
Y955686D01*
X553250D01*
X554518Y955939D01*
X555593Y956657D01*
X561417Y962480D01*
X562687Y961954D01*
Y917373D01*
X549423Y904110D01*
X548250Y904596D01*
Y906450D01*
X532750D01*
Y891550D01*
X548250D01*
Y895686D01*
X549000D01*
X550268Y895939D01*
X551343Y896657D01*
X568343Y913657D01*
X569062Y914732D01*
X569314Y916000D01*
Y1023364D01*
X569062Y1024632D01*
X568343Y1025707D01*
X536707Y1057343D01*
X535632Y1058062D01*
X534364Y1058314D01*
X336723D01*
X328950Y1066086D01*
X329823Y1068194D01*
X330193Y1071000D01*
X329823Y1073806D01*
X328740Y1076422D01*
X327017Y1078667D01*
X324771Y1080390D01*
X322156Y1081473D01*
X319350Y1081843D01*
X316544Y1081473D01*
X313929Y1080390D01*
X311683Y1078667D01*
X309960Y1076422D01*
X308877Y1073806D01*
X308507Y1071000D01*
X308877Y1068194D01*
X309960Y1065579D01*
X311683Y1063333D01*
X313929Y1061610D01*
X316544Y1060527D01*
X319350Y1060157D01*
X322156Y1060527D01*
X324264Y1061400D01*
X333007Y1052657D01*
X333116Y1052584D01*
X332731Y1051314D01*
X288722D01*
X273950Y1066086D01*
X274823Y1068194D01*
X275193Y1071000D01*
X274823Y1073806D01*
X273740Y1076422D01*
X272017Y1078667D01*
X269771Y1080390D01*
X267156Y1081473D01*
X264350Y1081843D01*
X261544Y1081473D01*
X258929Y1080390D01*
X256683Y1078667D01*
X254960Y1076422D01*
X253877Y1073806D01*
X253507Y1071000D01*
X253877Y1068194D01*
X254960Y1065579D01*
X256683Y1063333D01*
X258929Y1061610D01*
X261544Y1060527D01*
X264350Y1060157D01*
X267156Y1060527D01*
X269264Y1061400D01*
X284080Y1046584D01*
X283554Y1045314D01*
X239723D01*
X218950Y1066086D01*
X219823Y1068194D01*
X220193Y1071000D01*
X219823Y1073806D01*
X218740Y1076422D01*
X217017Y1078667D01*
X216028Y1079426D01*
X216459Y1080696D01*
X220689D01*
X224961Y1076423D01*
X224960Y1076422D01*
X223877Y1073806D01*
X223507Y1071000D01*
X223877Y1068194D01*
X224960Y1065579D01*
X226683Y1063333D01*
X228929Y1061610D01*
X231544Y1060527D01*
X234350Y1060157D01*
X237156Y1060527D01*
X239771Y1061610D01*
X242017Y1063333D01*
X243740Y1065579D01*
X244823Y1068194D01*
X245193Y1071000D01*
X244823Y1073806D01*
X243740Y1076422D01*
X242017Y1078667D01*
X239771Y1080390D01*
X237156Y1081473D01*
X234350Y1081843D01*
X231544Y1081473D01*
X228929Y1080390D01*
X228927Y1080389D01*
X223833Y1085483D01*
X222923Y1086091D01*
X221850Y1086304D01*
X216459D01*
X216028Y1087574D01*
X217017Y1088333D01*
X218740Y1090579D01*
X219823Y1093194D01*
X220193Y1096000D01*
X219823Y1098806D01*
X218740Y1101422D01*
X217017Y1103667D01*
X216028Y1104426D01*
X216459Y1105696D01*
X227241D01*
X227672Y1104426D01*
X226683Y1103667D01*
X224960Y1101422D01*
X223877Y1098806D01*
X223507Y1096000D01*
X223877Y1093194D01*
X224960Y1090579D01*
X226683Y1088333D01*
X228929Y1086610D01*
X231544Y1085527D01*
X234350Y1085157D01*
X237156Y1085527D01*
X239771Y1086610D01*
X242017Y1088333D01*
X243740Y1090579D01*
X244823Y1093194D01*
X245193Y1096000D01*
X244823Y1098806D01*
X243740Y1101422D01*
X242017Y1103667D01*
X241028Y1104426D01*
X241459Y1105696D01*
X257241D01*
X257672Y1104426D01*
X256683Y1103667D01*
X254960Y1101422D01*
X253877Y1098806D01*
X253507Y1096000D01*
X253877Y1093194D01*
X254960Y1090579D01*
X256683Y1088333D01*
X258929Y1086610D01*
X261544Y1085527D01*
X264350Y1085157D01*
X267156Y1085527D01*
X269771Y1086610D01*
X272017Y1088333D01*
X273740Y1090579D01*
X274823Y1093194D01*
X275193Y1096000D01*
X274823Y1098806D01*
X273740Y1101422D01*
X272017Y1103667D01*
X271028Y1104426D01*
X271459Y1105696D01*
X275689D01*
X279961Y1101423D01*
X279960Y1101422D01*
X278877Y1098806D01*
X278507Y1096000D01*
X278877Y1093194D01*
X279960Y1090579D01*
X281683Y1088333D01*
X283929Y1086610D01*
X286544Y1085527D01*
X289350Y1085157D01*
X292156Y1085527D01*
X294771Y1086610D01*
X297017Y1088333D01*
X298740Y1090579D01*
X299823Y1093194D01*
X300193Y1096000D01*
X299823Y1098806D01*
X298740Y1101422D01*
X297017Y1103667D01*
X294771Y1105390D01*
X292156Y1106473D01*
X289350Y1106843D01*
X286544Y1106473D01*
X283929Y1105390D01*
X283927Y1105389D01*
X278833Y1110483D01*
X277923Y1111091D01*
X276850Y1111304D01*
X271459D01*
X271028Y1112574D01*
X272017Y1113333D01*
X273740Y1115579D01*
X274823Y1118194D01*
X275193Y1121000D01*
X274823Y1123806D01*
X273740Y1126422D01*
X272017Y1128667D01*
X269771Y1130390D01*
X267156Y1131473D01*
X264350Y1131843D01*
X261544Y1131473D01*
X258929Y1130390D01*
X256683Y1128667D01*
X254960Y1126422D01*
X253877Y1123806D01*
X253507Y1121000D01*
X253877Y1118194D01*
X254960Y1115579D01*
X256683Y1113333D01*
X257672Y1112574D01*
X257241Y1111304D01*
X241459D01*
X241028Y1112574D01*
X242017Y1113333D01*
X243740Y1115579D01*
X244823Y1118194D01*
X245193Y1121000D01*
X244823Y1123806D01*
X243740Y1126422D01*
X242017Y1128667D01*
X239771Y1130390D01*
X237156Y1131473D01*
X234350Y1131843D01*
X231544Y1131473D01*
X228929Y1130390D01*
X226683Y1128667D01*
X224960Y1126422D01*
X223877Y1123806D01*
X223507Y1121000D01*
X223877Y1118194D01*
X224960Y1115579D01*
X226683Y1113333D01*
X227672Y1112574D01*
X227241Y1111304D01*
X216459D01*
X216028Y1112574D01*
X217017Y1113333D01*
X218740Y1115579D01*
X219823Y1118194D01*
X220193Y1121000D01*
X219823Y1123806D01*
X218740Y1126422D01*
X217017Y1128667D01*
X214771Y1130390D01*
X212156Y1131473D01*
X209350Y1131843D01*
X206544Y1131473D01*
X203929Y1130390D01*
X201683Y1128667D01*
X199960Y1126422D01*
X198877Y1123806D01*
X198507Y1121000D01*
X198877Y1118194D01*
X199960Y1115579D01*
X201683Y1113333D01*
X202672Y1112574D01*
X202241Y1111304D01*
X186459D01*
X186028Y1112574D01*
X187017Y1113333D01*
X188740Y1115579D01*
X189823Y1118194D01*
X190193Y1121000D01*
X189823Y1123806D01*
X188740Y1126422D01*
X187017Y1128667D01*
X184771Y1130390D01*
X182156Y1131473D01*
X179350Y1131843D01*
X176544Y1131473D01*
X173929Y1130390D01*
X171683Y1128667D01*
X169960Y1126422D01*
X168877Y1123806D01*
X168507Y1121000D01*
X168877Y1118194D01*
X169960Y1115579D01*
X171683Y1113333D01*
X172672Y1112574D01*
X172241Y1111304D01*
X163295D01*
X163267Y1111385D01*
X163010Y1112574D01*
X164832Y1114948D01*
X166041Y1117868D01*
X166453Y1121000D01*
X166041Y1124133D01*
X164832Y1127052D01*
X162908Y1129559D01*
X160402Y1131482D01*
X157483Y1132691D01*
X156203Y1132860D01*
Y1134141D01*
X157483Y1134309D01*
X160402Y1135518D01*
X162908Y1137442D01*
X164832Y1139948D01*
X165268Y1141000D01*
D02*
G37*
G36*
X494450Y1141443D02*
X491644Y1141073D01*
X489029Y1139990D01*
X486783Y1138267D01*
X485060Y1136021D01*
X483977Y1133406D01*
X483607Y1130600D01*
X483977Y1127794D01*
X485060Y1125179D01*
X486783Y1122933D01*
X489029Y1121210D01*
X491644Y1120127D01*
X494450Y1119757D01*
X497256Y1120127D01*
X499871Y1121210D01*
X502117Y1122933D01*
X503840Y1125179D01*
X504923Y1127794D01*
X505293Y1130600D01*
X504923Y1133406D01*
X503840Y1136021D01*
X502117Y1138267D01*
X499871Y1139990D01*
X497256Y1141073D01*
X494450Y1141443D01*
D02*
G37*
G36*
X545250D02*
X542444Y1141073D01*
X539829Y1139990D01*
X537583Y1138267D01*
X535860Y1136021D01*
X534777Y1133406D01*
X534407Y1130600D01*
X534777Y1127794D01*
X535860Y1125179D01*
X537583Y1122933D01*
X539829Y1121210D01*
X542444Y1120127D01*
X545250Y1119757D01*
X548056Y1120127D01*
X550671Y1121210D01*
X552917Y1122933D01*
X554640Y1125179D01*
X555723Y1127794D01*
X556093Y1130600D01*
X555723Y1133406D01*
X554640Y1136021D01*
X552917Y1138267D01*
X550671Y1139990D01*
X548056Y1141073D01*
X545250Y1141443D01*
D02*
G37*
G36*
X519850D02*
X517044Y1141073D01*
X514429Y1139990D01*
X512183Y1138267D01*
X510460Y1136021D01*
X509377Y1133406D01*
X509007Y1130600D01*
X509377Y1127794D01*
X510460Y1125179D01*
X512183Y1122933D01*
X514429Y1121210D01*
X517044Y1120127D01*
X519850Y1119757D01*
X522656Y1120127D01*
X525271Y1121210D01*
X527517Y1122933D01*
X529240Y1125179D01*
X530323Y1127794D01*
X530693Y1130600D01*
X530323Y1133406D01*
X529240Y1136021D01*
X527517Y1138267D01*
X525271Y1139990D01*
X522656Y1141073D01*
X519850Y1141443D01*
D02*
G37*
G36*
X651950Y1131843D02*
X649144Y1131473D01*
X646529Y1130390D01*
X644283Y1128667D01*
X642560Y1126422D01*
X641477Y1123806D01*
X641107Y1121000D01*
X641477Y1118194D01*
X642560Y1115579D01*
X644283Y1113333D01*
X646529Y1111610D01*
X649144Y1110527D01*
X651950Y1110157D01*
X654756Y1110527D01*
X657371Y1111610D01*
X659617Y1113333D01*
X661340Y1115579D01*
X662423Y1118194D01*
X662793Y1121000D01*
X662423Y1123806D01*
X661340Y1126422D01*
X659617Y1128667D01*
X657371Y1130390D01*
X654756Y1131473D01*
X651950Y1131843D01*
D02*
G37*
G36*
X626950D02*
X624144Y1131473D01*
X621529Y1130390D01*
X619283Y1128667D01*
X617560Y1126422D01*
X616477Y1123806D01*
X616107Y1121000D01*
X616477Y1118194D01*
X617560Y1115579D01*
X619283Y1113333D01*
X621529Y1111610D01*
X624144Y1110527D01*
X626950Y1110157D01*
X629756Y1110527D01*
X632371Y1111610D01*
X634617Y1113333D01*
X636340Y1115579D01*
X637423Y1118194D01*
X637793Y1121000D01*
X637423Y1123806D01*
X636340Y1126422D01*
X634617Y1128667D01*
X632371Y1130390D01*
X629756Y1131473D01*
X626950Y1131843D01*
D02*
G37*
G36*
X681950D02*
X679144Y1131473D01*
X676529Y1130390D01*
X674283Y1128667D01*
X672560Y1126422D01*
X671477Y1123806D01*
X671107Y1121000D01*
X671477Y1118194D01*
X672560Y1115579D01*
X674283Y1113333D01*
X676529Y1111610D01*
X679144Y1110527D01*
X681950Y1110157D01*
X684756Y1110527D01*
X687371Y1111610D01*
X689617Y1113333D01*
X691340Y1115579D01*
X692423Y1118194D01*
X692793Y1121000D01*
X692423Y1123806D01*
X691340Y1126422D01*
X689617Y1128667D01*
X687371Y1130390D01*
X684756Y1131473D01*
X681950Y1131843D01*
D02*
G37*
G36*
X736950D02*
X734144Y1131473D01*
X731529Y1130390D01*
X729283Y1128667D01*
X727560Y1126422D01*
X726477Y1123806D01*
X726107Y1121000D01*
X726477Y1118194D01*
X727560Y1115579D01*
X729283Y1113333D01*
X731529Y1111610D01*
X734144Y1110527D01*
X736950Y1110157D01*
X739756Y1110527D01*
X742371Y1111610D01*
X744617Y1113333D01*
X746340Y1115579D01*
X747423Y1118194D01*
X747793Y1121000D01*
X747423Y1123806D01*
X746340Y1126422D01*
X744617Y1128667D01*
X742371Y1130390D01*
X739756Y1131473D01*
X736950Y1131843D01*
D02*
G37*
G36*
X706950D02*
X704144Y1131473D01*
X701529Y1130390D01*
X699283Y1128667D01*
X697560Y1126422D01*
X696477Y1123806D01*
X696107Y1121000D01*
X696477Y1118194D01*
X697560Y1115579D01*
X699283Y1113333D01*
X701529Y1111610D01*
X704144Y1110527D01*
X706950Y1110157D01*
X709756Y1110527D01*
X712371Y1111610D01*
X714617Y1113333D01*
X716340Y1115579D01*
X717423Y1118194D01*
X717793Y1121000D01*
X717423Y1123806D01*
X716340Y1126422D01*
X714617Y1128667D01*
X712371Y1130390D01*
X709756Y1131473D01*
X706950Y1131843D01*
D02*
G37*
G36*
X802868Y1141000D02*
X781032D01*
X781468Y1139948D01*
X783391Y1137442D01*
X785898Y1135518D01*
X788817Y1134309D01*
X790097Y1134141D01*
Y1132860D01*
X788817Y1132691D01*
X785898Y1131482D01*
X783391Y1129559D01*
X781468Y1127052D01*
X781032Y1126000D01*
X802868D01*
X802432Y1127052D01*
X800508Y1129559D01*
X798002Y1131482D01*
X795083Y1132691D01*
X793803Y1132860D01*
Y1134141D01*
X795083Y1134309D01*
X798002Y1135518D01*
X800508Y1137442D01*
X802432Y1139948D01*
X802868Y1141000D01*
D02*
G37*
G36*
X772868D02*
X751032D01*
X751468Y1139948D01*
X753391Y1137442D01*
X755898Y1135518D01*
X758817Y1134309D01*
X760097Y1134141D01*
Y1132860D01*
X758817Y1132691D01*
X755898Y1131482D01*
X753391Y1129559D01*
X751468Y1127052D01*
X751032Y1126000D01*
X772868D01*
X772432Y1127052D01*
X770508Y1129559D01*
X768002Y1131482D01*
X765083Y1132691D01*
X763803Y1132860D01*
Y1134141D01*
X765083Y1134309D01*
X768002Y1135518D01*
X770508Y1137442D01*
X772432Y1139948D01*
X772868Y1141000D01*
D02*
G37*
G36*
X179350Y1156843D02*
X176544Y1156473D01*
X173929Y1155390D01*
X171683Y1153667D01*
X169960Y1151422D01*
X168877Y1148806D01*
X168507Y1146000D01*
X168877Y1143194D01*
X169960Y1140579D01*
X171683Y1138333D01*
X173929Y1136610D01*
X176544Y1135527D01*
X179350Y1135157D01*
X182156Y1135527D01*
X184771Y1136610D01*
X187017Y1138333D01*
X188740Y1140579D01*
X189823Y1143194D01*
X190193Y1146000D01*
X189823Y1148806D01*
X188740Y1151422D01*
X187017Y1153667D01*
X184771Y1155390D01*
X182156Y1156473D01*
X179350Y1156843D01*
D02*
G37*
G36*
X234350D02*
X231544Y1156473D01*
X228929Y1155390D01*
X226683Y1153667D01*
X224960Y1151422D01*
X223877Y1148806D01*
X223507Y1146000D01*
X223877Y1143194D01*
X224960Y1140579D01*
X226683Y1138333D01*
X228929Y1136610D01*
X231544Y1135527D01*
X234350Y1135157D01*
X237156Y1135527D01*
X239771Y1136610D01*
X242017Y1138333D01*
X243740Y1140579D01*
X244823Y1143194D01*
X245193Y1146000D01*
X244823Y1148806D01*
X243740Y1151422D01*
X242017Y1153667D01*
X239771Y1155390D01*
X237156Y1156473D01*
X234350Y1156843D01*
D02*
G37*
G36*
X209350D02*
X206544Y1156473D01*
X203929Y1155390D01*
X201683Y1153667D01*
X199960Y1151422D01*
X198877Y1148806D01*
X198507Y1146000D01*
X198877Y1143194D01*
X199960Y1140579D01*
X201683Y1138333D01*
X203929Y1136610D01*
X206544Y1135527D01*
X209350Y1135157D01*
X212156Y1135527D01*
X214771Y1136610D01*
X217017Y1138333D01*
X218740Y1140579D01*
X219823Y1143194D01*
X220193Y1146000D01*
X219823Y1148806D01*
X218740Y1151422D01*
X217017Y1153667D01*
X214771Y1155390D01*
X212156Y1156473D01*
X209350Y1156843D01*
D02*
G37*
G36*
X392850Y1141643D02*
X390044Y1141273D01*
X387429Y1140190D01*
X385183Y1138467D01*
X383460Y1136221D01*
X382377Y1133606D01*
X382007Y1130800D01*
X382377Y1127994D01*
X383460Y1125379D01*
X385183Y1123133D01*
X387429Y1121410D01*
X390044Y1120327D01*
X392850Y1119957D01*
X395656Y1120327D01*
X398271Y1121410D01*
X400517Y1123133D01*
X402240Y1125379D01*
X403323Y1127994D01*
X403693Y1130800D01*
X403323Y1133606D01*
X402240Y1136221D01*
X400517Y1138467D01*
X398271Y1140190D01*
X395656Y1141273D01*
X392850Y1141643D01*
D02*
G37*
G36*
X367450D02*
X364644Y1141273D01*
X362029Y1140190D01*
X359783Y1138467D01*
X358060Y1136221D01*
X356977Y1133606D01*
X356607Y1130800D01*
X356977Y1127994D01*
X358060Y1125379D01*
X359783Y1123133D01*
X362029Y1121410D01*
X364644Y1120327D01*
X367450Y1119957D01*
X370256Y1120327D01*
X372871Y1121410D01*
X375117Y1123133D01*
X376840Y1125379D01*
X377923Y1127994D01*
X378293Y1130800D01*
X377923Y1133606D01*
X376840Y1136221D01*
X375117Y1138467D01*
X372871Y1140190D01*
X370256Y1141273D01*
X367450Y1141643D01*
D02*
G37*
G36*
X418250D02*
X415444Y1141273D01*
X412829Y1140190D01*
X410583Y1138467D01*
X408860Y1136221D01*
X407777Y1133606D01*
X407407Y1130800D01*
X407777Y1127994D01*
X408860Y1125379D01*
X410583Y1123133D01*
X412829Y1121410D01*
X415444Y1120327D01*
X418250Y1119957D01*
X421056Y1120327D01*
X423671Y1121410D01*
X425917Y1123133D01*
X427640Y1125379D01*
X428723Y1127994D01*
X429093Y1130800D01*
X428723Y1133606D01*
X427640Y1136221D01*
X425917Y1138467D01*
X423671Y1140190D01*
X421056Y1141273D01*
X418250Y1141643D01*
D02*
G37*
G36*
X135268Y1141000D02*
X113432D01*
X113868Y1139948D01*
X115792Y1137442D01*
X118298Y1135518D01*
X121217Y1134309D01*
X122497Y1134141D01*
Y1132860D01*
X121217Y1132691D01*
X118298Y1131482D01*
X115792Y1129559D01*
X113868Y1127052D01*
X113432Y1126000D01*
X135268D01*
X134832Y1127052D01*
X132908Y1129559D01*
X130402Y1131482D01*
X127483Y1132691D01*
X126203Y1132860D01*
Y1134141D01*
X127483Y1134309D01*
X130402Y1135518D01*
X132908Y1137442D01*
X134832Y1139948D01*
X135268Y1141000D01*
D02*
G37*
G36*
X443650Y1141643D02*
X440844Y1141273D01*
X438229Y1140190D01*
X435983Y1138467D01*
X434260Y1136221D01*
X433177Y1133606D01*
X432807Y1130800D01*
X433177Y1127994D01*
X434260Y1125379D01*
X435983Y1123133D01*
X438229Y1121410D01*
X440844Y1120327D01*
X443650Y1119957D01*
X446456Y1120327D01*
X449071Y1121410D01*
X451317Y1123133D01*
X453040Y1125379D01*
X454123Y1127994D01*
X454493Y1130800D01*
X454123Y1133606D01*
X453040Y1136221D01*
X451317Y1138467D01*
X449071Y1140190D01*
X446456Y1141273D01*
X443650Y1141643D01*
D02*
G37*
G36*
X651950Y1106843D02*
X649144Y1106473D01*
X646529Y1105390D01*
X644283Y1103667D01*
X642560Y1101422D01*
X641477Y1098806D01*
X641107Y1096000D01*
X641477Y1093194D01*
X642560Y1090579D01*
X644283Y1088333D01*
X646529Y1086610D01*
X649144Y1085527D01*
X651950Y1085157D01*
X654756Y1085527D01*
X657371Y1086610D01*
X659617Y1088333D01*
X661340Y1090579D01*
X662423Y1093194D01*
X662793Y1096000D01*
X662423Y1098806D01*
X661340Y1101422D01*
X659617Y1103667D01*
X657371Y1105390D01*
X654756Y1106473D01*
X651950Y1106843D01*
D02*
G37*
G36*
X626950D02*
X624144Y1106473D01*
X621529Y1105390D01*
X619283Y1103667D01*
X617560Y1101422D01*
X616477Y1098806D01*
X616107Y1096000D01*
X616477Y1093194D01*
X617560Y1090579D01*
X619283Y1088333D01*
X621529Y1086610D01*
X624144Y1085527D01*
X626950Y1085157D01*
X629756Y1085527D01*
X632371Y1086610D01*
X634617Y1088333D01*
X636340Y1090579D01*
X637423Y1093194D01*
X637793Y1096000D01*
X637423Y1098806D01*
X636340Y1101422D01*
X634617Y1103667D01*
X632371Y1105390D01*
X629756Y1106473D01*
X626950Y1106843D01*
D02*
G37*
G36*
X681950D02*
X679144Y1106473D01*
X676529Y1105390D01*
X674283Y1103667D01*
X672560Y1101422D01*
X671477Y1098806D01*
X671107Y1096000D01*
X671477Y1093194D01*
X672560Y1090579D01*
X674283Y1088333D01*
X676529Y1086610D01*
X679144Y1085527D01*
X681950Y1085157D01*
X684756Y1085527D01*
X687371Y1086610D01*
X689617Y1088333D01*
X691340Y1090579D01*
X692423Y1093194D01*
X692793Y1096000D01*
X692423Y1098806D01*
X691340Y1101422D01*
X689617Y1103667D01*
X687371Y1105390D01*
X684756Y1106473D01*
X681950Y1106843D01*
D02*
G37*
G36*
X736950D02*
X734144Y1106473D01*
X731529Y1105390D01*
X729283Y1103667D01*
X727560Y1101422D01*
X726477Y1098806D01*
X726107Y1096000D01*
X726477Y1093194D01*
X727560Y1090579D01*
X729283Y1088333D01*
X731529Y1086610D01*
X734144Y1085527D01*
X736950Y1085157D01*
X739756Y1085527D01*
X742371Y1086610D01*
X744617Y1088333D01*
X746340Y1090579D01*
X747423Y1093194D01*
X747793Y1096000D01*
X747423Y1098806D01*
X746340Y1101422D01*
X744617Y1103667D01*
X742371Y1105390D01*
X739756Y1106473D01*
X736950Y1106843D01*
D02*
G37*
G36*
X706950D02*
X704144Y1106473D01*
X701529Y1105390D01*
X699283Y1103667D01*
X697560Y1101422D01*
X696477Y1098806D01*
X696107Y1096000D01*
X696477Y1093194D01*
X697560Y1090579D01*
X699283Y1088333D01*
X701529Y1086610D01*
X704144Y1085527D01*
X706950Y1085157D01*
X709756Y1085527D01*
X712371Y1086610D01*
X714617Y1088333D01*
X716340Y1090579D01*
X717423Y1093194D01*
X717793Y1096000D01*
X717423Y1098806D01*
X716340Y1101422D01*
X714617Y1103667D01*
X712371Y1105390D01*
X709756Y1106473D01*
X706950Y1106843D01*
D02*
G37*
G36*
X772868Y1091000D02*
X751032D01*
X751468Y1089948D01*
X753391Y1087442D01*
X755898Y1085518D01*
X758817Y1084309D01*
X760097Y1084141D01*
Y1082860D01*
X758817Y1082691D01*
X755898Y1081482D01*
X753391Y1079559D01*
X751468Y1077052D01*
X751032Y1076000D01*
X772868D01*
X772432Y1077052D01*
X770508Y1079559D01*
X768002Y1081482D01*
X765083Y1082691D01*
X763803Y1082860D01*
Y1084141D01*
X765083Y1084309D01*
X768002Y1085518D01*
X770508Y1087442D01*
X772432Y1089948D01*
X772868Y1091000D01*
D02*
G37*
G36*
X706950Y1081843D02*
X704144Y1081473D01*
X701529Y1080390D01*
X699283Y1078667D01*
X697560Y1076422D01*
X696477Y1073806D01*
X696107Y1071000D01*
X696477Y1068194D01*
X697560Y1065579D01*
X699283Y1063333D01*
X701529Y1061610D01*
X704144Y1060527D01*
X706950Y1060157D01*
X709756Y1060527D01*
X712371Y1061610D01*
X714617Y1063333D01*
X716340Y1065579D01*
X717423Y1068194D01*
X717793Y1071000D01*
X717423Y1073806D01*
X716340Y1076422D01*
X714617Y1078667D01*
X712371Y1080390D01*
X709756Y1081473D01*
X706950Y1081843D01*
D02*
G37*
G36*
X802868Y1091000D02*
X781032D01*
X781468Y1089948D01*
X783391Y1087442D01*
X785898Y1085518D01*
X788817Y1084309D01*
X790097Y1084141D01*
Y1082860D01*
X788817Y1082691D01*
X785898Y1081482D01*
X783391Y1079559D01*
X781468Y1077052D01*
X781032Y1076000D01*
X802868D01*
X802432Y1077052D01*
X800508Y1079559D01*
X798002Y1081482D01*
X795083Y1082691D01*
X793803Y1082860D01*
Y1084141D01*
X795083Y1084309D01*
X798002Y1085518D01*
X800508Y1087442D01*
X802432Y1089948D01*
X802868Y1091000D01*
D02*
G37*
G36*
X596950Y1106843D02*
X594144Y1106473D01*
X591529Y1105390D01*
X589283Y1103667D01*
X587560Y1101422D01*
X586477Y1098806D01*
X586107Y1096000D01*
X586477Y1093194D01*
X587560Y1090579D01*
X589283Y1088333D01*
X591529Y1086610D01*
X594144Y1085527D01*
X596950Y1085157D01*
X599756Y1085527D01*
X602371Y1086610D01*
X604617Y1088333D01*
X606340Y1090579D01*
X607423Y1093194D01*
X607793Y1096000D01*
X607423Y1098806D01*
X606340Y1101422D01*
X604617Y1103667D01*
X602371Y1105390D01*
X599756Y1106473D01*
X596950Y1106843D01*
D02*
G37*
G36*
X319350D02*
X316544Y1106473D01*
X313929Y1105390D01*
X311683Y1103667D01*
X309960Y1101422D01*
X308877Y1098806D01*
X308507Y1096000D01*
X308877Y1093194D01*
X309960Y1090579D01*
X311683Y1088333D01*
X313929Y1086610D01*
X316544Y1085527D01*
X319350Y1085157D01*
X322156Y1085527D01*
X324771Y1086610D01*
X327017Y1088333D01*
X328740Y1090579D01*
X329823Y1093194D01*
X330193Y1096000D01*
X329823Y1098806D01*
X328740Y1101422D01*
X327017Y1103667D01*
X324771Y1105390D01*
X322156Y1106473D01*
X319350Y1106843D01*
D02*
G37*
G36*
X802868Y1116000D02*
X781032D01*
X781468Y1114948D01*
X783391Y1112442D01*
X785898Y1110518D01*
X788817Y1109309D01*
X790097Y1109141D01*
Y1107860D01*
X788817Y1107691D01*
X785898Y1106482D01*
X783391Y1104559D01*
X781468Y1102052D01*
X781032Y1101000D01*
X802868D01*
X802432Y1102052D01*
X800508Y1104559D01*
X798002Y1106482D01*
X795083Y1107691D01*
X793803Y1107860D01*
Y1109141D01*
X795083Y1109309D01*
X798002Y1110518D01*
X800508Y1112442D01*
X802432Y1114948D01*
X802868Y1116000D01*
D02*
G37*
G36*
X772868D02*
X751032D01*
X751468Y1114948D01*
X753391Y1112442D01*
X755898Y1110518D01*
X758817Y1109309D01*
X760097Y1109141D01*
Y1107860D01*
X758817Y1107691D01*
X755898Y1106482D01*
X753391Y1104559D01*
X751468Y1102052D01*
X751032Y1101000D01*
X772868D01*
X772432Y1102052D01*
X770508Y1104559D01*
X768002Y1106482D01*
X765083Y1107691D01*
X763803Y1107860D01*
Y1109141D01*
X765083Y1109309D01*
X768002Y1110518D01*
X770508Y1112442D01*
X772432Y1114948D01*
X772868Y1116000D01*
D02*
G37*
G36*
X289350Y1131843D02*
X286544Y1131473D01*
X283929Y1130390D01*
X281683Y1128667D01*
X279960Y1126422D01*
X278877Y1123806D01*
X278507Y1121000D01*
X278877Y1118194D01*
X279960Y1115579D01*
X281683Y1113333D01*
X283929Y1111610D01*
X286544Y1110527D01*
X289350Y1110157D01*
X292156Y1110527D01*
X294771Y1111610D01*
X297017Y1113333D01*
X298740Y1115579D01*
X299823Y1118194D01*
X300193Y1121000D01*
X299823Y1123806D01*
X298740Y1126422D01*
X297017Y1128667D01*
X294771Y1130390D01*
X292156Y1131473D01*
X289350Y1131843D01*
D02*
G37*
G36*
X596950D02*
X594144Y1131473D01*
X591529Y1130390D01*
X589283Y1128667D01*
X587560Y1126422D01*
X586477Y1123806D01*
X586107Y1121000D01*
X586477Y1118194D01*
X587560Y1115579D01*
X589283Y1113333D01*
X591529Y1111610D01*
X594144Y1110527D01*
X596950Y1110157D01*
X599756Y1110527D01*
X602371Y1111610D01*
X604617Y1113333D01*
X606340Y1115579D01*
X607423Y1118194D01*
X607793Y1121000D01*
X607423Y1123806D01*
X606340Y1126422D01*
X604617Y1128667D01*
X602371Y1130390D01*
X599756Y1131473D01*
X596950Y1131843D01*
D02*
G37*
G36*
X319350D02*
X316544Y1131473D01*
X313929Y1130390D01*
X311683Y1128667D01*
X309960Y1126422D01*
X308877Y1123806D01*
X308507Y1121000D01*
X308877Y1118194D01*
X309960Y1115579D01*
X311683Y1113333D01*
X313929Y1111610D01*
X316544Y1110527D01*
X319350Y1110157D01*
X322156Y1110527D01*
X324771Y1111610D01*
X327017Y1113333D01*
X328740Y1115579D01*
X329823Y1118194D01*
X330193Y1121000D01*
X329823Y1123806D01*
X328740Y1126422D01*
X327017Y1128667D01*
X324771Y1130390D01*
X322156Y1131473D01*
X319350Y1131843D01*
D02*
G37*
G36*
X443650Y1116243D02*
X440844Y1115873D01*
X438229Y1114790D01*
X435983Y1113067D01*
X434260Y1110822D01*
X433177Y1108206D01*
X432807Y1105400D01*
X433177Y1102594D01*
X434260Y1099979D01*
X435983Y1097733D01*
X438229Y1096010D01*
X440844Y1094927D01*
X443650Y1094557D01*
X446456Y1094927D01*
X449071Y1096010D01*
X451317Y1097733D01*
X453040Y1099979D01*
X454123Y1102594D01*
X454493Y1105400D01*
X454123Y1108206D01*
X453040Y1110822D01*
X451317Y1113067D01*
X449071Y1114790D01*
X446456Y1115873D01*
X443650Y1116243D01*
D02*
G37*
G36*
X418250D02*
X415444Y1115873D01*
X412829Y1114790D01*
X410583Y1113067D01*
X408860Y1110822D01*
X407777Y1108206D01*
X407407Y1105400D01*
X407777Y1102594D01*
X408860Y1099979D01*
X410583Y1097733D01*
X412829Y1096010D01*
X415444Y1094927D01*
X418250Y1094557D01*
X421056Y1094927D01*
X423671Y1096010D01*
X425917Y1097733D01*
X427640Y1099979D01*
X428723Y1102594D01*
X429093Y1105400D01*
X428723Y1108206D01*
X427640Y1110822D01*
X425917Y1113067D01*
X423671Y1114790D01*
X421056Y1115873D01*
X418250Y1116243D01*
D02*
G37*
G36*
X469050D02*
X466244Y1115873D01*
X463629Y1114790D01*
X461383Y1113067D01*
X459660Y1110822D01*
X458577Y1108206D01*
X458207Y1105400D01*
X458577Y1102594D01*
X459660Y1099979D01*
X461383Y1097733D01*
X463629Y1096010D01*
X466244Y1094927D01*
X469050Y1094557D01*
X471856Y1094927D01*
X474471Y1096010D01*
X476717Y1097733D01*
X478440Y1099979D01*
X479523Y1102594D01*
X479893Y1105400D01*
X479523Y1108206D01*
X478440Y1110822D01*
X476717Y1113067D01*
X474471Y1114790D01*
X471856Y1115873D01*
X469050Y1116243D01*
D02*
G37*
G36*
X846950Y1145084D02*
X842252Y1144621D01*
X837734Y1143250D01*
X833570Y1141025D01*
X829920Y1138030D01*
X826925Y1134380D01*
X824700Y1130217D01*
X823329Y1125699D01*
X822867Y1121000D01*
X823329Y1116302D01*
X824700Y1111784D01*
X826925Y1107620D01*
X829920Y1103971D01*
X833570Y1100975D01*
X837734Y1098750D01*
X842252Y1097379D01*
X846950Y1096917D01*
X851648Y1097379D01*
X856166Y1098750D01*
X860330Y1100975D01*
X863980Y1103971D01*
X866975Y1107620D01*
X869200Y1111784D01*
X870571Y1116302D01*
X871033Y1121000D01*
X870571Y1125699D01*
X869200Y1130217D01*
X866975Y1134380D01*
X863980Y1138030D01*
X860330Y1141025D01*
X856166Y1143250D01*
X851648Y1144621D01*
X846950Y1145084D01*
D02*
G37*
G36*
X69350D02*
X64652Y1144621D01*
X60134Y1143250D01*
X55970Y1141025D01*
X52320Y1138030D01*
X49325Y1134380D01*
X47100Y1130217D01*
X45729Y1125699D01*
X45267Y1121000D01*
X45729Y1116302D01*
X47100Y1111784D01*
X49325Y1107620D01*
X52320Y1103971D01*
X55970Y1100975D01*
X60134Y1098750D01*
X64652Y1097379D01*
X69350Y1096917D01*
X74048Y1097379D01*
X78566Y1098750D01*
X82730Y1100975D01*
X86380Y1103971D01*
X89375Y1107620D01*
X91600Y1111784D01*
X92971Y1116302D01*
X93433Y1121000D01*
X92971Y1125699D01*
X91600Y1130217D01*
X89375Y1134380D01*
X86380Y1138030D01*
X82730Y1141025D01*
X78566Y1143250D01*
X74048Y1144621D01*
X69350Y1145084D01*
D02*
G37*
G36*
X264350Y1156843D02*
X261544Y1156473D01*
X258929Y1155390D01*
X256683Y1153667D01*
X254960Y1151422D01*
X253877Y1148806D01*
X253507Y1146000D01*
X253877Y1143194D01*
X254960Y1140579D01*
X256683Y1138333D01*
X258929Y1136610D01*
X261544Y1135527D01*
X264350Y1135157D01*
X267156Y1135527D01*
X269771Y1136610D01*
X272017Y1138333D01*
X273740Y1140579D01*
X274823Y1143194D01*
X275193Y1146000D01*
X274823Y1148806D01*
X273740Y1151422D01*
X272017Y1153667D01*
X269771Y1155390D01*
X267156Y1156473D01*
X264350Y1156843D01*
D02*
G37*
G36*
X596950Y1181843D02*
X594144Y1181473D01*
X591529Y1180390D01*
X589283Y1178667D01*
X587560Y1176422D01*
X586477Y1173806D01*
X586107Y1171000D01*
X586477Y1168194D01*
X587560Y1165579D01*
X589283Y1163333D01*
X591529Y1161610D01*
X594144Y1160527D01*
X596950Y1160157D01*
X599756Y1160527D01*
X602371Y1161610D01*
X604617Y1163333D01*
X606340Y1165579D01*
X607423Y1168194D01*
X607793Y1171000D01*
X607423Y1173806D01*
X606340Y1176422D01*
X604617Y1178667D01*
X602371Y1180390D01*
X599756Y1181473D01*
X596950Y1181843D01*
D02*
G37*
G36*
X319350D02*
X316544Y1181473D01*
X313929Y1180390D01*
X311683Y1178667D01*
X309960Y1176422D01*
X308877Y1173806D01*
X308507Y1171000D01*
X308877Y1168194D01*
X309960Y1165579D01*
X311683Y1163333D01*
X313929Y1161610D01*
X316544Y1160527D01*
X319350Y1160157D01*
X322156Y1160527D01*
X324771Y1161610D01*
X327017Y1163333D01*
X328740Y1165579D01*
X329823Y1168194D01*
X330193Y1171000D01*
X329823Y1173806D01*
X328740Y1176422D01*
X327017Y1178667D01*
X324771Y1180390D01*
X322156Y1181473D01*
X319350Y1181843D01*
D02*
G37*
G36*
X626950D02*
X624144Y1181473D01*
X621529Y1180390D01*
X619283Y1178667D01*
X617560Y1176422D01*
X616477Y1173806D01*
X616107Y1171000D01*
X616477Y1168194D01*
X617560Y1165579D01*
X619283Y1163333D01*
X621529Y1161610D01*
X624144Y1160527D01*
X626950Y1160157D01*
X629756Y1160527D01*
X632371Y1161610D01*
X634617Y1163333D01*
X636340Y1165579D01*
X637423Y1168194D01*
X637793Y1171000D01*
X637423Y1173806D01*
X636340Y1176422D01*
X634617Y1178667D01*
X632371Y1180390D01*
X629756Y1181473D01*
X626950Y1181843D01*
D02*
G37*
G36*
X681950D02*
X679144Y1181473D01*
X676529Y1180390D01*
X674283Y1178667D01*
X672560Y1176422D01*
X671477Y1173806D01*
X671107Y1171000D01*
X671477Y1168194D01*
X672560Y1165579D01*
X674283Y1163333D01*
X676529Y1161610D01*
X679144Y1160527D01*
X681950Y1160157D01*
X684756Y1160527D01*
X687371Y1161610D01*
X689617Y1163333D01*
X691340Y1165579D01*
X692423Y1168194D01*
X692793Y1171000D01*
X692423Y1173806D01*
X691340Y1176422D01*
X689617Y1178667D01*
X687371Y1180390D01*
X684756Y1181473D01*
X681950Y1181843D01*
D02*
G37*
G36*
X651950D02*
X649144Y1181473D01*
X646529Y1180390D01*
X644283Y1178667D01*
X642560Y1176422D01*
X641477Y1173806D01*
X641107Y1171000D01*
X641477Y1168194D01*
X642560Y1165579D01*
X644283Y1163333D01*
X646529Y1161610D01*
X649144Y1160527D01*
X651950Y1160157D01*
X654756Y1160527D01*
X657371Y1161610D01*
X659617Y1163333D01*
X661340Y1165579D01*
X662423Y1168194D01*
X662793Y1171000D01*
X662423Y1173806D01*
X661340Y1176422D01*
X659617Y1178667D01*
X657371Y1180390D01*
X654756Y1181473D01*
X651950Y1181843D01*
D02*
G37*
G36*
X209350D02*
X206544Y1181473D01*
X203929Y1180390D01*
X201683Y1178667D01*
X199960Y1176422D01*
X198877Y1173806D01*
X198507Y1171000D01*
X198877Y1168194D01*
X199960Y1165579D01*
X201683Y1163333D01*
X203929Y1161610D01*
X206544Y1160527D01*
X209350Y1160157D01*
X212156Y1160527D01*
X214771Y1161610D01*
X217017Y1163333D01*
X218740Y1165579D01*
X219823Y1168194D01*
X220193Y1171000D01*
X219823Y1173806D01*
X218740Y1176422D01*
X217017Y1178667D01*
X214771Y1180390D01*
X212156Y1181473D01*
X209350Y1181843D01*
D02*
G37*
G36*
X179350D02*
X176544Y1181473D01*
X173929Y1180390D01*
X171683Y1178667D01*
X169960Y1176422D01*
X168877Y1173806D01*
X168507Y1171000D01*
X168877Y1168194D01*
X169960Y1165579D01*
X171683Y1163333D01*
X173929Y1161610D01*
X176544Y1160527D01*
X179350Y1160157D01*
X182156Y1160527D01*
X184771Y1161610D01*
X187017Y1163333D01*
X188740Y1165579D01*
X189823Y1168194D01*
X190193Y1171000D01*
X189823Y1173806D01*
X188740Y1176422D01*
X187017Y1178667D01*
X184771Y1180390D01*
X182156Y1181473D01*
X179350Y1181843D01*
D02*
G37*
G36*
X234350D02*
X231544Y1181473D01*
X228929Y1180390D01*
X226683Y1178667D01*
X224960Y1176422D01*
X223877Y1173806D01*
X223507Y1171000D01*
X223877Y1168194D01*
X224960Y1165579D01*
X226683Y1163333D01*
X228929Y1161610D01*
X231544Y1160527D01*
X234350Y1160157D01*
X237156Y1160527D01*
X239771Y1161610D01*
X242017Y1163333D01*
X243740Y1165579D01*
X244823Y1168194D01*
X245193Y1171000D01*
X244823Y1173806D01*
X243740Y1176422D01*
X242017Y1178667D01*
X239771Y1180390D01*
X237156Y1181473D01*
X234350Y1181843D01*
D02*
G37*
G36*
X289350D02*
X286544Y1181473D01*
X283929Y1180390D01*
X281683Y1178667D01*
X279960Y1176422D01*
X278877Y1173806D01*
X278507Y1171000D01*
X278877Y1168194D01*
X279960Y1165579D01*
X281683Y1163333D01*
X283929Y1161610D01*
X286544Y1160527D01*
X289350Y1160157D01*
X292156Y1160527D01*
X294771Y1161610D01*
X297017Y1163333D01*
X298740Y1165579D01*
X299823Y1168194D01*
X300193Y1171000D01*
X299823Y1173806D01*
X298740Y1176422D01*
X297017Y1178667D01*
X294771Y1180390D01*
X292156Y1181473D01*
X289350Y1181843D01*
D02*
G37*
G36*
X264350D02*
X261544Y1181473D01*
X258929Y1180390D01*
X256683Y1178667D01*
X254960Y1176422D01*
X253877Y1173806D01*
X253507Y1171000D01*
X253877Y1168194D01*
X254960Y1165579D01*
X256683Y1163333D01*
X258929Y1161610D01*
X261544Y1160527D01*
X264350Y1160157D01*
X267156Y1160527D01*
X269771Y1161610D01*
X272017Y1163333D01*
X273740Y1165579D01*
X274823Y1168194D01*
X275193Y1171000D01*
X274823Y1173806D01*
X273740Y1176422D01*
X272017Y1178667D01*
X269771Y1180390D01*
X267156Y1181473D01*
X264350Y1181843D01*
D02*
G37*
G36*
X756950Y1181918D02*
X755898Y1181482D01*
X753391Y1179559D01*
X751468Y1177052D01*
X751032Y1176000D01*
X756950D01*
Y1181918D01*
D02*
G37*
G36*
X159350D02*
Y1176000D01*
X165268D01*
X164832Y1177052D01*
X162908Y1179559D01*
X160402Y1181482D01*
X159350Y1181918D01*
D02*
G37*
G36*
X766950D02*
Y1176000D01*
X772868D01*
X772432Y1177052D01*
X770508Y1179559D01*
X768002Y1181482D01*
X766950Y1181918D01*
D02*
G37*
G36*
X796950D02*
Y1176000D01*
X802868D01*
X802432Y1177052D01*
X800508Y1179559D01*
X798002Y1181482D01*
X796950Y1181918D01*
D02*
G37*
G36*
X786950D02*
X785898Y1181482D01*
X783391Y1179559D01*
X781468Y1177052D01*
X781032Y1176000D01*
X786950D01*
Y1181918D01*
D02*
G37*
G36*
X736950Y1181843D02*
X734144Y1181473D01*
X731529Y1180390D01*
X729283Y1178667D01*
X727560Y1176422D01*
X726477Y1173806D01*
X726107Y1171000D01*
X726477Y1168194D01*
X727560Y1165579D01*
X729283Y1163333D01*
X731529Y1161610D01*
X734144Y1160527D01*
X736950Y1160157D01*
X739756Y1160527D01*
X742371Y1161610D01*
X744617Y1163333D01*
X746340Y1165579D01*
X747423Y1168194D01*
X747793Y1171000D01*
X747423Y1173806D01*
X746340Y1176422D01*
X744617Y1178667D01*
X742371Y1180390D01*
X739756Y1181473D01*
X736950Y1181843D01*
D02*
G37*
G36*
X706950D02*
X704144Y1181473D01*
X701529Y1180390D01*
X699283Y1178667D01*
X697560Y1176422D01*
X696477Y1173806D01*
X696107Y1171000D01*
X696477Y1168194D01*
X697560Y1165579D01*
X699283Y1163333D01*
X701529Y1161610D01*
X704144Y1160527D01*
X706950Y1160157D01*
X709756Y1160527D01*
X712371Y1161610D01*
X714617Y1163333D01*
X716340Y1165579D01*
X717423Y1168194D01*
X717793Y1171000D01*
X717423Y1173806D01*
X716340Y1176422D01*
X714617Y1178667D01*
X712371Y1180390D01*
X709756Y1181473D01*
X706950Y1181843D01*
D02*
G37*
G36*
X119350Y1181918D02*
X118298Y1181482D01*
X115792Y1179559D01*
X113868Y1177052D01*
X113432Y1176000D01*
X119350D01*
Y1181918D01*
D02*
G37*
G36*
X149350D02*
X148298Y1181482D01*
X145792Y1179559D01*
X143868Y1177052D01*
X143432Y1176000D01*
X149350D01*
Y1181918D01*
D02*
G37*
G36*
X129350D02*
Y1176000D01*
X135268D01*
X134832Y1177052D01*
X132908Y1179559D01*
X130402Y1181482D01*
X129350Y1181918D01*
D02*
G37*
G36*
X706950Y1156843D02*
X704144Y1156473D01*
X701529Y1155390D01*
X699283Y1153667D01*
X697560Y1151422D01*
X696477Y1148806D01*
X696107Y1146000D01*
X696477Y1143194D01*
X697560Y1140579D01*
X699283Y1138333D01*
X701529Y1136610D01*
X704144Y1135527D01*
X706950Y1135157D01*
X709756Y1135527D01*
X712371Y1136610D01*
X714617Y1138333D01*
X716340Y1140579D01*
X717423Y1143194D01*
X717793Y1146000D01*
X717423Y1148806D01*
X716340Y1151422D01*
X714617Y1153667D01*
X712371Y1155390D01*
X709756Y1156473D01*
X706950Y1156843D01*
D02*
G37*
G36*
X681950D02*
X679144Y1156473D01*
X676529Y1155390D01*
X674283Y1153667D01*
X672560Y1151422D01*
X671477Y1148806D01*
X671107Y1146000D01*
X671477Y1143194D01*
X672560Y1140579D01*
X674283Y1138333D01*
X676529Y1136610D01*
X679144Y1135527D01*
X681950Y1135157D01*
X684756Y1135527D01*
X687371Y1136610D01*
X689617Y1138333D01*
X691340Y1140579D01*
X692423Y1143194D01*
X692793Y1146000D01*
X692423Y1148806D01*
X691340Y1151422D01*
X689617Y1153667D01*
X687371Y1155390D01*
X684756Y1156473D01*
X681950Y1156843D01*
D02*
G37*
G36*
X736950D02*
X734144Y1156473D01*
X731529Y1155390D01*
X729283Y1153667D01*
X727560Y1151422D01*
X726477Y1148806D01*
X726107Y1146000D01*
X726477Y1143194D01*
X727560Y1140579D01*
X729283Y1138333D01*
X731529Y1136610D01*
X734144Y1135527D01*
X736950Y1135157D01*
X739756Y1135527D01*
X742371Y1136610D01*
X744617Y1138333D01*
X746340Y1140579D01*
X747423Y1143194D01*
X747793Y1146000D01*
X747423Y1148806D01*
X746340Y1151422D01*
X744617Y1153667D01*
X742371Y1155390D01*
X739756Y1156473D01*
X736950Y1156843D01*
D02*
G37*
G36*
X494450Y1166843D02*
X491644Y1166473D01*
X489029Y1165390D01*
X486783Y1163667D01*
X485060Y1161422D01*
X483977Y1158806D01*
X483607Y1156000D01*
X483977Y1153194D01*
X485060Y1150579D01*
X486783Y1148333D01*
X489029Y1146610D01*
X491644Y1145527D01*
X494450Y1145157D01*
X497256Y1145527D01*
X499871Y1146610D01*
X502117Y1148333D01*
X503840Y1150579D01*
X504923Y1153194D01*
X505293Y1156000D01*
X504923Y1158806D01*
X503840Y1161422D01*
X502117Y1163667D01*
X499871Y1165390D01*
X497256Y1166473D01*
X494450Y1166843D01*
D02*
G37*
G36*
X469050D02*
X466244Y1166473D01*
X463629Y1165390D01*
X461383Y1163667D01*
X459660Y1161422D01*
X458577Y1158806D01*
X458207Y1156000D01*
X458577Y1153194D01*
X459660Y1150579D01*
X461383Y1148333D01*
X463629Y1146610D01*
X466244Y1145527D01*
X469050Y1145157D01*
X471856Y1145527D01*
X474471Y1146610D01*
X476717Y1148333D01*
X478440Y1150579D01*
X479523Y1153194D01*
X479893Y1156000D01*
X479523Y1158806D01*
X478440Y1161422D01*
X476717Y1163667D01*
X474471Y1165390D01*
X471856Y1166473D01*
X469050Y1166843D01*
D02*
G37*
G36*
X319350Y1156843D02*
X316544Y1156473D01*
X313929Y1155390D01*
X311683Y1153667D01*
X309960Y1151422D01*
X308877Y1148806D01*
X308507Y1146000D01*
X308877Y1143194D01*
X309960Y1140579D01*
X311683Y1138333D01*
X313929Y1136610D01*
X316544Y1135527D01*
X319350Y1135157D01*
X322156Y1135527D01*
X324771Y1136610D01*
X327017Y1138333D01*
X328740Y1140579D01*
X329823Y1143194D01*
X330193Y1146000D01*
X329823Y1148806D01*
X328740Y1151422D01*
X327017Y1153667D01*
X324771Y1155390D01*
X322156Y1156473D01*
X319350Y1156843D01*
D02*
G37*
G36*
X289350D02*
X286544Y1156473D01*
X283929Y1155390D01*
X281683Y1153667D01*
X279960Y1151422D01*
X278877Y1148806D01*
X278507Y1146000D01*
X278877Y1143194D01*
X279960Y1140579D01*
X281683Y1138333D01*
X283929Y1136610D01*
X286544Y1135527D01*
X289350Y1135157D01*
X292156Y1135527D01*
X294771Y1136610D01*
X297017Y1138333D01*
X298740Y1140579D01*
X299823Y1143194D01*
X300193Y1146000D01*
X299823Y1148806D01*
X298740Y1151422D01*
X297017Y1153667D01*
X294771Y1155390D01*
X292156Y1156473D01*
X289350Y1156843D01*
D02*
G37*
G36*
X596950D02*
X594144Y1156473D01*
X591529Y1155390D01*
X589283Y1153667D01*
X587560Y1151422D01*
X586477Y1148806D01*
X586107Y1146000D01*
X586477Y1143194D01*
X587560Y1140579D01*
X589283Y1138333D01*
X591529Y1136610D01*
X594144Y1135527D01*
X596950Y1135157D01*
X599756Y1135527D01*
X602371Y1136610D01*
X604617Y1138333D01*
X606340Y1140579D01*
X607423Y1143194D01*
X607793Y1146000D01*
X607423Y1148806D01*
X606340Y1151422D01*
X604617Y1153667D01*
X602371Y1155390D01*
X599756Y1156473D01*
X596950Y1156843D01*
D02*
G37*
G36*
X651950D02*
X649144Y1156473D01*
X646529Y1155390D01*
X644283Y1153667D01*
X642560Y1151422D01*
X641477Y1148806D01*
X641107Y1146000D01*
X641477Y1143194D01*
X642560Y1140579D01*
X644283Y1138333D01*
X646529Y1136610D01*
X649144Y1135527D01*
X651950Y1135157D01*
X654756Y1135527D01*
X657371Y1136610D01*
X659617Y1138333D01*
X661340Y1140579D01*
X662423Y1143194D01*
X662793Y1146000D01*
X662423Y1148806D01*
X661340Y1151422D01*
X659617Y1153667D01*
X657371Y1155390D01*
X654756Y1156473D01*
X651950Y1156843D01*
D02*
G37*
G36*
X626950D02*
X624144Y1156473D01*
X621529Y1155390D01*
X619283Y1153667D01*
X617560Y1151422D01*
X616477Y1148806D01*
X616107Y1146000D01*
X616477Y1143194D01*
X617560Y1140579D01*
X619283Y1138333D01*
X621529Y1136610D01*
X624144Y1135527D01*
X626950Y1135157D01*
X629756Y1135527D01*
X632371Y1136610D01*
X634617Y1138333D01*
X636340Y1140579D01*
X637423Y1143194D01*
X637793Y1146000D01*
X637423Y1148806D01*
X636340Y1151422D01*
X634617Y1153667D01*
X632371Y1155390D01*
X629756Y1156473D01*
X626950Y1156843D01*
D02*
G37*
G36*
X135268Y1166000D02*
X113432D01*
X113868Y1164948D01*
X115792Y1162442D01*
X118298Y1160518D01*
X121217Y1159309D01*
X122497Y1159141D01*
Y1157860D01*
X121217Y1157691D01*
X118298Y1156482D01*
X115792Y1154559D01*
X113868Y1152052D01*
X113432Y1151000D01*
X135268D01*
X134832Y1152052D01*
X132908Y1154559D01*
X130402Y1156482D01*
X127483Y1157691D01*
X126203Y1157860D01*
Y1159141D01*
X127483Y1159309D01*
X130402Y1160518D01*
X132908Y1162442D01*
X134832Y1164948D01*
X135268Y1166000D01*
D02*
G37*
G36*
X443650Y1167043D02*
X440844Y1166673D01*
X438229Y1165590D01*
X435983Y1163867D01*
X434260Y1161621D01*
X433177Y1159006D01*
X432807Y1156200D01*
X433177Y1153394D01*
X434260Y1150779D01*
X435983Y1148533D01*
X438229Y1146810D01*
X440844Y1145727D01*
X443650Y1145357D01*
X446456Y1145727D01*
X449071Y1146810D01*
X451317Y1148533D01*
X453040Y1150779D01*
X454123Y1153394D01*
X454493Y1156200D01*
X454123Y1159006D01*
X453040Y1161621D01*
X451317Y1163867D01*
X449071Y1165590D01*
X446456Y1166673D01*
X443650Y1167043D01*
D02*
G37*
G36*
X165268Y1166000D02*
X143432D01*
X143868Y1164948D01*
X145792Y1162442D01*
X148298Y1160518D01*
X151217Y1159309D01*
X152497Y1159141D01*
Y1157860D01*
X151217Y1157691D01*
X148298Y1156482D01*
X145792Y1154559D01*
X143868Y1152052D01*
X143432Y1151000D01*
X165268D01*
X164832Y1152052D01*
X162908Y1154559D01*
X160402Y1156482D01*
X157483Y1157691D01*
X156203Y1157860D01*
Y1159141D01*
X157483Y1159309D01*
X160402Y1160518D01*
X162908Y1162442D01*
X164832Y1164948D01*
X165268Y1166000D01*
D02*
G37*
G36*
X802868D02*
X781032D01*
X781468Y1164948D01*
X783391Y1162442D01*
X785898Y1160518D01*
X788817Y1159309D01*
X790097Y1159141D01*
Y1157860D01*
X788817Y1157691D01*
X785898Y1156482D01*
X783391Y1154559D01*
X781468Y1152052D01*
X781032Y1151000D01*
X802868D01*
X802432Y1152052D01*
X800508Y1154559D01*
X798002Y1156482D01*
X795083Y1157691D01*
X793803Y1157860D01*
Y1159141D01*
X795083Y1159309D01*
X798002Y1160518D01*
X800508Y1162442D01*
X802432Y1164948D01*
X802868Y1166000D01*
D02*
G37*
G36*
X772868D02*
X751032D01*
X751468Y1164948D01*
X753391Y1162442D01*
X755898Y1160518D01*
X758817Y1159309D01*
X760097Y1159141D01*
Y1157860D01*
X758817Y1157691D01*
X755898Y1156482D01*
X753391Y1154559D01*
X751468Y1152052D01*
X751032Y1151000D01*
X772868D01*
X772432Y1152052D01*
X770508Y1154559D01*
X768002Y1156482D01*
X765083Y1157691D01*
X763803Y1157860D01*
Y1159141D01*
X765083Y1159309D01*
X768002Y1160518D01*
X770508Y1162442D01*
X772432Y1164948D01*
X772868Y1166000D01*
D02*
G37*
G36*
X545250Y1166843D02*
X542444Y1166473D01*
X539829Y1165390D01*
X537583Y1163667D01*
X535860Y1161422D01*
X534777Y1158806D01*
X534407Y1156000D01*
X534777Y1153194D01*
X535860Y1150579D01*
X537583Y1148333D01*
X539829Y1146610D01*
X542444Y1145527D01*
X545250Y1145157D01*
X548056Y1145527D01*
X550671Y1146610D01*
X552917Y1148333D01*
X554640Y1150579D01*
X555723Y1153194D01*
X556093Y1156000D01*
X555723Y1158806D01*
X554640Y1161422D01*
X552917Y1163667D01*
X550671Y1165390D01*
X548056Y1166473D01*
X545250Y1166843D01*
D02*
G37*
G36*
X519850D02*
X517044Y1166473D01*
X514429Y1165390D01*
X512183Y1163667D01*
X510460Y1161422D01*
X509377Y1158806D01*
X509007Y1156000D01*
X509377Y1153194D01*
X510460Y1150579D01*
X512183Y1148333D01*
X514429Y1146610D01*
X517044Y1145527D01*
X519850Y1145157D01*
X522656Y1145527D01*
X525271Y1146610D01*
X527517Y1148333D01*
X529240Y1150579D01*
X530323Y1153194D01*
X530693Y1156000D01*
X530323Y1158806D01*
X529240Y1161422D01*
X527517Y1163667D01*
X525271Y1165390D01*
X522656Y1166473D01*
X519850Y1166843D01*
D02*
G37*
G36*
X367450Y1167043D02*
X364644Y1166673D01*
X362029Y1165590D01*
X359783Y1163867D01*
X358060Y1161621D01*
X356977Y1159006D01*
X356607Y1156200D01*
X356977Y1153394D01*
X358060Y1150779D01*
X359783Y1148533D01*
X362029Y1146810D01*
X364644Y1145727D01*
X367450Y1145357D01*
X370256Y1145727D01*
X372871Y1146810D01*
X375117Y1148533D01*
X376840Y1150779D01*
X377923Y1153394D01*
X378293Y1156200D01*
X377923Y1159006D01*
X376840Y1161621D01*
X375117Y1163867D01*
X372871Y1165590D01*
X370256Y1166673D01*
X367450Y1167043D01*
D02*
G37*
G36*
X418250D02*
X415444Y1166673D01*
X412829Y1165590D01*
X410583Y1163867D01*
X408860Y1161621D01*
X407777Y1159006D01*
X407407Y1156200D01*
X407777Y1153394D01*
X408860Y1150779D01*
X410583Y1148533D01*
X412829Y1146810D01*
X415444Y1145727D01*
X418250Y1145357D01*
X421056Y1145727D01*
X423671Y1146810D01*
X425917Y1148533D01*
X427640Y1150779D01*
X428723Y1153394D01*
X429093Y1156200D01*
X428723Y1159006D01*
X427640Y1161621D01*
X425917Y1163867D01*
X423671Y1165590D01*
X421056Y1166673D01*
X418250Y1167043D01*
D02*
G37*
G36*
X392850D02*
X390044Y1166673D01*
X387429Y1165590D01*
X385183Y1163867D01*
X383460Y1161621D01*
X382377Y1159006D01*
X382007Y1156200D01*
X382377Y1153394D01*
X383460Y1150779D01*
X385183Y1148533D01*
X387429Y1146810D01*
X390044Y1145727D01*
X392850Y1145357D01*
X395656Y1145727D01*
X398271Y1146810D01*
X400517Y1148533D01*
X402240Y1150779D01*
X403323Y1153394D01*
X403693Y1156200D01*
X403323Y1159006D01*
X402240Y1161621D01*
X400517Y1163867D01*
X398271Y1165590D01*
X395656Y1166673D01*
X392850Y1167043D01*
D02*
G37*
G36*
X651950Y1081843D02*
X649144Y1081473D01*
X646529Y1080390D01*
X644283Y1078667D01*
X642560Y1076422D01*
X641477Y1073806D01*
X641107Y1071000D01*
X641477Y1068194D01*
X642560Y1065579D01*
X644283Y1063333D01*
X646529Y1061610D01*
X649144Y1060527D01*
X651950Y1060157D01*
X654756Y1060527D01*
X657371Y1061610D01*
X659617Y1063333D01*
X661340Y1065579D01*
X662423Y1068194D01*
X662793Y1071000D01*
X662423Y1073806D01*
X661340Y1076422D01*
X659617Y1078667D01*
X657371Y1080390D01*
X654756Y1081473D01*
X651950Y1081843D01*
D02*
G37*
G36*
X736250Y871500D02*
X727500D01*
Y867000D01*
X736250D01*
Y871500D01*
D02*
G37*
G36*
X850000Y866808D02*
X848238Y866576D01*
X846596Y865896D01*
X845186Y864814D01*
X844104Y863404D01*
X844066Y863314D01*
X801250D01*
Y865050D01*
X783250D01*
Y855550D01*
X801250D01*
Y856686D01*
X844066D01*
X844104Y856596D01*
X845186Y855186D01*
X846596Y854104D01*
X848238Y853424D01*
X850000Y853192D01*
X851762Y853424D01*
X853404Y854104D01*
X854814Y855186D01*
X855896Y856596D01*
X856576Y858238D01*
X856808Y860000D01*
X856576Y861762D01*
X855896Y863404D01*
X854814Y864814D01*
X853404Y865896D01*
X851762Y866576D01*
X850000Y866808D01*
D02*
G37*
G36*
X748000Y871500D02*
X739250D01*
Y867000D01*
X748000D01*
Y871500D01*
D02*
G37*
G36*
X850000Y892808D02*
X848238Y892576D01*
X846596Y891896D01*
X845186Y890814D01*
X844104Y889404D01*
X843942Y889014D01*
X801250D01*
Y890450D01*
X783250D01*
Y880950D01*
X801250D01*
Y882386D01*
X844265D01*
X845186Y881186D01*
X846596Y880104D01*
X848238Y879424D01*
X850000Y879192D01*
X851762Y879424D01*
X853404Y880104D01*
X854814Y881186D01*
X855896Y882596D01*
X856576Y884238D01*
X856808Y886000D01*
X856576Y887762D01*
X855896Y889404D01*
X854814Y890814D01*
X853404Y891896D01*
X851762Y892576D01*
X850000Y892808D01*
D02*
G37*
G36*
X746750Y890450D02*
X728750D01*
Y882754D01*
X717250D01*
Y887450D01*
X701750D01*
Y872550D01*
X717250D01*
Y877146D01*
X727500D01*
Y874500D01*
X748000D01*
Y877196D01*
X758839D01*
X765017Y871018D01*
X765017Y871017D01*
X765927Y870410D01*
X767000Y870196D01*
X767000Y870196D01*
X783250D01*
Y868250D01*
X801250D01*
Y877750D01*
X783250D01*
Y875804D01*
X768161D01*
X761983Y881983D01*
X761073Y882590D01*
X760000Y882804D01*
X746750D01*
Y890450D01*
D02*
G37*
G36*
X417500Y852872D02*
X416912Y852794D01*
X414966Y851988D01*
X413294Y850706D01*
X412012Y849035D01*
X411206Y847089D01*
X411129Y846500D01*
X417500D01*
Y852872D01*
D02*
G37*
G36*
X276500D02*
Y846500D01*
X282872D01*
X282794Y847089D01*
X281988Y849035D01*
X280706Y850706D01*
X279035Y851988D01*
X277089Y852794D01*
X276500Y852872D01*
D02*
G37*
G36*
X420500D02*
Y846500D01*
X426872D01*
X426794Y847089D01*
X425988Y849035D01*
X424706Y850706D01*
X423035Y851988D01*
X421088Y852794D01*
X420500Y852872D01*
D02*
G37*
G36*
X746750Y865050D02*
X728750D01*
Y856304D01*
X717250D01*
Y862450D01*
X701750D01*
Y847550D01*
X717250D01*
Y850696D01*
X727500D01*
Y849100D01*
X748000D01*
Y850696D01*
X760339D01*
X765417Y845617D01*
X766327Y845010D01*
X767400Y844796D01*
X783250D01*
Y842850D01*
X801250D01*
Y852350D01*
X783250D01*
Y850404D01*
X768561D01*
X763483Y855483D01*
X762573Y856090D01*
X761500Y856304D01*
X746750D01*
Y865050D01*
D02*
G37*
G36*
X530500Y857500D02*
X523000D01*
Y850300D01*
X530500D01*
Y857500D01*
D02*
G37*
G36*
X358000Y894750D02*
X346196D01*
X346305Y894202D01*
X347465Y892465D01*
X349202Y891305D01*
X351250Y890897D01*
X358000D01*
Y894750D01*
D02*
G37*
G36*
X717000Y926500D02*
X709500D01*
Y919300D01*
X717000D01*
Y926500D01*
D02*
G37*
G36*
X850000Y917808D02*
X848238Y917576D01*
X846596Y916896D01*
X845186Y915814D01*
X844111Y914414D01*
X799999D01*
X799925Y914525D01*
X798353Y915574D01*
X796500Y915943D01*
X788000D01*
X786147Y915574D01*
X784575Y914525D01*
X783526Y912953D01*
X783157Y911100D01*
X783526Y909247D01*
X784575Y907675D01*
X786147Y906626D01*
X788000Y906257D01*
X796500D01*
X798353Y906626D01*
X799925Y907675D01*
X799999Y907786D01*
X844025D01*
X844104Y907596D01*
X845186Y906186D01*
X846596Y905104D01*
X848238Y904424D01*
X850000Y904192D01*
X851762Y904424D01*
X853404Y905104D01*
X854814Y906186D01*
X855896Y907596D01*
X856576Y909238D01*
X856808Y911000D01*
X856576Y912762D01*
X855896Y914404D01*
X854814Y915814D01*
X853404Y916896D01*
X851762Y917576D01*
X850000Y917808D01*
D02*
G37*
G36*
X727500Y926500D02*
X720000D01*
Y919300D01*
X727500D01*
Y926500D01*
D02*
G37*
G36*
Y936700D02*
X720000D01*
Y929500D01*
X727500D01*
Y936700D01*
D02*
G37*
G36*
X717000D02*
X709500D01*
Y929500D01*
X717000D01*
Y936700D01*
D02*
G37*
G36*
X736250Y896900D02*
X727500D01*
Y892400D01*
X736250D01*
Y896900D01*
D02*
G37*
G36*
X372805Y894750D02*
X361000D01*
Y890897D01*
X367750D01*
X369799Y891305D01*
X371535Y892465D01*
X372696Y894202D01*
X372805Y894750D01*
D02*
G37*
G36*
X748000Y896900D02*
X739250D01*
Y892400D01*
X748000D01*
Y896900D01*
D02*
G37*
G36*
X530500Y917500D02*
X523000D01*
Y910300D01*
X530500D01*
Y917500D01*
D02*
G37*
G36*
X520000D02*
X512500D01*
Y910300D01*
X520000D01*
Y917500D01*
D02*
G37*
G36*
X273500Y852872D02*
X272912Y852794D01*
X270966Y851988D01*
X269294Y850706D01*
X268012Y849035D01*
X267206Y847089D01*
X267129Y846500D01*
X273500D01*
Y852872D01*
D02*
G37*
G36*
X581500Y767872D02*
X580912Y767794D01*
X578966Y766988D01*
X577295Y765706D01*
X576012Y764035D01*
X575206Y762088D01*
X575129Y761500D01*
X581500D01*
Y767872D01*
D02*
G37*
G36*
X661500Y767500D02*
X654000D01*
Y760300D01*
X661500D01*
Y767500D01*
D02*
G37*
G36*
X584500Y767872D02*
Y761500D01*
X590872D01*
X590794Y762088D01*
X589988Y764035D01*
X588706Y765706D01*
X587035Y766988D01*
X585089Y767794D01*
X584500Y767872D01*
D02*
G37*
G36*
X661500Y777700D02*
X654000D01*
Y770500D01*
X661500D01*
Y777700D01*
D02*
G37*
G36*
X651000D02*
X643500D01*
Y770500D01*
X651000D01*
Y777700D01*
D02*
G37*
G36*
X608000Y756808D02*
X606238Y756576D01*
X604596Y755896D01*
X603186Y754814D01*
X602104Y753404D01*
X601424Y751762D01*
X601192Y750000D01*
X601424Y748238D01*
X601461Y748148D01*
X596628Y743314D01*
X590250D01*
Y747450D01*
X574750D01*
Y732550D01*
X579186D01*
Y665873D01*
X543657Y630343D01*
X542939Y629268D01*
X542687Y628000D01*
Y608934D01*
X542596Y608896D01*
X541186Y607814D01*
X540104Y606404D01*
X539424Y604762D01*
X539192Y603000D01*
X539424Y601238D01*
X540104Y599596D01*
X541186Y598186D01*
X541971Y597584D01*
X541540Y596314D01*
X528250D01*
Y600450D01*
X512750D01*
Y585550D01*
X528250D01*
Y589687D01*
X542686D01*
Y345211D01*
X541416Y344780D01*
X540272Y346272D01*
X537556Y348356D01*
X534394Y349665D01*
X532500Y349915D01*
Y337000D01*
Y324085D01*
X534394Y324335D01*
X537556Y325645D01*
X540272Y327728D01*
X541416Y329220D01*
X542686Y328789D01*
Y319198D01*
X542186Y318814D01*
X541104Y317404D01*
X540424Y315762D01*
X540192Y314000D01*
X540424Y312238D01*
X540461Y312148D01*
X535628Y307314D01*
X529250D01*
Y311450D01*
X513750D01*
Y296550D01*
X529250D01*
Y300686D01*
X537000D01*
X538268Y300939D01*
X539343Y301657D01*
X545148Y307461D01*
X545238Y307424D01*
X547000Y307192D01*
X548762Y307424D01*
X550404Y308104D01*
X551814Y309186D01*
X552896Y310596D01*
X553576Y312238D01*
X553808Y314000D01*
X553576Y315762D01*
X552896Y317404D01*
X551814Y318814D01*
X550404Y319896D01*
X549314Y320348D01*
Y593000D01*
X549314Y593000D01*
Y597067D01*
X549404Y597104D01*
X550814Y598186D01*
X551896Y599596D01*
X552576Y601238D01*
X552808Y603000D01*
X552576Y604762D01*
X551896Y606404D01*
X550814Y607814D01*
X549404Y608896D01*
X549314Y608934D01*
Y626628D01*
X584843Y662157D01*
X585562Y663232D01*
X585814Y664500D01*
Y732550D01*
X590250D01*
Y736686D01*
X598000D01*
X599268Y736939D01*
X600343Y737657D01*
X606148Y743461D01*
X606238Y743424D01*
X608000Y743192D01*
X609762Y743424D01*
X611404Y744104D01*
X612814Y745186D01*
X613896Y746596D01*
X614576Y748238D01*
X614808Y750000D01*
X614576Y751762D01*
X613896Y753404D01*
X612814Y754814D01*
X611404Y755896D01*
X609762Y756576D01*
X608000Y756808D01*
D02*
G37*
G36*
X641250Y776450D02*
X625750D01*
Y761550D01*
X629686D01*
Y755934D01*
X629596Y755896D01*
X628186Y754814D01*
X627104Y753404D01*
X626424Y751762D01*
X626192Y750000D01*
X626424Y748238D01*
X627104Y746596D01*
X628186Y745186D01*
X629596Y744104D01*
X631238Y743424D01*
X633000Y743192D01*
X634762Y743424D01*
X636404Y744104D01*
X637814Y745186D01*
X638896Y746596D01*
X639576Y748238D01*
X639808Y750000D01*
X639576Y751762D01*
X638896Y753404D01*
X637814Y754814D01*
X636404Y755896D01*
X636314Y755934D01*
Y761550D01*
X641250D01*
Y776450D01*
D02*
G37*
G36*
X581500Y758500D02*
X575129D01*
X575206Y757912D01*
X576012Y755966D01*
X577295Y754295D01*
X578966Y753012D01*
X580912Y752206D01*
X581500Y752129D01*
Y758500D01*
D02*
G37*
G36*
X651000Y767500D02*
X643500D01*
Y760300D01*
X651000D01*
Y767500D01*
D02*
G37*
G36*
X590872Y758500D02*
X584500D01*
Y752129D01*
X585089Y752206D01*
X587035Y753012D01*
X588706Y754295D01*
X589988Y755966D01*
X590794Y757912D01*
X590872Y758500D01*
D02*
G37*
G36*
X790750Y833400D02*
X782000D01*
Y828900D01*
X790750D01*
Y833400D01*
D02*
G37*
G36*
X417500Y843500D02*
X411129D01*
X411206Y842912D01*
X412012Y840966D01*
X413294Y839295D01*
X414966Y838012D01*
X416912Y837206D01*
X417500Y837129D01*
Y843500D01*
D02*
G37*
G36*
X282872D02*
X276500D01*
Y837129D01*
X277089Y837206D01*
X279035Y838012D01*
X280706Y839295D01*
X281988Y840966D01*
X282794Y842912D01*
X282872Y843500D01*
D02*
G37*
G36*
X426872D02*
X420500D01*
Y837129D01*
X421088Y837206D01*
X423035Y838012D01*
X424706Y839295D01*
X425988Y840966D01*
X426794Y842912D01*
X426872Y843500D01*
D02*
G37*
G36*
X748000Y846100D02*
X739250D01*
Y841600D01*
X748000D01*
Y846100D01*
D02*
G37*
G36*
X736250D02*
X727500D01*
Y841600D01*
X736250D01*
Y846100D01*
D02*
G37*
G36*
X746750Y839650D02*
X728750D01*
Y830150D01*
X746750D01*
Y839650D01*
D02*
G37*
G36*
X802500Y833400D02*
X793750D01*
Y828900D01*
X802500D01*
Y833400D01*
D02*
G37*
G36*
X790750Y840900D02*
X782000D01*
Y836400D01*
X790750D01*
Y840900D01*
D02*
G37*
G36*
X273500Y843500D02*
X267129D01*
X267206Y842912D01*
X268012Y840966D01*
X269294Y839295D01*
X270966Y838012D01*
X272912Y837206D01*
X273500Y837129D01*
Y843500D01*
D02*
G37*
G36*
X802500Y840900D02*
X793750D01*
Y836400D01*
X802500D01*
Y840900D01*
D02*
G37*
G36*
X851500Y1024500D02*
X842500D01*
Y1010000D01*
X851500D01*
Y1024500D01*
D02*
G37*
G36*
X839500D02*
X830500D01*
Y1010000D01*
X839500D01*
Y1024500D01*
D02*
G37*
G36*
X426700Y1017500D02*
X419500D01*
Y1010000D01*
X426700D01*
Y1017500D01*
D02*
G37*
G36*
X416500D02*
X409300D01*
Y1010000D01*
X416500D01*
Y1017500D01*
D02*
G37*
G36*
Y1007000D02*
X409300D01*
Y999500D01*
X416500D01*
Y1007000D01*
D02*
G37*
G36*
X820250Y1005750D02*
X801750D01*
Y995333D01*
X788250D01*
Y998450D01*
X772750D01*
Y983550D01*
X788250D01*
Y986667D01*
X801750D01*
Y976250D01*
X820250D01*
Y1005750D01*
D02*
G37*
G36*
X596950Y1081843D02*
X594144Y1081473D01*
X591529Y1080390D01*
X589283Y1078667D01*
X587560Y1076422D01*
X586477Y1073806D01*
X586107Y1071000D01*
X586477Y1068194D01*
X587560Y1065579D01*
X589283Y1063333D01*
X591529Y1061610D01*
X594144Y1060527D01*
X596950Y1060157D01*
X599756Y1060527D01*
X602371Y1061610D01*
X604617Y1063333D01*
X606340Y1065579D01*
X607423Y1068194D01*
X607793Y1071000D01*
X607423Y1073806D01*
X606340Y1076422D01*
X604617Y1078667D01*
X602371Y1080390D01*
X599756Y1081473D01*
X596950Y1081843D01*
D02*
G37*
G36*
X426700Y1007000D02*
X419500D01*
Y999500D01*
X426700D01*
Y1007000D01*
D02*
G37*
G36*
X289350Y1081843D02*
X286544Y1081473D01*
X283929Y1080390D01*
X281683Y1078667D01*
X279960Y1076422D01*
X278877Y1073806D01*
X278507Y1071000D01*
X278877Y1068194D01*
X279960Y1065579D01*
X281683Y1063333D01*
X283929Y1061610D01*
X286544Y1060527D01*
X289350Y1060157D01*
X292156Y1060527D01*
X294771Y1061610D01*
X297017Y1063333D01*
X298740Y1065579D01*
X299823Y1068194D01*
X300193Y1071000D01*
X299823Y1073806D01*
X298740Y1076422D01*
X297017Y1078667D01*
X294771Y1080390D01*
X292156Y1081473D01*
X289350Y1081843D01*
D02*
G37*
G36*
X839500Y1042000D02*
X830500D01*
Y1027500D01*
X839500D01*
Y1042000D01*
D02*
G37*
G36*
X736950Y1081843D02*
X734144Y1081473D01*
X731529Y1080390D01*
X729283Y1078667D01*
X727560Y1076422D01*
X726477Y1073806D01*
X726107Y1071000D01*
X726477Y1068194D01*
X727560Y1065579D01*
X729283Y1063333D01*
X731529Y1061610D01*
X732617Y1061159D01*
Y1037050D01*
X732947Y1035392D01*
X733886Y1033986D01*
X744936Y1022936D01*
X746342Y1021997D01*
X748000Y1021667D01*
X753750D01*
Y1018550D01*
X769250D01*
Y1033450D01*
X753750D01*
Y1030333D01*
X749795D01*
X741283Y1038845D01*
Y1061159D01*
X742371Y1061610D01*
X744617Y1063333D01*
X746340Y1065579D01*
X747423Y1068194D01*
X747793Y1071000D01*
X747423Y1073806D01*
X746340Y1076422D01*
X744617Y1078667D01*
X742371Y1080390D01*
X739756Y1081473D01*
X736950Y1081843D01*
D02*
G37*
G36*
X820250Y1040750D02*
X801750D01*
Y1030333D01*
X788250D01*
Y1033450D01*
X772750D01*
Y1018550D01*
X788250D01*
Y1021667D01*
X801750D01*
Y1011250D01*
X820250D01*
Y1040750D01*
D02*
G37*
G36*
X851500Y1042000D02*
X842500D01*
Y1027500D01*
X851500D01*
Y1042000D01*
D02*
G37*
G36*
X786950Y1066000D02*
X781032D01*
X781468Y1064948D01*
X783391Y1062442D01*
X785898Y1060518D01*
X786950Y1060082D01*
Y1066000D01*
D02*
G37*
G36*
X802868D02*
X796950D01*
Y1060082D01*
X798002Y1060518D01*
X800508Y1062442D01*
X802432Y1064948D01*
X802868Y1066000D01*
D02*
G37*
G36*
X756950D02*
X751032D01*
X751468Y1064948D01*
X753391Y1062442D01*
X755898Y1060518D01*
X756950Y1060082D01*
Y1066000D01*
D02*
G37*
G36*
X772868D02*
X766950D01*
Y1060082D01*
X768002Y1060518D01*
X770508Y1062442D01*
X772432Y1064948D01*
X772868Y1066000D01*
D02*
G37*
G36*
X851500Y1007000D02*
X842500D01*
Y992500D01*
X851500D01*
Y1007000D01*
D02*
G37*
G36*
X839500Y989500D02*
X830500D01*
Y975000D01*
X839500D01*
Y989500D01*
D02*
G37*
G36*
X851500D02*
X842500D01*
Y975000D01*
X851500D01*
Y989500D01*
D02*
G37*
G36*
X520000Y987700D02*
X512500D01*
Y980500D01*
X520000D01*
Y987700D01*
D02*
G37*
G36*
X851500Y972000D02*
X842500D01*
Y957500D01*
X851500D01*
Y972000D01*
D02*
G37*
G36*
X820250Y970750D02*
X801750D01*
Y960333D01*
X788250D01*
Y963450D01*
X772750D01*
Y948550D01*
X788250D01*
Y951667D01*
X801750D01*
Y941250D01*
X820250D01*
Y970750D01*
D02*
G37*
G36*
X839500Y972000D02*
X830500D01*
Y957500D01*
X839500D01*
Y972000D01*
D02*
G37*
G36*
X530500Y987700D02*
X523000D01*
Y980500D01*
X530500D01*
Y987700D01*
D02*
G37*
G36*
X839500Y954500D02*
X830500D01*
Y940000D01*
X839500D01*
Y954500D01*
D02*
G37*
G36*
X681950Y1081843D02*
X679144Y1081473D01*
X676529Y1080390D01*
X674283Y1078667D01*
X672560Y1076422D01*
X671477Y1073806D01*
X671107Y1071000D01*
X671477Y1068194D01*
X672560Y1065579D01*
X674283Y1063333D01*
X676529Y1061610D01*
X677617Y1061159D01*
Y1008050D01*
X677947Y1006392D01*
X678886Y1004986D01*
X695936Y987936D01*
X697342Y986997D01*
X699000Y986667D01*
X753750D01*
Y983550D01*
X769250D01*
Y998450D01*
X753750D01*
Y995333D01*
X700795D01*
X686283Y1009845D01*
Y1061159D01*
X687371Y1061610D01*
X689617Y1063333D01*
X691340Y1065579D01*
X692423Y1068194D01*
X692793Y1071000D01*
X692423Y1073806D01*
X691340Y1076422D01*
X689617Y1078667D01*
X687371Y1080390D01*
X684756Y1081473D01*
X681950Y1081843D01*
D02*
G37*
G36*
X839500Y1007000D02*
X830500D01*
Y992500D01*
X839500D01*
Y1007000D01*
D02*
G37*
G36*
X851500Y954500D02*
X842500D01*
Y940000D01*
X851500D01*
Y954500D01*
D02*
G37*
G36*
X626950Y1081843D02*
X624144Y1081473D01*
X621529Y1080390D01*
X619283Y1078667D01*
X617560Y1076422D01*
X616477Y1073806D01*
X616107Y1071000D01*
X616477Y1068194D01*
X617560Y1065579D01*
X619283Y1063333D01*
X621529Y1061610D01*
X622617Y1061159D01*
Y974050D01*
X622947Y972392D01*
X623886Y970986D01*
X641936Y952936D01*
X643342Y951997D01*
X645000Y951667D01*
X753750D01*
Y948550D01*
X769250D01*
Y963450D01*
X753750D01*
Y960333D01*
X646795D01*
X631283Y975845D01*
Y1061159D01*
X632371Y1061610D01*
X634617Y1063333D01*
X636340Y1065579D01*
X637423Y1068194D01*
X637793Y1071000D01*
X637423Y1073806D01*
X636340Y1076422D01*
X634617Y1078667D01*
X632371Y1080390D01*
X629756Y1081473D01*
X626950Y1081843D01*
D02*
G37*
%LPD*%
G36*
X846686Y690540D02*
Y408373D01*
X838657Y400343D01*
X837939Y399268D01*
X837686Y398000D01*
Y367000D01*
X837939Y365732D01*
X838657Y364657D01*
X846686Y356628D01*
Y285814D01*
X839434D01*
X839396Y285904D01*
X838314Y287314D01*
X836904Y288396D01*
X835262Y289076D01*
X833500Y289308D01*
X831738Y289076D01*
X830096Y288396D01*
X828686Y287314D01*
X827604Y285904D01*
X826924Y284262D01*
X826692Y282500D01*
X826924Y280738D01*
X827604Y279096D01*
X828686Y277686D01*
X830096Y276604D01*
X831738Y275924D01*
X833500Y275692D01*
X835262Y275924D01*
X836904Y276604D01*
X838314Y277686D01*
X839396Y279096D01*
X839434Y279186D01*
X846686D01*
Y96373D01*
X828628Y78314D01*
X819659D01*
X819173Y79487D01*
X822343Y82657D01*
X823061Y83732D01*
X823314Y85000D01*
Y131000D01*
Y144627D01*
X825377Y146690D01*
X826550Y146204D01*
Y143750D01*
X841450D01*
Y159250D01*
X837314D01*
Y163250D01*
X844750D01*
Y186750D01*
X823250D01*
Y163250D01*
X830686D01*
Y159250D01*
X826550D01*
Y154814D01*
X825500D01*
X824232Y154561D01*
X823157Y153843D01*
X817657Y148343D01*
X816939Y147268D01*
X816686Y146000D01*
Y134314D01*
X813450D01*
Y139250D01*
X798550D01*
Y123750D01*
X813450D01*
Y127686D01*
X816686D01*
Y86373D01*
X813627Y83314D01*
X780373D01*
X778609Y85077D01*
X779096Y86250D01*
X783500D01*
Y95250D01*
Y104250D01*
X777914D01*
X777465Y105265D01*
X778025Y106500D01*
X792450D01*
Y109421D01*
X798550D01*
Y104750D01*
X813450D01*
Y120250D01*
X798550D01*
Y115579D01*
X792450D01*
Y122000D01*
X788079D01*
Y129000D01*
X787845Y130178D01*
X787177Y131177D01*
X776075Y142280D01*
X776601Y143550D01*
X791250D01*
Y158450D01*
X786814D01*
Y163250D01*
X793950D01*
Y186750D01*
X772450D01*
Y163250D01*
X780186D01*
Y160359D01*
X778916Y159632D01*
X778000Y159814D01*
X753046D01*
X752520Y161084D01*
X753936Y162500D01*
X764450D01*
Y178000D01*
X749550D01*
Y167486D01*
X748378Y166314D01*
X739032D01*
X737750Y166569D01*
X726250D01*
X724884Y166297D01*
X723727Y165523D01*
X722953Y164366D01*
X722682Y163000D01*
X722953Y161635D01*
X723727Y160477D01*
X723864Y160385D01*
Y159115D01*
X723727Y159024D01*
X722953Y157866D01*
X722682Y156500D01*
X722953Y155134D01*
X723692Y154028D01*
X723864Y153693D01*
Y152808D01*
X723692Y152472D01*
X722953Y151366D01*
X722682Y150000D01*
X722953Y148635D01*
X723727Y147477D01*
X723864Y147385D01*
Y146115D01*
X723727Y146024D01*
X722953Y144866D01*
X722682Y143500D01*
X722953Y142135D01*
X723321Y141584D01*
X722642Y140314D01*
X716314D01*
Y179377D01*
X734343Y197407D01*
X735062Y198482D01*
X735314Y199750D01*
Y238500D01*
X741250D01*
Y257000D01*
X722750D01*
Y238500D01*
X728687D01*
Y201123D01*
X710657Y183093D01*
X709939Y182018D01*
X709686Y180750D01*
Y140314D01*
X693064D01*
X692538Y141584D01*
X695343Y144390D01*
X696062Y145465D01*
X696314Y146733D01*
Y474627D01*
X842343Y620657D01*
X843061Y621732D01*
X843314Y623000D01*
Y689066D01*
X843404Y689104D01*
X844814Y690186D01*
X845416Y690971D01*
X846686Y690540D01*
D02*
G37*
G36*
X202672Y1079426D02*
X201683Y1078667D01*
X199960Y1076422D01*
X198877Y1073806D01*
X198507Y1071000D01*
X198877Y1068194D01*
X199960Y1065579D01*
X201683Y1063333D01*
X203929Y1061610D01*
X206544Y1060527D01*
X209350Y1060157D01*
X212156Y1060527D01*
X214264Y1061400D01*
X236007Y1039657D01*
X237082Y1038939D01*
X238350Y1038686D01*
X322627D01*
X325186Y1036127D01*
Y1011450D01*
X320750D01*
Y997025D01*
X319515Y996465D01*
X318500Y996914D01*
Y1002500D01*
X300500D01*
Y996314D01*
X191373D01*
X142430Y1045256D01*
Y1065100D01*
X143700Y1065353D01*
X143868Y1064948D01*
X145792Y1062442D01*
X148298Y1060518D01*
X151217Y1059309D01*
X154350Y1058897D01*
X157483Y1059309D01*
X160402Y1060518D01*
X162908Y1062442D01*
X164832Y1064948D01*
X165268Y1066000D01*
X154350D01*
Y1076000D01*
X165268D01*
X164832Y1077052D01*
X163010Y1079426D01*
X163267Y1080615D01*
X163295Y1080696D01*
X172241D01*
X172672Y1079426D01*
X171683Y1078667D01*
X169960Y1076422D01*
X168877Y1073806D01*
X168507Y1071000D01*
X168877Y1068194D01*
X169960Y1065579D01*
X171683Y1063333D01*
X173929Y1061610D01*
X176544Y1060527D01*
X179350Y1060157D01*
X182156Y1060527D01*
X184771Y1061610D01*
X187017Y1063333D01*
X188740Y1065579D01*
X189823Y1068194D01*
X190193Y1071000D01*
X189823Y1073806D01*
X188740Y1076422D01*
X187017Y1078667D01*
X186028Y1079426D01*
X186459Y1080696D01*
X202241D01*
X202672Y1079426D01*
D02*
G37*
G36*
X145433Y1105615D02*
X145690Y1104426D01*
X143868Y1102052D01*
X143432Y1101000D01*
X154350D01*
Y1091000D01*
X143432D01*
X143868Y1089948D01*
X145690Y1087574D01*
X145433Y1086385D01*
X145405Y1086304D01*
X143735D01*
X142662Y1086091D01*
X141752Y1085483D01*
X141671Y1085402D01*
X141217Y1085311D01*
X140142Y1084593D01*
X136774Y1081225D01*
X136055Y1080150D01*
X135803Y1078882D01*
Y1077872D01*
X134533Y1077441D01*
X132908Y1079559D01*
X130402Y1081482D01*
X127483Y1082691D01*
X126203Y1082860D01*
Y1084141D01*
X127483Y1084309D01*
X130402Y1085518D01*
X132908Y1087442D01*
X134832Y1089948D01*
X136041Y1092868D01*
X136454Y1096000D01*
X136041Y1099133D01*
X134832Y1102052D01*
X133010Y1104426D01*
X133267Y1105615D01*
X133295Y1105696D01*
X145405D01*
X145433Y1105615D01*
D02*
G37*
G36*
X129350Y1060082D02*
X130402Y1060518D01*
X132908Y1062442D01*
X134533Y1064559D01*
X135803Y1064128D01*
Y1043884D01*
X136055Y1042615D01*
X136774Y1041540D01*
X187657Y990657D01*
X188732Y989939D01*
X190000Y989686D01*
X300500D01*
Y983500D01*
X309500D01*
Y980500D01*
X300500D01*
Y974314D01*
X172373D01*
X112255Y1034432D01*
Y1065524D01*
X113525Y1065776D01*
X113868Y1064948D01*
X115792Y1062442D01*
X118298Y1060518D01*
X119350Y1060082D01*
Y1071000D01*
X129350D01*
Y1060082D01*
D02*
G37*
%LPC*%
G36*
X725915Y427500D02*
X700085D01*
X700335Y425606D01*
X701645Y422444D01*
X703728Y419728D01*
X706444Y417645D01*
X707674Y417135D01*
Y415865D01*
X706444Y415356D01*
X703728Y413272D01*
X701645Y410556D01*
X700335Y407394D01*
X700085Y405500D01*
X725915D01*
X725666Y407394D01*
X724356Y410556D01*
X722272Y413272D01*
X719556Y415356D01*
X718326Y415865D01*
Y417135D01*
X719556Y417645D01*
X722272Y419728D01*
X724356Y422444D01*
X725666Y425606D01*
X725915Y427500D01*
D02*
G37*
G36*
X793700Y104250D02*
X786500D01*
Y96750D01*
X793700D01*
Y104250D01*
D02*
G37*
G36*
X725915Y452500D02*
X700085D01*
X700335Y450606D01*
X701645Y447444D01*
X703728Y444728D01*
X706444Y442645D01*
X707674Y442135D01*
Y440865D01*
X706444Y440356D01*
X703728Y438272D01*
X701645Y435556D01*
X700335Y432394D01*
X700085Y430500D01*
X725915D01*
X725666Y432394D01*
X724356Y435556D01*
X722272Y438272D01*
X719556Y440356D01*
X718326Y440865D01*
Y442135D01*
X719556Y442645D01*
X722272Y444728D01*
X724356Y447444D01*
X725666Y450606D01*
X725915Y452500D01*
D02*
G37*
G36*
X711500Y402500D02*
X700085D01*
X700335Y400606D01*
X701645Y397444D01*
X703728Y394728D01*
X706444Y392645D01*
X709606Y391335D01*
X711500Y391085D01*
Y402500D01*
D02*
G37*
G36*
X166269Y1072401D02*
Y1069599D01*
X166453Y1071000D01*
X166269Y1072401D01*
D02*
G37*
G36*
X711500Y466915D02*
X709606Y466665D01*
X706444Y465356D01*
X703728Y463272D01*
X701645Y460556D01*
X700335Y457394D01*
X700085Y455500D01*
X711500D01*
Y466915D01*
D02*
G37*
G36*
X793700Y93750D02*
X786500D01*
Y86250D01*
X793700D01*
Y93750D01*
D02*
G37*
G36*
X725915Y402500D02*
X714500D01*
Y391085D01*
X716394Y391335D01*
X719556Y392645D01*
X722272Y394728D01*
X724356Y397444D01*
X725666Y400606D01*
X725915Y402500D01*
D02*
G37*
G36*
X714500Y466915D02*
Y455500D01*
X725915D01*
X725666Y457394D01*
X724356Y460556D01*
X722272Y463272D01*
X719556Y465356D01*
X716394Y466665D01*
X714500Y466915D01*
D02*
G37*
G36*
X832500Y131000D02*
X825300D01*
Y123500D01*
X832500D01*
Y131000D01*
D02*
G37*
G36*
X795200Y230000D02*
X784700D01*
Y218500D01*
X795200D01*
Y230000D01*
D02*
G37*
G36*
X318500Y1012700D02*
X311000D01*
Y1005500D01*
X318500D01*
Y1012700D01*
D02*
G37*
G36*
X844750Y228750D02*
X823250D01*
Y205250D01*
X844750D01*
Y228750D01*
D02*
G37*
G36*
X781700Y230000D02*
X771200D01*
Y218500D01*
X781700D01*
Y230000D01*
D02*
G37*
G36*
X308000Y1012700D02*
X300500D01*
Y1005500D01*
X308000D01*
Y1012700D01*
D02*
G37*
G36*
X781300Y258143D02*
X780059Y257980D01*
X777505Y256922D01*
X775312Y255239D01*
X773628Y253045D01*
X772570Y250491D01*
X772407Y249250D01*
X781300D01*
Y258143D01*
D02*
G37*
G36*
X784300D02*
Y249250D01*
X793193D01*
X793030Y250491D01*
X791972Y253045D01*
X790289Y255239D01*
X788095Y256922D01*
X785541Y257980D01*
X784300Y258143D01*
D02*
G37*
G36*
X781300Y246250D02*
X772407D01*
X772570Y245009D01*
X773628Y242455D01*
X775312Y240261D01*
X777505Y238578D01*
X780059Y237520D01*
X781300Y237357D01*
Y246250D01*
D02*
G37*
G36*
X793193D02*
X784300D01*
Y237357D01*
X785541Y237520D01*
X788095Y238578D01*
X790289Y240261D01*
X791972Y242455D01*
X793030Y245009D01*
X793193Y246250D01*
D02*
G37*
G36*
X795200Y215500D02*
X784700D01*
Y204000D01*
X795200D01*
Y215500D01*
D02*
G37*
G36*
X842700Y141500D02*
X835500D01*
Y134000D01*
X842700D01*
Y141500D01*
D02*
G37*
G36*
X801000Y149500D02*
X793500D01*
Y142300D01*
X801000D01*
Y149500D01*
D02*
G37*
G36*
X842700Y131000D02*
X835500D01*
Y123500D01*
X842700D01*
Y131000D01*
D02*
G37*
G36*
X832500Y141500D02*
X825300D01*
Y134000D01*
X832500D01*
Y141500D01*
D02*
G37*
G36*
X811500Y149500D02*
X804000D01*
Y142300D01*
X811500D01*
Y149500D01*
D02*
G37*
G36*
X757400Y257080D02*
X754985Y256762D01*
X752735Y255830D01*
X750803Y254347D01*
X749320Y252415D01*
X748388Y250165D01*
X748070Y247750D01*
X748388Y245335D01*
X749320Y243085D01*
X750803Y241153D01*
X752735Y239670D01*
X753687Y239276D01*
Y197000D01*
X749550D01*
Y181500D01*
X764450D01*
Y197000D01*
X760314D01*
Y238945D01*
X762065Y239670D01*
X763997Y241153D01*
X765480Y243085D01*
X766412Y245335D01*
X766730Y247750D01*
X766412Y250165D01*
X765480Y252415D01*
X763997Y254347D01*
X762065Y255830D01*
X759815Y256762D01*
X757400Y257080D01*
D02*
G37*
G36*
X781700Y215500D02*
X771200D01*
Y204000D01*
X781700D01*
Y215500D01*
D02*
G37*
G36*
X801000Y159700D02*
X793500D01*
Y152500D01*
X801000D01*
Y159700D01*
D02*
G37*
G36*
X811500D02*
X804000D01*
Y152500D01*
X811500D01*
Y159700D01*
D02*
G37*
%LPD*%
D10*
X806000Y112500D02*
D03*
Y131500D02*
D03*
X611000Y123250D02*
D03*
Y142250D02*
D03*
X631000Y142250D02*
D03*
Y123250D02*
D03*
X634000Y706500D02*
D03*
Y725500D02*
D03*
X653000Y725500D02*
D03*
Y706500D02*
D03*
X576000Y559500D02*
D03*
Y578500D02*
D03*
X596000Y578500D02*
D03*
Y559500D02*
D03*
X576000Y270500D02*
D03*
Y289500D02*
D03*
X596000Y289500D02*
D03*
Y270500D02*
D03*
X466000Y712500D02*
D03*
Y693500D02*
D03*
X418000Y1008500D02*
D03*
Y989500D02*
D03*
X261000Y88500D02*
D03*
Y69500D02*
D03*
X406000Y712500D02*
D03*
Y693500D02*
D03*
Y673500D02*
D03*
Y654500D02*
D03*
X436000Y712500D02*
D03*
Y693500D02*
D03*
Y673500D02*
D03*
Y654500D02*
D03*
X466000Y673500D02*
D03*
Y654500D02*
D03*
X834000Y151500D02*
D03*
Y132500D02*
D03*
X785000Y114250D02*
D03*
Y95250D02*
D03*
X757000Y189250D02*
D03*
Y170250D02*
D03*
D18*
X737500Y928000D02*
D03*
X718500D02*
D03*
X709500Y855000D02*
D03*
X690500D02*
D03*
X709500Y880000D02*
D03*
X690500D02*
D03*
X709500Y905000D02*
D03*
X572500Y334000D02*
D03*
X591500D02*
D03*
X633500Y769000D02*
D03*
X652500D02*
D03*
X520500Y593000D02*
D03*
X501500D02*
D03*
X571500Y623000D02*
D03*
X590500D02*
D03*
X521500Y304000D02*
D03*
X502500D02*
D03*
X328500Y1004000D02*
D03*
X309500D02*
D03*
X328500Y982000D02*
D03*
X309500D02*
D03*
X328500Y959000D02*
D03*
X309500D02*
D03*
X540500Y1019000D02*
D03*
X521500D02*
D03*
X540500Y999000D02*
D03*
X521500D02*
D03*
X540500Y979000D02*
D03*
X521500D02*
D03*
X540500Y959000D02*
D03*
X521500D02*
D03*
X540500Y939000D02*
D03*
X521500D02*
D03*
X540500Y919000D02*
D03*
X521500D02*
D03*
X540500Y899000D02*
D03*
X521500D02*
D03*
X540500Y879000D02*
D03*
X521500D02*
D03*
X540500Y859000D02*
D03*
X521500D02*
D03*
X582500Y740000D02*
D03*
X563500D02*
D03*
X802500Y151000D02*
D03*
X783500D02*
D03*
X690500Y905000D02*
D03*
X761500Y991000D02*
D03*
X780500D02*
D03*
X761500Y1026000D02*
D03*
X780500D02*
D03*
X761500Y956000D02*
D03*
X780500D02*
D03*
D27*
X791950Y1146000D02*
Y1171000D01*
Y1121000D02*
Y1146000D01*
Y1096000D02*
Y1121000D01*
Y1071000D02*
Y1096000D01*
X761950Y1146000D02*
Y1171000D01*
Y1121000D02*
Y1146000D01*
Y1096000D02*
Y1121000D01*
Y1071000D02*
Y1096000D01*
X124350Y1071000D02*
Y1096000D01*
X154350Y1146000D02*
Y1171000D01*
X124350Y1121000D02*
Y1146000D01*
X154350Y1121000D02*
Y1146000D01*
X124350D02*
Y1171000D01*
D29*
X870000Y267000D02*
X871000Y268000D01*
X611000Y142250D02*
X631000D01*
X631000Y142250D01*
X748000Y1026000D02*
X761500D01*
X736950Y1037050D02*
X748000Y1026000D01*
X736950Y1037050D02*
Y1071000D01*
X699000Y991000D02*
X761500D01*
X681950Y1008050D02*
X699000Y991000D01*
X681950Y1008050D02*
Y1071000D01*
X645000Y956000D02*
X761500D01*
X626950Y974050D02*
X645000Y956000D01*
X626950Y974050D02*
Y1071000D01*
X780500Y1026000D02*
X811000D01*
X780500Y991000D02*
X811000D01*
X780500Y956000D02*
X811000D01*
X884000Y928000D02*
X897000Y915000D01*
Y280000D02*
Y915000D01*
X884000Y267000D02*
X897000Y280000D01*
X870000Y267000D02*
X884000D01*
X737500Y928000D02*
X737750D01*
X884000D01*
X737750Y911100D02*
Y928000D01*
D30*
X540500Y973500D02*
Y979000D01*
X536000Y969000D02*
X540500Y973500D01*
X482000Y969000D02*
X536000D01*
X454750Y941750D02*
X482000Y969000D01*
X428500Y941750D02*
X454750D01*
X428500Y948250D02*
X449250D01*
X500000Y999000D01*
X521500D01*
X540500Y979000D02*
Y999000D01*
X521500D02*
Y1019000D01*
X530000Y1042000D02*
X540500Y1031500D01*
Y1019000D02*
Y1031500D01*
X324000Y1042000D02*
X530000D01*
X556000Y681000D02*
X567000D01*
X540000Y697000D02*
X556000Y681000D01*
X540000Y697000D02*
Y768000D01*
X555000Y783000D02*
X665326D01*
X540000Y768000D02*
X555000Y783000D01*
X759750Y79097D02*
Y105290D01*
X854750Y93033D02*
Y365250D01*
X764500Y81065D02*
Y109520D01*
X850000Y95000D02*
Y283000D01*
X769250Y83033D02*
Y113750D01*
X792250Y860300D02*
X792550Y860000D01*
X850000D01*
X428500Y909250D02*
X447711D01*
X550961Y806000D01*
X747540Y117500D02*
X759750Y105290D01*
X732000Y117500D02*
X747540D01*
X849700Y885700D02*
X850000Y886000D01*
X848750Y381250D02*
Y395750D01*
X849000Y371000D02*
X854750Y365250D01*
X849000Y377000D02*
X851000Y379000D01*
X848750Y381250D02*
X851000Y379000D01*
X849000Y371000D02*
Y377000D01*
X792250Y885700D02*
X849700D01*
X428500Y902750D02*
X445230D01*
X548330Y799650D01*
X732000Y124000D02*
X750020D01*
X764500Y109520D01*
X849900Y911100D02*
X850000Y911000D01*
X849500Y282500D02*
X850000Y283000D01*
X833500Y282500D02*
X849500D01*
X792250Y911100D02*
X849900D01*
X428500Y896250D02*
X442750D01*
X545700Y793300D01*
X752500Y130500D02*
X769250Y113750D01*
X732000Y130500D02*
X752500D01*
X833935Y65500D02*
X859500Y91065D01*
X773347Y65500D02*
X833935D01*
X831968Y70250D02*
X854750Y93033D01*
X775315Y70250D02*
X831968D01*
X830000Y75000D02*
X850000Y95000D01*
X759750Y79097D02*
X773347Y65500D01*
X764500Y81065D02*
X775315Y70250D01*
X777282Y75000D02*
X830000D01*
X769250Y83033D02*
X777282Y75000D01*
X774000Y85000D02*
Y126250D01*
X820000Y85000D02*
Y131000D01*
X774000Y85000D02*
X779000Y80000D01*
X815000D01*
X820000Y85000D01*
X732000Y137000D02*
X763250D01*
X774000Y126250D01*
X820000Y131000D02*
Y146000D01*
X806500Y131000D02*
X820000D01*
Y146000D02*
X825500Y151500D01*
X834000D01*
X806000Y131500D02*
X806500Y131000D01*
X783200Y175000D02*
X783500Y174700D01*
Y151000D02*
Y174700D01*
X778000Y156500D02*
X783500Y151000D01*
X732000Y156500D02*
X778000D01*
X834000Y151500D02*
Y175000D01*
X108941Y1033059D02*
Y1100959D01*
X139117Y1043884D02*
Y1078882D01*
Y1043884D02*
X190000Y993000D01*
X238350Y1042000D02*
X324000D01*
X264350Y1071000D02*
X287350Y1048000D01*
X319350Y1071000D02*
X335350Y1055000D01*
X421059Y645733D02*
Y668941D01*
X416500Y673500D02*
X421059Y668941D01*
X406000Y673500D02*
X416500D01*
X417326Y642000D02*
X421059Y645733D01*
X374000Y642000D02*
X417326D01*
X480000Y641000D02*
Y668997D01*
X474497Y674500D02*
X480000Y668997D01*
X455000Y616000D02*
X480000Y641000D01*
X450000Y644000D02*
Y668997D01*
X445997Y673000D02*
X450000Y668997D01*
X436500Y673000D02*
X445997D01*
X435000Y629000D02*
X450000Y644000D01*
X374000Y629000D02*
X435000D01*
X681000Y307250D02*
Y767326D01*
X665326Y783000D02*
X681000Y767326D01*
X566000Y916000D02*
Y1023364D01*
X335350Y1055000D02*
X534364D01*
X338475Y922475D02*
X359275D01*
X571000Y622500D02*
X571500Y623000D01*
X571000Y603000D02*
Y622500D01*
X546000Y628000D02*
X582500Y664500D01*
X546000Y593000D02*
X546000Y593000D01*
X520500Y593000D02*
X546000D01*
X558667Y584333D02*
Y593000D01*
Y584333D02*
X564500Y578500D01*
X333750Y954750D02*
X359500D01*
X521500Y939000D02*
X521500Y939000D01*
X521500D01*
X517750Y935250D02*
X521500Y939000D01*
X428500Y935250D02*
X517750D01*
X540500Y928825D02*
Y939000D01*
Y919000D02*
Y928825D01*
X540425Y928750D02*
X540500Y928825D01*
X428500Y928750D02*
X540425D01*
X549000Y899000D02*
X566000Y916000D01*
X484750Y922250D02*
X508000Y899000D01*
X428500Y922250D02*
X484750D01*
X508000Y899000D02*
X521500D01*
X481250Y915750D02*
X502000Y895000D01*
X428500Y915750D02*
X481250D01*
X502000Y877000D02*
Y895000D01*
Y877000D02*
X510350Y868650D01*
X540500D01*
X345500Y909250D02*
X359500D01*
X341250Y877750D02*
Y905000D01*
X335750Y874500D02*
Y910750D01*
X331000Y871000D02*
Y915000D01*
X338475Y922475D01*
X335750Y910750D02*
X340750Y915750D01*
X359500D01*
X341250Y905000D02*
X345500Y909250D01*
X321825Y928825D02*
X321900Y928750D01*
X359500D01*
X314250Y935250D02*
X359500D01*
X294000Y915000D02*
X314250Y935250D01*
X294000Y845000D02*
Y915000D01*
X163000Y915000D02*
X189750Y941750D01*
X359500D01*
X149000Y915000D02*
X182250Y948250D01*
X359500D01*
X149000Y846000D02*
Y915000D01*
X347250Y961250D02*
X359500D01*
X342750Y965750D02*
X347250Y961250D01*
X342750Y965750D02*
Y979250D01*
X340000Y982000D02*
X342750Y979250D01*
X308000Y915000D02*
X321825Y928825D01*
X308000Y845000D02*
Y915000D01*
X163000Y845000D02*
Y915000D01*
X353000Y1004000D02*
X359500Y997500D01*
Y967750D02*
Y997500D01*
X686000Y150000D02*
X688000Y152000D01*
X676000Y150000D02*
X686000D01*
X653000D02*
X676000D01*
X689768Y143500D02*
X693000Y146733D01*
X676000Y143500D02*
X689768D01*
X655400Y58000D02*
Y64600D01*
X650308Y143500D02*
X676000D01*
X655400Y58000D02*
X655400Y58000D01*
X643000Y77000D02*
X655400Y64600D01*
X626500Y725500D02*
X634000D01*
X324000Y993000D02*
X328500Y988500D01*
X324000Y1042000D02*
X328500Y1037500D01*
X636500Y136750D02*
X675750D01*
X638250Y130500D02*
X676000D01*
X757000Y189250D02*
Y247350D01*
X749750Y163000D02*
X757000Y170250D01*
X631000Y123250D02*
X638250Y130500D01*
X732000Y163000D02*
X749750D01*
X675750Y136750D02*
X676000Y137000D01*
X611000Y123250D02*
X631000D01*
X631000Y142250D02*
X636500Y136750D01*
X732000Y199750D02*
Y247750D01*
X631000Y123250D02*
X631000Y123250D01*
X399000Y983000D02*
X405500Y989500D01*
X521500Y879000D02*
Y899000D01*
Y939000D02*
Y959000D01*
X540500Y919000D02*
X540500Y919000D01*
X521500Y879000D02*
X521500Y879000D01*
X405500Y989500D02*
X418000D01*
X621000Y731000D02*
X626500Y725500D01*
X559667Y295333D02*
X565500Y289500D01*
X559667Y295333D02*
Y304000D01*
X564500Y578500D02*
X576000D01*
X661500Y156500D02*
X676000D01*
X713000Y137000D02*
X732000D01*
X713000D02*
Y180750D01*
X732000Y199750D01*
X540500Y899000D02*
X549000D01*
X328500Y960000D02*
Y966500D01*
X324000Y971000D02*
X328500Y966500D01*
X676000Y137000D02*
X713000D01*
X388500Y712500D02*
X406000D01*
X378000Y723000D02*
X388500Y712500D01*
X378000Y723000D02*
Y805000D01*
X436000Y712500D02*
Y724000D01*
X442000Y730000D01*
X489000D01*
X511000Y752000D01*
Y805000D01*
X466000Y712500D02*
X505500D01*
X512000Y706000D01*
X582500Y664500D02*
Y740000D01*
X512000Y691000D02*
Y706000D01*
X712000Y111000D02*
X732000D01*
X436000Y673500D02*
Y693500D01*
Y673500D02*
X436500Y673000D01*
X466000Y674500D02*
Y693500D01*
X711000Y100000D02*
X715500Y104500D01*
X732000D01*
X406000Y673500D02*
Y693500D01*
X374000Y616000D02*
X455000D01*
X565500Y289500D02*
X576000D01*
X596000Y206000D02*
Y270500D01*
X576000Y270500D02*
Y270500D01*
X596000D01*
X612000Y215000D02*
Y552000D01*
X604500Y559500D02*
X612000Y552000D01*
X574000Y168000D02*
X618000Y212000D01*
Y699000D01*
X625500Y706500D01*
X654000Y164000D02*
X661500Y156500D01*
X654000Y280250D02*
X681000Y307250D01*
X654000Y164000D02*
Y280250D01*
X466000Y740000D02*
Y850364D01*
X453000Y845000D02*
Y852000D01*
X328500Y1004000D02*
X353000D01*
X328500D02*
Y1037500D01*
Y982000D02*
Y988500D01*
Y982000D02*
X340000D01*
X171000Y971000D02*
X324000D01*
X190000Y993000D02*
X324000D01*
X108941Y1033059D02*
X171000Y971000D01*
X676000Y163000D02*
Y176000D01*
X676000Y176000D02*
X676000Y176000D01*
X261000Y46000D02*
Y69500D01*
X706000Y105000D02*
X712000Y111000D01*
X706000Y39929D02*
Y105000D01*
X711000Y37858D02*
Y100000D01*
X676000Y104500D02*
X695500D01*
X701000Y99000D01*
Y42000D02*
Y99000D01*
X546000Y593000D02*
Y603000D01*
X521500Y304000D02*
X537000D01*
X546000Y313000D01*
X572500Y314500D02*
Y334000D01*
X572000Y314000D02*
X572500Y314500D01*
X546000Y313000D02*
X547000Y314000D01*
X598000Y740000D02*
X608000Y750000D01*
X582500Y740000D02*
X598000D01*
X633000Y750000D02*
Y768500D01*
X108941Y1100959D02*
X116983Y1109000D01*
X139117Y1078882D02*
X142485Y1082250D01*
X209350Y1071000D02*
X238350Y1042000D01*
X406000Y954750D02*
X428500D01*
X399000Y961750D02*
Y983000D01*
Y961750D02*
X406000Y954750D01*
X367450Y1104783D02*
Y1105400D01*
X534364Y1055000D02*
X566000Y1023364D01*
X287350Y1048000D02*
X534500D01*
X560250Y1022250D01*
Y966000D02*
Y1022250D01*
X553250Y959000D02*
X560250Y966000D01*
X540500Y959000D02*
X553250D01*
X331000Y871000D02*
X344000Y858000D01*
X439000Y845000D02*
Y852000D01*
X344000Y858000D02*
X433000D01*
X439000Y852000D01*
X335750Y874500D02*
X347500Y862750D01*
X442250D01*
X453000Y852000D01*
X341250Y877750D02*
X351500Y867500D01*
X448864D01*
X466000Y850364D01*
X661000Y109000D02*
X663000Y111000D01*
X676000D01*
X661000Y100000D02*
Y109000D01*
X590919Y32000D02*
X665728D01*
X564250Y58669D02*
X590919Y32000D01*
X569250Y172250D02*
X612000Y215000D01*
X569250Y60886D02*
Y172250D01*
X574000Y62354D02*
Y168000D01*
X569000Y60636D02*
X569250Y60886D01*
X569000Y60636D02*
X592886Y36750D01*
X663761D01*
X574000Y62354D02*
X594854Y41500D01*
X661793D01*
X665728Y32000D02*
X682750Y49022D01*
Y78250D01*
X661000Y100000D02*
X682750Y78250D01*
X663761Y36750D02*
X678000Y50990D01*
Y74000D01*
X661793Y41500D02*
X673250Y52957D01*
Y72033D01*
X662783Y117500D02*
X676000D01*
X656250Y95750D02*
X678000Y74000D01*
X656250Y95750D02*
Y110968D01*
X662783Y117500D01*
X651500Y93783D02*
X673250Y72033D01*
X651500Y93783D02*
Y112935D01*
X662565Y124000D01*
X676000D01*
X610808Y58000D02*
X630000D01*
X601000Y77000D02*
X643000D01*
X593000Y85000D02*
X601000Y77000D01*
X593000Y85000D02*
Y149000D01*
X564250Y58669D02*
Y174250D01*
X596000Y206000D01*
X243250Y616000D02*
X281000D01*
X254000Y642000D02*
X281000D01*
X247718Y629000D02*
X281000D01*
X231500Y604250D02*
X243250Y616000D01*
X231500Y334500D02*
Y604250D01*
Y334500D02*
X247500Y318500D01*
X437207D01*
X226750Y332533D02*
X245532Y313750D01*
X222000Y330565D02*
X243565Y309000D01*
X433065D01*
X222000Y610000D02*
X254000Y642000D01*
X222000Y330565D02*
Y610000D01*
X226750Y608032D02*
X247718Y629000D01*
X226750Y332533D02*
Y608032D01*
X433065Y309000D02*
X467065Y275000D01*
X532647D01*
X437207Y318500D02*
X471207Y284500D01*
X245532Y313750D02*
X435033D01*
X469033Y279750D01*
X534968D01*
X471207Y284500D02*
X537000D01*
X556500Y265000D01*
X532647Y275000D02*
X547000Y260647D01*
Y38858D02*
Y260647D01*
X556500Y43000D02*
Y265000D01*
X534968Y279750D02*
X551750Y262968D01*
Y41033D02*
Y262968D01*
X684071Y18000D02*
X706000Y39929D01*
X686142Y13000D02*
X711000Y37858D01*
X547000Y38858D02*
X572858Y13000D01*
X686142D01*
X556500Y43000D02*
X577000Y22500D01*
X681500D01*
X701000Y42000D01*
X575033Y17750D02*
X683467D01*
X683718Y18000D01*
X684071D01*
X551750Y41033D02*
X575033Y17750D01*
X593000Y149000D02*
X598500Y154500D01*
X639308D01*
X650308Y143500D01*
X643750Y159250D02*
X653000Y150000D01*
X596533Y159250D02*
X643750D01*
X588250Y80558D02*
X610808Y58000D01*
X588250Y80558D02*
Y150968D01*
X596533Y159250D01*
X261000Y16000D02*
X261000Y16000D01*
X345000D01*
X261000Y88500D02*
X291500D01*
X355000Y25000D01*
X367450Y1104783D02*
X407233Y1065000D01*
X540500Y868650D02*
Y878650D01*
X540500Y878650D01*
X540500Y859000D02*
Y868650D01*
Y859000D02*
X540500Y859000D01*
X857000Y391000D02*
X862700D01*
X859500Y91065D02*
Y387800D01*
X850000Y283000D02*
Y358000D01*
X841000Y367000D02*
X850000Y358000D01*
X841000Y367000D02*
Y398000D01*
X548330Y799650D02*
X762600D01*
X848750Y395750D02*
X856000Y403000D01*
X762600Y799650D02*
X856000Y706250D01*
X550961Y806000D02*
X763028D01*
X862700Y706328D01*
X856000Y403000D02*
Y706250D01*
X545700Y793300D02*
X762232D01*
X841000Y398000D02*
X850000Y407000D01*
X762232Y793300D02*
X850000Y705532D01*
Y407000D02*
Y705532D01*
X693000Y476000D02*
X840000Y623000D01*
Y695000D01*
X693000Y146733D02*
Y476000D01*
X688000Y478000D02*
X831000Y621000D01*
X688000Y152000D02*
Y478000D01*
X576000Y559500D02*
X604500D01*
X625500Y706500D02*
X653000D01*
X466000Y674500D02*
X474497D01*
X621000Y731000D02*
Y740000D01*
X576424Y871859D02*
X635033Y813250D01*
X581782Y873217D02*
X637000Y818000D01*
X581782Y873217D02*
Y1025935D01*
X537718Y1070000D02*
X581782Y1025935D01*
X576424Y871859D02*
Y1024576D01*
X536000Y1065000D02*
X576424Y1024576D01*
X407233Y1065000D02*
X536000D01*
X392850Y1105400D02*
X428250Y1070000D01*
X537718D01*
X545250Y1086539D02*
X606500Y1025289D01*
X545250Y1086539D02*
Y1105200D01*
X494450D02*
X522650Y1077000D01*
X519850Y1104867D02*
X601750Y1022968D01*
X637000Y818000D02*
X787000D01*
X840000Y765000D01*
Y750000D02*
Y765000D01*
X522650Y1077000D02*
X540000D01*
X597000Y1020000D01*
X519850Y1104867D02*
Y1105200D01*
X656000Y855000D02*
X690500D01*
X597000Y914000D02*
X656000Y855000D01*
X597000Y914000D02*
Y1020000D01*
X601750Y933250D02*
Y1022968D01*
Y933250D02*
X655000Y880000D01*
X690500D01*
X606500Y953500D02*
Y1025289D01*
Y953500D02*
X655000Y905000D01*
X690500D01*
X328500Y960000D02*
X333750Y954750D01*
X546000Y313000D02*
Y593000D01*
X546000Y593000D02*
Y628000D01*
X635033Y813250D02*
X777750D01*
X831000Y760000D01*
Y621000D02*
Y683000D01*
X859500Y387800D02*
X862700Y391000D01*
Y706328D01*
D33*
X545250Y1105200D02*
D03*
X494450D02*
D03*
X519850D02*
D03*
X418250Y1105400D02*
D03*
X367450D02*
D03*
X443650D02*
D03*
X469050D02*
D03*
X545250Y1130600D02*
D03*
X519850D02*
D03*
X469050D02*
D03*
X494450D02*
D03*
X392850Y1130800D02*
D03*
X367450D02*
D03*
X418250D02*
D03*
X443650D02*
D03*
Y1156200D02*
D03*
X418250D02*
D03*
X367450D02*
D03*
X392850D02*
D03*
X494450Y1156000D02*
D03*
X469050D02*
D03*
X519850D02*
D03*
X124350Y1071000D02*
D03*
Y1096000D02*
D03*
Y1121000D02*
D03*
Y1146000D02*
D03*
Y1171000D02*
D03*
X154350Y1071000D02*
D03*
Y1096000D02*
D03*
Y1171000D02*
D03*
Y1146000D02*
D03*
Y1121000D02*
D03*
X179350Y1071000D02*
D03*
Y1096000D02*
D03*
Y1121000D02*
D03*
Y1146000D02*
D03*
Y1171000D02*
D03*
X209350Y1071000D02*
D03*
Y1096000D02*
D03*
Y1171000D02*
D03*
Y1146000D02*
D03*
Y1121000D02*
D03*
X234350Y1071000D02*
D03*
Y1096000D02*
D03*
Y1121000D02*
D03*
Y1146000D02*
D03*
Y1171000D02*
D03*
X264350Y1071000D02*
D03*
Y1096000D02*
D03*
Y1171000D02*
D03*
Y1146000D02*
D03*
Y1121000D02*
D03*
X319350D02*
D03*
Y1146000D02*
D03*
Y1171000D02*
D03*
Y1096000D02*
D03*
Y1071000D02*
D03*
X289350Y1171000D02*
D03*
Y1146000D02*
D03*
Y1121000D02*
D03*
Y1096000D02*
D03*
Y1071000D02*
D03*
X761950D02*
D03*
Y1096000D02*
D03*
Y1121000D02*
D03*
Y1146000D02*
D03*
Y1171000D02*
D03*
X791950Y1071000D02*
D03*
Y1096000D02*
D03*
Y1171000D02*
D03*
Y1146000D02*
D03*
Y1121000D02*
D03*
X736950D02*
D03*
Y1146000D02*
D03*
Y1171000D02*
D03*
Y1096000D02*
D03*
Y1071000D02*
D03*
X706950Y1171000D02*
D03*
Y1146000D02*
D03*
Y1121000D02*
D03*
Y1096000D02*
D03*
Y1071000D02*
D03*
X681950Y1121000D02*
D03*
Y1146000D02*
D03*
Y1171000D02*
D03*
Y1096000D02*
D03*
Y1071000D02*
D03*
X651950Y1171000D02*
D03*
Y1146000D02*
D03*
Y1121000D02*
D03*
Y1096000D02*
D03*
Y1071000D02*
D03*
X626950Y1121000D02*
D03*
Y1146000D02*
D03*
Y1171000D02*
D03*
Y1096000D02*
D03*
Y1071000D02*
D03*
X596950Y1171000D02*
D03*
Y1146000D02*
D03*
Y1121000D02*
D03*
Y1096000D02*
D03*
Y1071000D02*
D03*
X545250Y1156000D02*
D03*
X392850Y1105400D02*
D03*
D34*
X846950Y1121000D02*
D03*
X69350D02*
D03*
D35*
X630000Y58000D02*
D03*
X732000Y247750D02*
D03*
D36*
X655400Y58000D02*
D03*
X757400Y247750D02*
D03*
X782800D02*
D03*
D37*
X407000Y46000D02*
D03*
X339000Y261250D02*
D03*
X301000D02*
D03*
X264000D02*
D03*
X339000Y233500D02*
D03*
X301500D02*
D03*
X264000D02*
D03*
Y289000D02*
D03*
X301500D02*
D03*
X339000D02*
D03*
X713000Y404000D02*
D03*
X339000Y580000D02*
D03*
X301500D02*
D03*
X382000Y46000D02*
D03*
X531000Y337000D02*
D03*
X532000Y46000D02*
D03*
X507000D02*
D03*
X482000D02*
D03*
X432000D02*
D03*
X381000Y337000D02*
D03*
X264000Y580000D02*
D03*
Y524500D02*
D03*
X301500D02*
D03*
X339000D02*
D03*
X264000Y552250D02*
D03*
X301000D02*
D03*
X339000D02*
D03*
X506000Y337000D02*
D03*
X481000D02*
D03*
X406000D02*
D03*
X663000Y454000D02*
D03*
Y429000D02*
D03*
Y404000D02*
D03*
X713000Y454000D02*
D03*
Y429000D02*
D03*
X431000Y337000D02*
D03*
D38*
X850000Y860000D02*
D03*
X857000Y391000D02*
D03*
X851000Y379000D02*
D03*
X850000Y886000D02*
D03*
Y911000D02*
D03*
X833500Y282500D02*
D03*
X571000Y603000D02*
D03*
X546000D02*
D03*
X558667Y593000D02*
D03*
X870000Y267000D02*
D03*
X583000Y760000D02*
D03*
X439000Y845000D02*
D03*
X453000D02*
D03*
X294000D02*
D03*
X308000D02*
D03*
X163000D02*
D03*
X149000D02*
D03*
X275000D02*
D03*
X419000D02*
D03*
X466000Y740000D02*
D03*
X584000Y593000D02*
D03*
X378000Y805000D02*
D03*
X511000D02*
D03*
X567000Y681000D02*
D03*
X512000Y691000D02*
D03*
X281000Y642000D02*
D03*
X374000D02*
D03*
Y616000D02*
D03*
X281000D02*
D03*
X281000Y629000D02*
D03*
X374000Y629000D02*
D03*
X676000Y176000D02*
D03*
X585000Y304000D02*
D03*
X559667D02*
D03*
X572000Y314000D02*
D03*
X547000D02*
D03*
X646000Y740000D02*
D03*
X608000Y750000D02*
D03*
X633000D02*
D03*
X620667Y740000D02*
D03*
X355000Y25000D02*
D03*
X345000Y16000D02*
D03*
X840000Y695000D02*
D03*
Y750000D02*
D03*
X831000Y760000D02*
D03*
Y683000D02*
D03*
D39*
X792250Y911100D02*
D03*
D40*
Y898400D02*
D03*
Y885700D02*
D03*
Y873000D02*
D03*
Y860300D02*
D03*
Y847600D02*
D03*
Y834900D02*
D03*
X737750Y911100D02*
D03*
Y898400D02*
D03*
Y885700D02*
D03*
Y873000D02*
D03*
Y860300D02*
D03*
Y847600D02*
D03*
Y834900D02*
D03*
D41*
X834000Y217000D02*
D03*
Y175000D02*
D03*
X783200Y217000D02*
D03*
Y175000D02*
D03*
D42*
X359500Y896250D02*
D03*
Y902750D02*
D03*
Y909250D02*
D03*
Y915750D02*
D03*
Y922250D02*
D03*
Y928750D02*
D03*
Y935250D02*
D03*
Y941750D02*
D03*
Y948250D02*
D03*
Y954750D02*
D03*
Y961250D02*
D03*
Y967750D02*
D03*
X428500Y896250D02*
D03*
Y902750D02*
D03*
Y909250D02*
D03*
Y915750D02*
D03*
Y922250D02*
D03*
Y928750D02*
D03*
Y935250D02*
D03*
Y941750D02*
D03*
Y948250D02*
D03*
Y954750D02*
D03*
Y961250D02*
D03*
Y967750D02*
D03*
D43*
X261000Y16000D02*
D03*
Y46000D02*
D03*
D44*
X676000Y104500D02*
D03*
Y111000D02*
D03*
Y117500D02*
D03*
Y124000D02*
D03*
Y130500D02*
D03*
Y137000D02*
D03*
Y143500D02*
D03*
Y150000D02*
D03*
Y156500D02*
D03*
Y163000D02*
D03*
X732000Y104500D02*
D03*
Y111000D02*
D03*
Y117500D02*
D03*
Y124000D02*
D03*
Y130500D02*
D03*
Y137000D02*
D03*
Y143500D02*
D03*
Y150000D02*
D03*
Y156500D02*
D03*
Y163000D02*
D03*
D45*
X841000Y991000D02*
D03*
X811000D02*
D03*
X841000Y956000D02*
D03*
X811000D02*
D03*
X841000Y1026000D02*
D03*
X811000D02*
D03*
D46*
X761500Y853500D02*
X767400Y847600D01*
X711000Y853500D02*
X761500D01*
X709500Y855000D02*
X711000Y853500D01*
X767400Y847600D02*
X792250D01*
X766600Y898400D02*
X792250D01*
X760000Y905000D02*
X766600Y898400D01*
X709500Y905000D02*
X760000D01*
X709500Y880000D02*
X709550Y879950D01*
X746139D01*
X746189Y880000D01*
X760000D01*
X767000Y873000D01*
X792250D01*
X116983Y1109000D02*
X117483Y1108500D01*
X276850D01*
X289350Y1096000D01*
X221850Y1083500D02*
X234350Y1071000D01*
X142485Y1082250D02*
X143735Y1083500D01*
X221850D01*
D47*
X732000Y143500D02*
X770500D01*
X785000Y129000D01*
Y114250D02*
Y129000D01*
Y114250D02*
X786750Y112500D01*
X806000D01*
D48*
X712500Y429000D02*
D03*
X662500D02*
D03*
D49*
X455843Y46543D02*
D03*
X454843Y337543D02*
D03*
D50*
X302500Y260457D02*
D03*
D51*
Y552500D02*
D03*
M02*
