G04 Layer_Color=8388736*
%FSLAX44Y44*%
%MOMM*%
G71*
G01*
G75*
%ADD70R,1.3400X1.4000*%
%ADD71O,2.1500X0.7500*%
%ADD72R,2.1500X0.7500*%
%ADD73R,1.1500X2.3000*%
%ADD74R,5.7000X6.7000*%
%ADD75R,1.5000X4.1000*%
%ADD76R,2.9000X0.9000*%
%ADD77R,5.8000X1.5000*%
%ADD78R,1.4000X1.3400*%
%ADD79R,6.5000X6.5000*%
%ADD80R,3.3000X1.9000*%
%ADD81O,0.7500X2.1500*%
%ADD82R,0.7500X2.1500*%
%ADD83R,4.2000X4.2000*%
%ADD84R,1.7000X0.8000*%
%ADD85R,1.3000X4.3000*%
%ADD86R,10.9000X8.9000*%
%ADD87C,2.0000*%
%ADD88C,3.5000*%
%ADD89R,1.7000X1.7000*%
%ADD90C,1.7000*%
%ADD91C,2.2000*%
%ADD92C,1.2000*%
D70*
X534000Y779500D02*
D03*
Y760500D02*
D03*
D71*
X437000Y805000D02*
D03*
X147000D02*
D03*
X292000D02*
D03*
D72*
X437000Y792300D02*
D03*
Y779600D02*
D03*
Y766900D02*
D03*
X485000Y805000D02*
D03*
Y792300D02*
D03*
Y779600D02*
D03*
Y766900D02*
D03*
X147000Y792300D02*
D03*
Y779600D02*
D03*
Y766900D02*
D03*
X195000Y805000D02*
D03*
Y792300D02*
D03*
Y779600D02*
D03*
Y766900D02*
D03*
X292000Y792300D02*
D03*
Y779600D02*
D03*
Y766900D02*
D03*
X340000Y805000D02*
D03*
Y792300D02*
D03*
Y779600D02*
D03*
Y766900D02*
D03*
D73*
X539800Y733500D02*
D03*
X494200D02*
D03*
D74*
X517000Y670500D02*
D03*
D75*
X592000Y188000D02*
D03*
Y104000D02*
D03*
X605000Y388000D02*
D03*
Y472000D02*
D03*
D76*
X147000Y448000D02*
D03*
X191000D02*
D03*
Y157000D02*
D03*
X147000D02*
D03*
D77*
X76500Y941000D02*
D03*
X199500D02*
D03*
X76500Y666000D02*
D03*
X199500D02*
D03*
D78*
X438500Y825000D02*
D03*
X419500D02*
D03*
X293500D02*
D03*
X274500D02*
D03*
X148500Y825000D02*
D03*
X129500D02*
D03*
X567500Y699000D02*
D03*
X586500D02*
D03*
X833500Y340000D02*
D03*
X814500D02*
D03*
X833500Y320000D02*
D03*
X814500D02*
D03*
X833500Y300000D02*
D03*
X814500D02*
D03*
X176500Y1042000D02*
D03*
X157500D02*
D03*
X178500Y563000D02*
D03*
X159500D02*
D03*
D79*
X271000Y360000D02*
D03*
Y69000D02*
D03*
D80*
X336000Y383000D02*
D03*
Y337000D02*
D03*
Y92000D02*
D03*
Y46000D02*
D03*
D81*
X608000Y669000D02*
D03*
X546000Y522000D02*
D03*
X547000Y233000D02*
D03*
D82*
X620700Y669000D02*
D03*
X633400D02*
D03*
X646100D02*
D03*
X608000Y717000D02*
D03*
X620700D02*
D03*
X633400D02*
D03*
X646100D02*
D03*
X558700Y522000D02*
D03*
X571400D02*
D03*
X584100D02*
D03*
X546000Y570000D02*
D03*
X558700D02*
D03*
X571400D02*
D03*
X584100D02*
D03*
X559700Y233000D02*
D03*
X572400D02*
D03*
X585100D02*
D03*
X547000Y281000D02*
D03*
X559700D02*
D03*
X572400D02*
D03*
X585100D02*
D03*
D83*
X448000Y396250D02*
D03*
Y552250D02*
D03*
X448000Y105000D02*
D03*
Y261000D02*
D03*
D84*
X563500Y728000D02*
D03*
X582500Y737500D02*
D03*
Y718500D02*
D03*
D85*
X267000Y448500D02*
D03*
X284000D02*
D03*
X301000D02*
D03*
X318000D02*
D03*
X335000D02*
D03*
X267000Y157500D02*
D03*
X284000D02*
D03*
X301000D02*
D03*
X318000D02*
D03*
X335000D02*
D03*
D86*
X301000Y552500D02*
D03*
Y261500D02*
D03*
D87*
X545250Y1105200D02*
D03*
X494450D02*
D03*
X519850D02*
D03*
X418250Y1105400D02*
D03*
X367450D02*
D03*
X443650D02*
D03*
X469050D02*
D03*
X545250Y1130600D02*
D03*
X519850D02*
D03*
X469050D02*
D03*
X494450D02*
D03*
X392850Y1130800D02*
D03*
X367450D02*
D03*
X418250D02*
D03*
X443650D02*
D03*
Y1156200D02*
D03*
X418250D02*
D03*
X367450D02*
D03*
X392850D02*
D03*
X494450Y1156000D02*
D03*
X469050D02*
D03*
X519850D02*
D03*
X124350Y1071000D02*
D03*
Y1096000D02*
D03*
Y1121000D02*
D03*
Y1146000D02*
D03*
Y1171000D02*
D03*
X154350Y1071000D02*
D03*
Y1096000D02*
D03*
Y1171000D02*
D03*
Y1146000D02*
D03*
Y1121000D02*
D03*
X179350Y1071000D02*
D03*
Y1096000D02*
D03*
Y1121000D02*
D03*
Y1146000D02*
D03*
Y1171000D02*
D03*
X209350Y1071000D02*
D03*
Y1096000D02*
D03*
Y1171000D02*
D03*
Y1146000D02*
D03*
Y1121000D02*
D03*
X234350Y1071000D02*
D03*
Y1096000D02*
D03*
Y1121000D02*
D03*
Y1146000D02*
D03*
Y1171000D02*
D03*
X264350Y1071000D02*
D03*
Y1096000D02*
D03*
Y1171000D02*
D03*
Y1146000D02*
D03*
Y1121000D02*
D03*
X319350D02*
D03*
Y1146000D02*
D03*
Y1171000D02*
D03*
Y1096000D02*
D03*
Y1071000D02*
D03*
X289350Y1171000D02*
D03*
Y1146000D02*
D03*
Y1121000D02*
D03*
Y1096000D02*
D03*
Y1071000D02*
D03*
X761950D02*
D03*
Y1096000D02*
D03*
Y1121000D02*
D03*
Y1146000D02*
D03*
Y1171000D02*
D03*
X791950Y1071000D02*
D03*
Y1096000D02*
D03*
Y1171000D02*
D03*
Y1146000D02*
D03*
Y1121000D02*
D03*
X736950D02*
D03*
Y1146000D02*
D03*
Y1171000D02*
D03*
Y1096000D02*
D03*
Y1071000D02*
D03*
X706950Y1171000D02*
D03*
Y1146000D02*
D03*
Y1121000D02*
D03*
Y1096000D02*
D03*
Y1071000D02*
D03*
X681950Y1121000D02*
D03*
Y1146000D02*
D03*
Y1171000D02*
D03*
Y1096000D02*
D03*
Y1071000D02*
D03*
X651950Y1171000D02*
D03*
Y1146000D02*
D03*
Y1121000D02*
D03*
Y1096000D02*
D03*
Y1071000D02*
D03*
X626950Y1121000D02*
D03*
Y1146000D02*
D03*
Y1171000D02*
D03*
Y1096000D02*
D03*
Y1071000D02*
D03*
X596950Y1171000D02*
D03*
Y1146000D02*
D03*
Y1121000D02*
D03*
Y1096000D02*
D03*
Y1071000D02*
D03*
X545250Y1156000D02*
D03*
X392850Y1105400D02*
D03*
D88*
X846950Y1121000D02*
D03*
X69350D02*
D03*
D89*
X630000Y58000D02*
D03*
X732000Y247750D02*
D03*
D90*
X655400Y58000D02*
D03*
X757400Y247750D02*
D03*
X782800D02*
D03*
D91*
X407000Y46000D02*
D03*
X339000Y261250D02*
D03*
X301000D02*
D03*
X264000D02*
D03*
X339000Y233500D02*
D03*
X301500D02*
D03*
X264000D02*
D03*
Y289000D02*
D03*
X301500D02*
D03*
X339000D02*
D03*
X713000Y404000D02*
D03*
X339000Y580000D02*
D03*
X301500D02*
D03*
X382000Y46000D02*
D03*
X531000Y337000D02*
D03*
X532000Y46000D02*
D03*
X507000D02*
D03*
X482000D02*
D03*
X432000D02*
D03*
X381000Y337000D02*
D03*
X264000Y580000D02*
D03*
Y524500D02*
D03*
X301500D02*
D03*
X339000D02*
D03*
X264000Y552250D02*
D03*
X301000D02*
D03*
X339000D02*
D03*
X506000Y337000D02*
D03*
X481000D02*
D03*
X406000D02*
D03*
X663000Y454000D02*
D03*
Y429000D02*
D03*
Y404000D02*
D03*
X713000Y454000D02*
D03*
Y429000D02*
D03*
X431000Y337000D02*
D03*
D92*
X850000Y860000D02*
D03*
X857000Y391000D02*
D03*
X851000Y379000D02*
D03*
X850000Y886000D02*
D03*
Y911000D02*
D03*
X833500Y282500D02*
D03*
X571000Y603000D02*
D03*
X546000D02*
D03*
X558667Y593000D02*
D03*
X870000Y267000D02*
D03*
X583000Y760000D02*
D03*
X439000Y845000D02*
D03*
X453000D02*
D03*
X294000D02*
D03*
X308000D02*
D03*
X163000D02*
D03*
X149000D02*
D03*
X275000D02*
D03*
X419000D02*
D03*
X466000Y740000D02*
D03*
X584000Y593000D02*
D03*
X378000Y805000D02*
D03*
X511000D02*
D03*
X567000Y681000D02*
D03*
X512000Y691000D02*
D03*
X281000Y642000D02*
D03*
X374000D02*
D03*
Y616000D02*
D03*
X281000D02*
D03*
X281000Y629000D02*
D03*
X374000Y629000D02*
D03*
X676000Y176000D02*
D03*
X585000Y304000D02*
D03*
X559667D02*
D03*
X572000Y314000D02*
D03*
X547000D02*
D03*
X646000Y740000D02*
D03*
X608000Y750000D02*
D03*
X633000D02*
D03*
X620667Y740000D02*
D03*
X355000Y25000D02*
D03*
X345000Y16000D02*
D03*
X840000Y695000D02*
D03*
Y750000D02*
D03*
X831000Y760000D02*
D03*
Y683000D02*
D03*
M02*
