M48
;Layer_Color=9474304
;FILE_FORMAT=4:4
METRIC,LZ
;TYPE=PLATED
T1F00S00C0.5000
T2F00S00C1.0000
T3F00S00C1.1000
%
T01
X00345Y00016
X00355Y00025
X00676Y00176
X00585Y00304
X00572Y00314
X008335Y002825
X0087Y00267
X00851Y00379
X00857Y00391
X00559667Y00304
X00547Y00314
X00163Y00845
X00149
X00275
X00294
X00308
X00378Y00805
X00419Y00845
X00439
X00453
X00511Y00805
X00466Y0074
X00512Y00691
X00546Y00603
X00558667Y00593
X00374Y00616
Y00629
Y00642
X00281
Y00629
X00281Y00616
X00571Y00603
X00584Y00593
X00567Y00681
X00583Y0076
X00608Y0075
X00620667Y0074
X00633Y0075
X00646Y0074
X0084Y0075
X00831Y0076
X0084Y00695
X00831Y00683
X0085Y0086
Y00886
Y00911
T02
X00382Y00046
X00407
X00432
X00482
X00507
X00532
X0063Y00058
X006554
X00732Y0024775
X007574
X007828
X00713Y00404
Y00429
Y00454
X00663Y00454
Y00429
Y00404
X00531Y00337
X00506
X00481
X00431
X00406
X00381
X00339Y00289
X00339Y0026125
X00339Y002335
X003015
X00301Y0026125
X003015Y00289
X00264
Y0026125
Y002335
Y005245
X003015
X00339
X00339Y0055225
X00339Y0058
X003015
X00301Y0055225
X00264
Y0058
T03
X0059695Y01071
Y01096
Y01121
Y01146
Y01171
X0062695
X0065195
Y01146
X0062695
Y01121
X0065195
Y01096
X0062695
Y01071
X0065195
X0068195
X0070695
Y01096
X0068195
Y01121
X0070695
Y01146
X0068195
Y01171
X0070695
X0073695
X0076195
Y01146
Y01121
Y01096
Y01071
X0073695
Y01096
Y01121
Y01146
X0079195
Y01171
Y01121
Y01096
Y01071
X0054525Y011052
X0051985
X0049445
Y011306
X0051985
X0054525
Y01156
X0051985
X0049445
X0046905
Y011306
Y011054
X0044365
X0041825
Y011308
X0039285
X0036745
Y011054
X0039285
Y011562
X0041825
X0044365
Y011308
X0036745Y011562
X0031935Y01146
Y01121
Y01096
Y01071
X0028935
X0026435
Y01096
Y01121
Y01146
Y01171
X0028935
Y01146
Y01121
Y01096
X0023435
X0020935
Y01071
X0023435
Y01121
X0020935
Y01146
X0023435
Y01171
X0020935
X0017935
Y01146
Y01121
Y01096
Y01071
X0031935Y01171
X0015435
Y01146
Y01121
Y01096
Y01071
X0012435
Y01096
Y01121
Y01146
Y01171
M30
